%TF.GenerationSoftware,KiCad,Pcbnew,10.0.3*%
%TF.CreationDate,2026-07-15T11:48:59-04:00*%
%TF.ProjectId,pcbfiles,70636266-696c-4657-932e-6b696361645f,rev?*%
%TF.SameCoordinates,Original*%
%TF.FileFunction,Paste,Top*%
%TF.FilePolarity,Positive*%
%FSLAX46Y46*%
G04 Gerber Fmt 4.6, Leading zero omitted, Abs format (unit mm)*
G04 Created by KiCad (PCBNEW 10.0.3) date 2026-07-15 11:48:59*
%MOMM*%
%LPD*%
G01*
G04 APERTURE LIST*
G04 Aperture macros list*
%AMRoundRect*
0 Rectangle with rounded corners*
0 $1 Rounding radius*
0 $2 $3 $4 $5 $6 $7 $8 $9 X,Y pos of 4 corners*
0 Add a 4 corners polygon primitive as box body*
4,1,4,$2,$3,$4,$5,$6,$7,$8,$9,$2,$3,0*
0 Add four circle primitives for the rounded corners*
1,1,$1+$1,$2,$3*
1,1,$1+$1,$4,$5*
1,1,$1+$1,$6,$7*
1,1,$1+$1,$8,$9*
0 Add four rect primitives between the rounded corners*
20,1,$1+$1,$2,$3,$4,$5,0*
20,1,$1+$1,$4,$5,$6,$7,0*
20,1,$1+$1,$6,$7,$8,$9,0*
20,1,$1+$1,$8,$9,$2,$3,0*%
G04 Aperture macros list end*
%ADD10R,1.150000X0.300000*%
%ADD11R,1.150000X0.600000*%
%ADD12RoundRect,0.087500X-0.537500X-0.087500X0.537500X-0.087500X0.537500X0.087500X-0.537500X0.087500X0*%
%ADD13RoundRect,0.140000X0.140000X0.170000X-0.140000X0.170000X-0.140000X-0.170000X0.140000X-0.170000X0*%
%ADD14RoundRect,0.150000X-0.512500X-0.150000X0.512500X-0.150000X0.512500X0.150000X-0.512500X0.150000X0*%
%ADD15RoundRect,0.140000X-0.140000X-0.170000X0.140000X-0.170000X0.140000X0.170000X-0.140000X0.170000X0*%
%ADD16RoundRect,0.140000X-0.170000X0.140000X-0.170000X-0.140000X0.170000X-0.140000X0.170000X0.140000X0*%
%ADD17RoundRect,0.200000X0.275000X-0.200000X0.275000X0.200000X-0.275000X0.200000X-0.275000X-0.200000X0*%
%ADD18RoundRect,0.087500X0.250000X0.087500X-0.250000X0.087500X-0.250000X-0.087500X0.250000X-0.087500X0*%
%ADD19RoundRect,0.062500X-0.117500X-0.062500X0.117500X-0.062500X0.117500X0.062500X-0.117500X0.062500X0*%
%ADD20RoundRect,0.250000X0.650000X-0.325000X0.650000X0.325000X-0.650000X0.325000X-0.650000X-0.325000X0*%
%ADD21RoundRect,0.200000X0.200000X0.275000X-0.200000X0.275000X-0.200000X-0.275000X0.200000X-0.275000X0*%
%ADD22RoundRect,0.225000X0.250000X-0.225000X0.250000X0.225000X-0.250000X0.225000X-0.250000X-0.225000X0*%
%ADD23RoundRect,0.140000X0.170000X-0.140000X0.170000X0.140000X-0.170000X0.140000X-0.170000X-0.140000X0*%
%ADD24RoundRect,0.200000X-0.275000X0.200000X-0.275000X-0.200000X0.275000X-0.200000X0.275000X0.200000X0*%
%ADD25RoundRect,0.050000X-0.285000X-0.100000X0.285000X-0.100000X0.285000X0.100000X-0.285000X0.100000X0*%
%ADD26RoundRect,0.062500X-0.062500X0.117500X-0.062500X-0.117500X0.062500X-0.117500X0.062500X0.117500X0*%
%ADD27RoundRect,0.250000X-0.325000X-0.650000X0.325000X-0.650000X0.325000X0.650000X-0.325000X0.650000X0*%
%ADD28RoundRect,0.218750X-0.256250X0.218750X-0.256250X-0.218750X0.256250X-0.218750X0.256250X0.218750X0*%
%ADD29RoundRect,0.075000X-0.075000X-0.662500X0.075000X-0.662500X0.075000X0.662500X-0.075000X0.662500X0*%
%ADD30RoundRect,0.075000X-0.662500X-0.075000X0.662500X-0.075000X0.662500X0.075000X-0.662500X0.075000X0*%
%ADD31RoundRect,0.062500X0.375000X-0.062500X0.375000X0.062500X-0.375000X0.062500X-0.375000X-0.062500X0*%
%ADD32RoundRect,0.062500X0.062500X-0.375000X0.062500X0.375000X-0.062500X0.375000X-0.062500X-0.375000X0*%
%ADD33RoundRect,0.160000X0.160000X-0.160000X0.160000X0.160000X-0.160000X0.160000X-0.160000X-0.160000X0*%
%ADD34RoundRect,0.200000X-0.200000X-0.275000X0.200000X-0.275000X0.200000X0.275000X-0.200000X0.275000X0*%
%ADD35RoundRect,0.250000X0.475000X-0.250000X0.475000X0.250000X-0.475000X0.250000X-0.475000X-0.250000X0*%
%ADD36RoundRect,0.150000X0.512500X0.150000X-0.512500X0.150000X-0.512500X-0.150000X0.512500X-0.150000X0*%
%ADD37RoundRect,0.087500X-0.250000X-0.087500X0.250000X-0.087500X0.250000X0.087500X-0.250000X0.087500X0*%
%ADD38RoundRect,0.250000X-0.475000X-2.500000X0.475000X-2.500000X0.475000X2.500000X-0.475000X2.500000X0*%
%ADD39RoundRect,0.250000X0.325000X0.650000X-0.325000X0.650000X-0.325000X-0.650000X0.325000X-0.650000X0*%
%ADD40RoundRect,0.150000X-0.150000X0.512500X-0.150000X-0.512500X0.150000X-0.512500X0.150000X0.512500X0*%
%ADD41RoundRect,0.225000X0.225000X0.250000X-0.225000X0.250000X-0.225000X-0.250000X0.225000X-0.250000X0*%
%ADD42RoundRect,0.250000X-1.000000X0.375000X-1.000000X-0.375000X1.000000X-0.375000X1.000000X0.375000X0*%
%ADD43RoundRect,0.062500X0.117500X0.062500X-0.117500X0.062500X-0.117500X-0.062500X0.117500X-0.062500X0*%
%ADD44RoundRect,0.218750X0.256250X-0.218750X0.256250X0.218750X-0.256250X0.218750X-0.256250X-0.218750X0*%
%ADD45RoundRect,0.072500X0.532500X0.217500X-0.532500X0.217500X-0.532500X-0.217500X0.532500X-0.217500X0*%
%ADD46RoundRect,0.225000X-0.250000X0.225000X-0.250000X-0.225000X0.250000X-0.225000X0.250000X0.225000X0*%
%ADD47R,1.295400X1.549400*%
%ADD48RoundRect,0.249999X-0.450001X0.650001X-0.450001X-0.650001X0.450001X-0.650001X0.450001X0.650001X0*%
%ADD49RoundRect,0.225000X-0.225000X-0.250000X0.225000X-0.250000X0.225000X0.250000X-0.225000X0.250000X0*%
%ADD50R,1.409700X0.355600*%
%ADD51RoundRect,0.150000X0.150000X-0.512500X0.150000X0.512500X-0.150000X0.512500X-0.150000X-0.512500X0*%
%ADD52RoundRect,0.087500X-0.425000X-0.087500X0.425000X-0.087500X0.425000X0.087500X-0.425000X0.087500X0*%
%ADD53RoundRect,0.218750X0.218750X0.256250X-0.218750X0.256250X-0.218750X-0.256250X0.218750X-0.256250X0*%
%ADD54RoundRect,0.250000X-0.650000X0.325000X-0.650000X-0.325000X0.650000X-0.325000X0.650000X0.325000X0*%
%ADD55R,0.430000X2.540000*%
%ADD56R,0.430000X4.700000*%
%ADD57R,2.270000X0.279000*%
%ADD58RoundRect,0.062500X0.062500X0.212500X-0.062500X0.212500X-0.062500X-0.212500X0.062500X-0.212500X0*%
%ADD59RoundRect,0.050000X0.450000X0.050000X-0.450000X0.050000X-0.450000X-0.050000X0.450000X-0.050000X0*%
%ADD60RoundRect,0.050000X0.275000X0.050000X-0.275000X0.050000X-0.275000X-0.050000X0.275000X-0.050000X0*%
%ADD61RoundRect,0.087500X0.087500X-0.425000X0.087500X0.425000X-0.087500X0.425000X-0.087500X-0.425000X0*%
%ADD62RoundRect,0.245000X-0.245000X-1.605000X0.245000X-1.605000X0.245000X1.605000X-0.245000X1.605000X0*%
%ADD63R,3.500000X2.950000*%
%ADD64RoundRect,0.087500X-0.087500X0.425000X-0.087500X-0.425000X0.087500X-0.425000X0.087500X0.425000X0*%
%ADD65RoundRect,0.087500X0.087500X-0.250000X0.087500X0.250000X-0.087500X0.250000X-0.087500X-0.250000X0*%
%ADD66RoundRect,0.135000X0.185000X-0.135000X0.185000X0.135000X-0.185000X0.135000X-0.185000X-0.135000X0*%
%ADD67RoundRect,0.075000X0.540000X0.225000X-0.540000X0.225000X-0.540000X-0.225000X0.540000X-0.225000X0*%
%ADD68R,0.599999X0.200000*%
%ADD69R,0.399999X1.050000*%
%ADD70RoundRect,0.135000X0.135000X0.185000X-0.135000X0.185000X-0.135000X-0.185000X0.135000X-0.185000X0*%
%ADD71RoundRect,0.087500X-0.087500X0.250000X-0.087500X-0.250000X0.087500X-0.250000X0.087500X0.250000X0*%
%ADD72RoundRect,0.135000X-0.135000X-0.185000X0.135000X-0.185000X0.135000X0.185000X-0.135000X0.185000X0*%
%ADD73RoundRect,0.033750X0.526250X0.101250X-0.526250X0.101250X-0.526250X-0.101250X0.526250X-0.101250X0*%
G04 APERTURE END LIST*
D10*
%TO.C,USB-C1*%
X185905000Y-141310000D03*
X185905000Y-142310000D03*
X185905000Y-143810000D03*
X185905000Y-144810000D03*
D11*
X185905000Y-145460000D03*
X185905000Y-146260000D03*
D10*
X185905000Y-144310000D03*
X185905000Y-143310000D03*
X185905000Y-142810000D03*
X185905000Y-141810000D03*
D11*
X185905000Y-140660000D03*
X185905000Y-139860000D03*
%TD*%
D12*
%TO.C,LS2*%
X260710000Y-196012500D03*
X260710000Y-196512500D03*
X260710000Y-197012500D03*
X260710000Y-197512500D03*
X257910000Y-197512500D03*
X257910000Y-197012500D03*
X257910000Y-196512500D03*
X257910000Y-196012500D03*
%TD*%
D13*
%TO.C,C17*%
X214080000Y-140680000D03*
X215040000Y-140680000D03*
%TD*%
D14*
%TO.C,SPST4*%
X283047500Y-151030000D03*
X283047500Y-152930000D03*
X280772500Y-152930000D03*
X280772500Y-151980000D03*
X280772500Y-151030000D03*
%TD*%
D15*
%TO.C,C73*%
X258740000Y-183230000D03*
X257780000Y-183230000D03*
%TD*%
D16*
%TO.C,C10*%
X228210000Y-166410000D03*
X228210000Y-165450000D03*
%TD*%
D17*
%TO.C,R11*%
X195760000Y-155355000D03*
X195760000Y-157005000D03*
%TD*%
D18*
%TO.C,BUF8*%
X258897500Y-200532500D03*
X258897500Y-199532500D03*
X260322500Y-199532500D03*
X260322500Y-200032500D03*
X260322500Y-200532500D03*
%TD*%
D19*
%TO.C,D4*%
X247440000Y-200030000D03*
X248280000Y-200030000D03*
%TD*%
D20*
%TO.C,C4*%
X197760000Y-141530000D03*
X197760000Y-144480000D03*
%TD*%
D16*
%TO.C,C92*%
X256400000Y-198050000D03*
X256400000Y-197090000D03*
%TD*%
D14*
%TO.C,LD1*%
X254185000Y-152980000D03*
X254185000Y-153930000D03*
X254185000Y-154880000D03*
X251910000Y-154880000D03*
X251910000Y-153930000D03*
X251910000Y-152980000D03*
%TD*%
D13*
%TO.C,C43*%
X242405000Y-129962500D03*
X243365000Y-129962500D03*
%TD*%
D21*
%TO.C,R51*%
X243860000Y-212330000D03*
X245510000Y-212330000D03*
%TD*%
D22*
%TO.C,C75*%
X249977500Y-151435000D03*
X249977500Y-152985000D03*
%TD*%
D23*
%TO.C,C68*%
X228770000Y-189990000D03*
X228770000Y-190950000D03*
%TD*%
D24*
%TO.C,R31*%
X242435000Y-159005000D03*
X242435000Y-157355000D03*
%TD*%
D25*
%TO.C,BUCK_1V8*%
X240050000Y-130837500D03*
X240050000Y-131337500D03*
X240050000Y-131837500D03*
X240050000Y-132337500D03*
X238570000Y-132337500D03*
X238570000Y-131837500D03*
X238570000Y-131337500D03*
X238570000Y-130837500D03*
%TD*%
D26*
%TO.C,D1*%
X253190000Y-178190000D03*
X253190000Y-179030000D03*
%TD*%
D27*
%TO.C,C46*%
X238360000Y-142395000D03*
X235410000Y-142395000D03*
%TD*%
D15*
%TO.C,C89*%
X261900000Y-164403750D03*
X260940000Y-164403750D03*
%TD*%
D23*
%TO.C,C83*%
X258560000Y-148310000D03*
X258560000Y-149270000D03*
%TD*%
D28*
%TO.C,FLT*%
X245685000Y-158917500D03*
X245685000Y-157342500D03*
%TD*%
D21*
%TO.C,R73*%
X274695000Y-135710000D03*
X276345000Y-135710000D03*
%TD*%
D14*
%TO.C,SPST3*%
X277022500Y-149792500D03*
X277022500Y-151692500D03*
X274747500Y-151692500D03*
X274747500Y-150742500D03*
X274747500Y-149792500D03*
%TD*%
D21*
%TO.C,R70*%
X274685000Y-141480000D03*
X276335000Y-141480000D03*
%TD*%
D27*
%TO.C,C48*%
X247560000Y-131687500D03*
X244610000Y-131687500D03*
%TD*%
D29*
%TO.C,STM32H1*%
X232235000Y-174555000D03*
X232735000Y-174555000D03*
X233235000Y-174555000D03*
X233735000Y-174555000D03*
X234235000Y-174555000D03*
X234735000Y-174555000D03*
X235235000Y-174555000D03*
X235735000Y-174555000D03*
X236235000Y-174555000D03*
X236735000Y-174555000D03*
X237235000Y-174555000D03*
X237735000Y-174555000D03*
X238235000Y-174555000D03*
X238735000Y-174555000D03*
X239235000Y-174555000D03*
X239735000Y-174555000D03*
X240235000Y-174555000D03*
X240735000Y-174555000D03*
X241235000Y-174555000D03*
X241735000Y-174555000D03*
X242235000Y-174555000D03*
X242735000Y-174555000D03*
X243235000Y-174555000D03*
X243735000Y-174555000D03*
X244235000Y-174555000D03*
X244735000Y-174555000D03*
X245235000Y-174555000D03*
X245735000Y-174555000D03*
X246235000Y-174555000D03*
X246735000Y-174555000D03*
X247235000Y-174555000D03*
X247735000Y-174555000D03*
X248235000Y-174555000D03*
X248735000Y-174555000D03*
X249235000Y-174555000D03*
X249735000Y-174555000D03*
D30*
X251647500Y-176467500D03*
X251647500Y-176967500D03*
X251647500Y-177467500D03*
X251647500Y-177967500D03*
X251647500Y-178467500D03*
X251647500Y-178967500D03*
X251647500Y-179467500D03*
X251647500Y-179967500D03*
X251647500Y-180467500D03*
X251647500Y-180967500D03*
X251647500Y-181467500D03*
X251647500Y-181967500D03*
X251647500Y-182467500D03*
X251647500Y-182967500D03*
X251647500Y-183467500D03*
X251647500Y-183967500D03*
X251647500Y-184467500D03*
X251647500Y-184967500D03*
X251647500Y-185467500D03*
X251647500Y-185967500D03*
X251647500Y-186467500D03*
X251647500Y-186967500D03*
X251647500Y-187467500D03*
X251647500Y-187967500D03*
X251647500Y-188467500D03*
X251647500Y-188967500D03*
X251647500Y-189467500D03*
X251647500Y-189967500D03*
X251647500Y-190467500D03*
X251647500Y-190967500D03*
X251647500Y-191467500D03*
X251647500Y-191967500D03*
X251647500Y-192467500D03*
X251647500Y-192967500D03*
X251647500Y-193467500D03*
X251647500Y-193967500D03*
D29*
X249735000Y-195880000D03*
X249235000Y-195880000D03*
X248735000Y-195880000D03*
X248235000Y-195880000D03*
X247735000Y-195880000D03*
X247235000Y-195880000D03*
X246735000Y-195880000D03*
X246235000Y-195880000D03*
X245735000Y-195880000D03*
X245235000Y-195880000D03*
X244735000Y-195880000D03*
X244235000Y-195880000D03*
X243735000Y-195880000D03*
X243235000Y-195880000D03*
X242735000Y-195880000D03*
X242235000Y-195880000D03*
X241735000Y-195880000D03*
X241235000Y-195880000D03*
X240735000Y-195880000D03*
X240235000Y-195880000D03*
X239735000Y-195880000D03*
X239235000Y-195880000D03*
X238735000Y-195880000D03*
X238235000Y-195880000D03*
X237735000Y-195880000D03*
X237235000Y-195880000D03*
X236735000Y-195880000D03*
X236235000Y-195880000D03*
X235735000Y-195880000D03*
X235235000Y-195880000D03*
X234735000Y-195880000D03*
X234235000Y-195880000D03*
X233735000Y-195880000D03*
X233235000Y-195880000D03*
X232735000Y-195880000D03*
X232235000Y-195880000D03*
D30*
X230322500Y-193967500D03*
X230322500Y-193467500D03*
X230322500Y-192967500D03*
X230322500Y-192467500D03*
X230322500Y-191967500D03*
X230322500Y-191467500D03*
X230322500Y-190967500D03*
X230322500Y-190467500D03*
X230322500Y-189967500D03*
X230322500Y-189467500D03*
X230322500Y-188967500D03*
X230322500Y-188467500D03*
X230322500Y-187967500D03*
X230322500Y-187467500D03*
X230322500Y-186967500D03*
X230322500Y-186467500D03*
X230322500Y-185967500D03*
X230322500Y-185467500D03*
X230322500Y-184967500D03*
X230322500Y-184467500D03*
X230322500Y-183967500D03*
X230322500Y-183467500D03*
X230322500Y-182967500D03*
X230322500Y-182467500D03*
X230322500Y-181967500D03*
X230322500Y-181467500D03*
X230322500Y-180967500D03*
X230322500Y-180467500D03*
X230322500Y-179967500D03*
X230322500Y-179467500D03*
X230322500Y-178967500D03*
X230322500Y-178467500D03*
X230322500Y-177967500D03*
X230322500Y-177467500D03*
X230322500Y-176967500D03*
X230322500Y-176467500D03*
%TD*%
D31*
%TO.C,CHGR1*%
X212372500Y-157580000D03*
X212372500Y-157080000D03*
X212372500Y-156580000D03*
X212372500Y-156080000D03*
D32*
X213060000Y-155392500D03*
X213560000Y-155392500D03*
X214060000Y-155392500D03*
X214560000Y-155392500D03*
D31*
X215247500Y-156080000D03*
X215247500Y-156580000D03*
X215247500Y-157080000D03*
X215247500Y-157580000D03*
D32*
X214560000Y-158267500D03*
X214060000Y-158267500D03*
X213560000Y-158267500D03*
X213060000Y-158267500D03*
D33*
X214210000Y-156430000D03*
X213410000Y-156430000D03*
X214210000Y-157230000D03*
X213410000Y-157230000D03*
%TD*%
D34*
%TO.C,R88*%
X261395000Y-137407250D03*
X259745000Y-137407250D03*
%TD*%
D23*
%TO.C,C38*%
X237360000Y-130857500D03*
X237360000Y-131817500D03*
%TD*%
D13*
%TO.C,C61*%
X243780000Y-197567500D03*
X244740000Y-197567500D03*
%TD*%
D34*
%TO.C,R77*%
X262127500Y-192930000D03*
X260477500Y-192930000D03*
%TD*%
D35*
%TO.C,C11*%
X205010000Y-129400000D03*
X205010000Y-131300000D03*
%TD*%
D20*
%TO.C,C14*%
X219011050Y-129137500D03*
X219011050Y-132087500D03*
%TD*%
D23*
%TO.C,C5*%
X212085000Y-175600000D03*
X212085000Y-176560000D03*
%TD*%
D17*
%TO.C,R32*%
X204710000Y-148155000D03*
X204710000Y-149805000D03*
%TD*%
D36*
%TO.C,LD6*%
X273420000Y-155403750D03*
X273420000Y-154453750D03*
X273420000Y-153503750D03*
X275695000Y-153503750D03*
X275695000Y-154453750D03*
X275695000Y-155403750D03*
%TD*%
D37*
%TO.C,INV5*%
X257435000Y-149380000D03*
X257435000Y-150380000D03*
X256010000Y-150380000D03*
X256010000Y-149880000D03*
X256010000Y-149380000D03*
%TD*%
D21*
%TO.C,R69*%
X267835000Y-196830000D03*
X269485000Y-196830000D03*
%TD*%
D34*
%TO.C,R74*%
X262127500Y-194530000D03*
X260477500Y-194530000D03*
%TD*%
D14*
%TO.C,LD5*%
X260807500Y-156167500D03*
X260807500Y-157117500D03*
X260807500Y-158067500D03*
X258532500Y-158067500D03*
X258532500Y-157117500D03*
X258532500Y-156167500D03*
%TD*%
D37*
%TO.C,BUF3*%
X254622500Y-201580000D03*
X254622500Y-202580000D03*
X253197500Y-202580000D03*
X253197500Y-202080000D03*
X253197500Y-201580000D03*
%TD*%
D13*
%TO.C,C41*%
X242180000Y-132662500D03*
X243140000Y-132662500D03*
%TD*%
D16*
%TO.C,C39*%
X222185000Y-136592500D03*
X222185000Y-135632500D03*
%TD*%
D17*
%TO.C,R41*%
X219835000Y-240025000D03*
X219835000Y-241675000D03*
%TD*%
D38*
%TO.C,L_BK1*%
X245110000Y-139530000D03*
X241110000Y-139530000D03*
%TD*%
D14*
%TO.C,LD4*%
X254582500Y-158303750D03*
X254582500Y-159253750D03*
X254582500Y-160203750D03*
X252307500Y-160203750D03*
X252307500Y-159253750D03*
X252307500Y-158303750D03*
%TD*%
D13*
%TO.C,C32*%
X246005000Y-146230000D03*
X246965000Y-146230000D03*
%TD*%
D17*
%TO.C,R7*%
X199060000Y-138080000D03*
X199060000Y-139730000D03*
%TD*%
D28*
%TO.C,FB1*%
X223435000Y-192617500D03*
X223435000Y-191042500D03*
%TD*%
D16*
%TO.C,C64*%
X233060000Y-198360000D03*
X233060000Y-197400000D03*
%TD*%
D39*
%TO.C,C6*%
X211385000Y-152280000D03*
X214335000Y-152280000D03*
%TD*%
D17*
%TO.C,R86*%
X278820000Y-149327500D03*
X278820000Y-150977500D03*
%TD*%
D40*
%TO.C,AND3*%
X260945000Y-162816250D03*
X259045000Y-162816250D03*
X259045000Y-160541250D03*
X259995000Y-160541250D03*
X260945000Y-160541250D03*
%TD*%
D13*
%TO.C,C33*%
X217505000Y-145280000D03*
X218465000Y-145280000D03*
%TD*%
D23*
%TO.C,C54*%
X253385000Y-175487500D03*
X253385000Y-176447500D03*
%TD*%
D37*
%TO.C,BUF10*%
X258517500Y-189180000D03*
X258517500Y-190180000D03*
X257092500Y-190180000D03*
X257092500Y-189680000D03*
X257092500Y-189180000D03*
%TD*%
D16*
%TO.C,C22*%
X206160000Y-148660000D03*
X206160000Y-147700000D03*
%TD*%
D17*
%TO.C,R27*%
X215010000Y-145255000D03*
X215010000Y-146905000D03*
%TD*%
D37*
%TO.C,BUF4*%
X260312500Y-186270000D03*
X260312500Y-187270000D03*
X258887500Y-187270000D03*
X258887500Y-186770000D03*
X258887500Y-186270000D03*
%TD*%
D41*
%TO.C,C31*%
X219135000Y-143605000D03*
X220685000Y-143605000D03*
%TD*%
D36*
%TO.C,SPST1*%
X259272500Y-152305000D03*
X259272500Y-150405000D03*
X261547500Y-150405000D03*
X261547500Y-151355000D03*
X261547500Y-152305000D03*
%TD*%
D15*
%TO.C,C20*%
X209960000Y-149380000D03*
X209000000Y-149380000D03*
%TD*%
D34*
%TO.C,R52*%
X213440000Y-215625000D03*
X211790000Y-215625000D03*
%TD*%
D17*
%TO.C,R45*%
X222610000Y-140562500D03*
X222610000Y-142212500D03*
%TD*%
D34*
%TO.C,R67*%
X269485000Y-195230000D03*
X267835000Y-195230000D03*
%TD*%
D13*
%TO.C,C67*%
X231280000Y-172980000D03*
X232240000Y-172980000D03*
%TD*%
D42*
%TO.C,3.3V_EN*%
X216965000Y-239995000D03*
X216965000Y-237495000D03*
X216965000Y-234995000D03*
%TD*%
D43*
%TO.C,D5*%
X255600000Y-181870000D03*
X254760000Y-181870000D03*
%TD*%
D17*
%TO.C,R20*%
X235510000Y-154105000D03*
X235510000Y-155755000D03*
%TD*%
%TO.C,R83*%
X272925000Y-148067500D03*
X272925000Y-149717500D03*
%TD*%
D24*
%TO.C,R28*%
X214470000Y-150045000D03*
X214470000Y-148395000D03*
%TD*%
D34*
%TO.C,R65*%
X264285000Y-182330000D03*
X262635000Y-182330000D03*
%TD*%
D44*
%TO.C,BAT_CHG*%
X197810000Y-155442500D03*
X197810000Y-157017500D03*
%TD*%
D15*
%TO.C,C57*%
X250940000Y-197680000D03*
X249980000Y-197680000D03*
%TD*%
%TO.C,C28*%
X226590000Y-147580000D03*
X225630000Y-147580000D03*
%TD*%
D45*
%TO.C,VTGT_3V3*%
X220180000Y-147230000D03*
X220180000Y-146280000D03*
X220180000Y-145330000D03*
X222690000Y-145330000D03*
X222690000Y-146280000D03*
X222690000Y-147230000D03*
%TD*%
D21*
%TO.C,R66*%
X258885000Y-154055000D03*
X260535000Y-154055000D03*
%TD*%
%TO.C,R15*%
X231910000Y-166230000D03*
X233560000Y-166230000D03*
%TD*%
D16*
%TO.C,C71*%
X228685000Y-193410000D03*
X228685000Y-192450000D03*
%TD*%
D37*
%TO.C,INV4*%
X256637500Y-183280000D03*
X256637500Y-184280000D03*
X255212500Y-184280000D03*
X255212500Y-183780000D03*
X255212500Y-183280000D03*
%TD*%
D17*
%TO.C,R38*%
X240385000Y-149455000D03*
X240385000Y-151105000D03*
%TD*%
D18*
%TO.C,BUF7*%
X256647500Y-174132500D03*
X256647500Y-173132500D03*
X258072500Y-173132500D03*
X258072500Y-173632500D03*
X258072500Y-174132500D03*
%TD*%
D27*
%TO.C,C45*%
X247585000Y-134480000D03*
X244635000Y-134480000D03*
%TD*%
D34*
%TO.C,R58*%
X249935000Y-201280000D03*
X248285000Y-201280000D03*
%TD*%
%TO.C,R89*%
X261495000Y-139107250D03*
X259845000Y-139107250D03*
%TD*%
D15*
%TO.C,C44*%
X236615000Y-137430000D03*
X235655000Y-137430000D03*
%TD*%
D23*
%TO.C,C55*%
X227045000Y-185992500D03*
X227045000Y-186952500D03*
%TD*%
D21*
%TO.C,R17*%
X210960000Y-132280000D03*
X212610000Y-132280000D03*
%TD*%
D46*
%TO.C,C9*%
X248210000Y-156905000D03*
X248210000Y-155355000D03*
%TD*%
D23*
%TO.C,C90*%
X259240000Y-192970000D03*
X259240000Y-193930000D03*
%TD*%
%TO.C,C29*%
X206760000Y-129870000D03*
X206760000Y-130830000D03*
%TD*%
D34*
%TO.C,R68*%
X276485000Y-130355000D03*
X274835000Y-130355000D03*
%TD*%
D13*
%TO.C,C91*%
X272750000Y-166932500D03*
X273710000Y-166932500D03*
%TD*%
D21*
%TO.C,R85*%
X259845000Y-188650000D03*
X261495000Y-188650000D03*
%TD*%
D37*
%TO.C,BUF9*%
X269372500Y-185482500D03*
X269372500Y-186482500D03*
X267947500Y-186482500D03*
X267947500Y-185982500D03*
X267947500Y-185482500D03*
%TD*%
D24*
%TO.C,R53*%
X216285000Y-217120000D03*
X216285000Y-215470000D03*
%TD*%
D47*
%TO.C,TRGT_PWR_EN*%
X213959999Y-176554998D03*
X213959999Y-168605002D03*
X218460001Y-176554998D03*
X218460001Y-168605002D03*
%TD*%
D48*
%TO.C,Y1*%
X225260000Y-182580000D03*
X225260000Y-186980000D03*
X222860000Y-186980000D03*
X222860000Y-182580000D03*
%TD*%
D17*
%TO.C,R24*%
X213310000Y-145205000D03*
X213310000Y-146855000D03*
%TD*%
%TO.C,R40*%
X220110000Y-221120000D03*
X220110000Y-222770000D03*
%TD*%
D49*
%TO.C,C2*%
X215460000Y-162230000D03*
X213910000Y-162230000D03*
%TD*%
D17*
%TO.C,R5*%
X208360000Y-160355000D03*
X208360000Y-162005000D03*
%TD*%
D34*
%TO.C,R64*%
X264285000Y-184030000D03*
X262635000Y-184030000D03*
%TD*%
D13*
%TO.C,C12*%
X212130000Y-128680000D03*
X213090000Y-128680000D03*
%TD*%
D17*
%TO.C,R39*%
X220035000Y-233375000D03*
X220035000Y-235025000D03*
%TD*%
D20*
%TO.C,C36*%
X231350000Y-128960000D03*
X231350000Y-131910000D03*
%TD*%
D21*
%TO.C,R79*%
X274645000Y-145480000D03*
X276295000Y-145480000D03*
%TD*%
D50*
%TO.C,DEC1*%
X264957250Y-175654999D03*
X264957250Y-175004998D03*
X264957250Y-174354999D03*
X264957250Y-173704998D03*
X264957250Y-173054999D03*
X264957250Y-172405001D03*
X264957250Y-171754999D03*
X264957250Y-171105001D03*
X270862750Y-171105001D03*
X270862750Y-171755002D03*
X270862750Y-172405001D03*
X270862750Y-173055002D03*
X270862750Y-173705001D03*
X270862750Y-174354999D03*
X270862750Y-175005001D03*
X270862750Y-175654999D03*
%TD*%
D34*
%TO.C,R18*%
X210335000Y-129330000D03*
X208685000Y-129330000D03*
%TD*%
D37*
%TO.C,INV1*%
X218622500Y-164505000D03*
X218622500Y-165505000D03*
X217197500Y-165505000D03*
X217197500Y-165005000D03*
X217197500Y-164505000D03*
%TD*%
D13*
%TO.C,C87*%
X254100000Y-186460000D03*
X255060000Y-186460000D03*
%TD*%
D51*
%TO.C,AND4*%
X273722500Y-168642500D03*
X275622500Y-168642500D03*
X275622500Y-170917500D03*
X274672500Y-170917500D03*
X273722500Y-170917500D03*
%TD*%
D36*
%TO.C,LD7*%
X273660000Y-165555000D03*
X273660000Y-164605000D03*
X273660000Y-163655000D03*
X275935000Y-163655000D03*
X275935000Y-164605000D03*
X275935000Y-165555000D03*
%TD*%
D16*
%TO.C,C24*%
X212010000Y-139210000D03*
X212010000Y-138250000D03*
%TD*%
D20*
%TO.C,C16*%
X216436050Y-129137500D03*
X216436050Y-132087500D03*
%TD*%
D37*
%TO.C,BUF5*%
X265522500Y-191927500D03*
X265522500Y-192927500D03*
X264097500Y-192927500D03*
X264097500Y-192427500D03*
X264097500Y-191927500D03*
%TD*%
D23*
%TO.C,C84*%
X258010000Y-179365000D03*
X258010000Y-180325000D03*
%TD*%
D52*
%TO.C,OR2*%
X260847500Y-202530000D03*
X260847500Y-203830000D03*
X259172500Y-203830000D03*
X259172500Y-203180000D03*
X259172500Y-202530000D03*
%TD*%
D51*
%TO.C,AND2*%
X232635000Y-162205000D03*
X234535000Y-162205000D03*
X234535000Y-164480000D03*
X233585000Y-164480000D03*
X232635000Y-164480000D03*
%TD*%
D24*
%TO.C,R34*%
X206160000Y-135605000D03*
X206160000Y-133955000D03*
%TD*%
D53*
%TO.C,BOOT0_LED*%
X222062500Y-178960000D03*
X223637500Y-178960000D03*
%TD*%
D12*
%TO.C,LS1*%
X262310000Y-179295000D03*
X262310000Y-179795000D03*
X262310000Y-180295000D03*
X262310000Y-180795000D03*
X259510000Y-180795000D03*
X259510000Y-180295000D03*
X259510000Y-179795000D03*
X259510000Y-179295000D03*
%TD*%
D54*
%TO.C,C35*%
X219185000Y-137487500D03*
X219185000Y-134537500D03*
%TD*%
D45*
%TO.C,VTGT_1V1*%
X249030000Y-148155000D03*
X249030000Y-147205000D03*
X249030000Y-146255000D03*
X251540000Y-146255000D03*
X251540000Y-147205000D03*
X251540000Y-148155000D03*
%TD*%
D24*
%TO.C,R42*%
X219760000Y-229395000D03*
X219760000Y-227745000D03*
%TD*%
D21*
%TO.C,R60*%
X220060000Y-237500000D03*
X221710000Y-237500000D03*
%TD*%
D43*
%TO.C,D3*%
X253030000Y-196430000D03*
X252190000Y-196430000D03*
%TD*%
D46*
%TO.C,C76*%
X254860000Y-167280000D03*
X254860000Y-165730000D03*
%TD*%
D17*
%TO.C,R12*%
X247010000Y-150930000D03*
X247010000Y-152580000D03*
%TD*%
%TO.C,R13*%
X202510000Y-155405000D03*
X202510000Y-157055000D03*
%TD*%
D22*
%TO.C,C70*%
X225095000Y-191072500D03*
X225095000Y-192622500D03*
%TD*%
D34*
%TO.C,R19*%
X237635000Y-165820000D03*
X235985000Y-165820000D03*
%TD*%
D51*
%TO.C,OVP1*%
X221860000Y-155680000D03*
X222810000Y-155680000D03*
X223760000Y-155680000D03*
X223760000Y-157955000D03*
X222810000Y-157955000D03*
X221860000Y-157955000D03*
%TD*%
D21*
%TO.C,R90*%
X272835000Y-173480000D03*
X274485000Y-173480000D03*
%TD*%
D18*
%TO.C,BUF11*%
X256697500Y-172040000D03*
X256697500Y-171040000D03*
X258122500Y-171040000D03*
X258122500Y-171540000D03*
X258122500Y-172040000D03*
%TD*%
D37*
%TO.C,BOOST1*%
X213322500Y-129780000D03*
X213322500Y-130280000D03*
X213322500Y-130780000D03*
X211897500Y-130780000D03*
X211897500Y-130280000D03*
X211897500Y-129780000D03*
%TD*%
D42*
%TO.C,1V8_EN*%
X216660000Y-227730000D03*
X216660000Y-225230000D03*
X216660000Y-222730000D03*
%TD*%
D46*
%TO.C,C18*%
X239110000Y-164955000D03*
X239110000Y-163405000D03*
%TD*%
D19*
%TO.C,D2*%
X244840000Y-170780000D03*
X245680000Y-170780000D03*
%TD*%
D46*
%TO.C,C81*%
X277612500Y-156941250D03*
X277612500Y-155391250D03*
%TD*%
D34*
%TO.C,R22*%
X226035000Y-152730000D03*
X224385000Y-152730000D03*
%TD*%
D35*
%TO.C,C23*%
X205860000Y-137430000D03*
X205860000Y-139330000D03*
%TD*%
D17*
%TO.C,R26*%
X215060000Y-141955000D03*
X215060000Y-143605000D03*
%TD*%
D23*
%TO.C,C8*%
X219710000Y-163540000D03*
X219710000Y-164500000D03*
%TD*%
D45*
%TO.C,OCP1*%
X242705000Y-155355000D03*
X242705000Y-154405000D03*
X242705000Y-153455000D03*
X245215000Y-153455000D03*
X245215000Y-154405000D03*
X245215000Y-155355000D03*
%TD*%
D21*
%TO.C,R76*%
X274685000Y-143280000D03*
X276335000Y-143280000D03*
%TD*%
D34*
%TO.C,R62*%
X256035000Y-180540000D03*
X254385000Y-180540000D03*
%TD*%
D55*
%TO.C,J_CARDX_L_1*%
X267670000Y-166720250D03*
D56*
X267670000Y-161830250D03*
X267670000Y-155480250D03*
D55*
X267670000Y-150590250D03*
X267670000Y-146717250D03*
D56*
X267670000Y-141827250D03*
X267670000Y-135477250D03*
D55*
X267670000Y-130587250D03*
D57*
X270535000Y-165906650D03*
X264805000Y-165906650D03*
X270535000Y-165406550D03*
X264805000Y-165406550D03*
X270535000Y-164906450D03*
X264805000Y-164906450D03*
X270535000Y-164406350D03*
X264805000Y-164406350D03*
X270535000Y-163906250D03*
X264805000Y-163906250D03*
X270535000Y-163406150D03*
X264805000Y-163406150D03*
X270535000Y-162906050D03*
X264805000Y-162906050D03*
X270535000Y-162406050D03*
X264805000Y-162406050D03*
X270535000Y-161905950D03*
X264805000Y-161905950D03*
X270535000Y-161405850D03*
X264805000Y-161405850D03*
X270535000Y-160905750D03*
X264805000Y-160905750D03*
X270535000Y-160405550D03*
X264805000Y-160405550D03*
X270535000Y-159905450D03*
X264805000Y-159905450D03*
X270535000Y-159405350D03*
X264805000Y-159405350D03*
X270535000Y-158905250D03*
X264805000Y-158905250D03*
X270535000Y-158405200D03*
X264805000Y-158405200D03*
X270535000Y-157905100D03*
X264805000Y-157905100D03*
X270535000Y-157405000D03*
X264805000Y-157405000D03*
X270535000Y-156904900D03*
X264805000Y-156904900D03*
X270535000Y-156404800D03*
X264805000Y-156404800D03*
X270535000Y-155904700D03*
X264805000Y-155904700D03*
X270535000Y-155404600D03*
X264805000Y-155404600D03*
X270535000Y-154904500D03*
X264805000Y-154904500D03*
X270535000Y-154404400D03*
X264805000Y-154404400D03*
X270535000Y-153904300D03*
X264805000Y-153904300D03*
X270535000Y-153404200D03*
X264805000Y-153404200D03*
X270535000Y-152904100D03*
X264805000Y-152904100D03*
X270535000Y-152404000D03*
X264805000Y-152404000D03*
X270535000Y-151903900D03*
X264805000Y-151903900D03*
X270535000Y-151403800D03*
X264805000Y-151403800D03*
X270535000Y-145903700D03*
X264805000Y-145903700D03*
X270535000Y-145403600D03*
X264805000Y-145403600D03*
X270535000Y-144903500D03*
X264805000Y-144903500D03*
X270535000Y-144403400D03*
X264805000Y-144403400D03*
X270535000Y-143903300D03*
X264805000Y-143903300D03*
X270535000Y-143403200D03*
X264805000Y-143403200D03*
X270535000Y-142903100D03*
X264805000Y-142903100D03*
X270535000Y-142403000D03*
X264805000Y-142403000D03*
X270535000Y-141902900D03*
X264805000Y-141902900D03*
X270535000Y-141402800D03*
X264805000Y-141402800D03*
X270535000Y-140902700D03*
X264805000Y-140902700D03*
X270535000Y-140402600D03*
X264805000Y-140402600D03*
X270535000Y-139902500D03*
X264805000Y-139902500D03*
X270535000Y-139402400D03*
X264805000Y-139402400D03*
X270535000Y-138902300D03*
X264805000Y-138902300D03*
X270535000Y-138402250D03*
X264805000Y-138402250D03*
X270535000Y-137902150D03*
X264805000Y-137902150D03*
X270535000Y-137402050D03*
X264805000Y-137402050D03*
X270535000Y-136901950D03*
X264805000Y-136901950D03*
X270535000Y-136401750D03*
X264805000Y-136401750D03*
X270535000Y-135901650D03*
X264805000Y-135901650D03*
X270535000Y-135401550D03*
X264805000Y-135401550D03*
X270535000Y-134901450D03*
X264805000Y-134901450D03*
X270535000Y-134401450D03*
X264805000Y-134401450D03*
X270535000Y-133901350D03*
X264805000Y-133901350D03*
X270535000Y-133401250D03*
X264805000Y-133401250D03*
X270535000Y-132901150D03*
X264805000Y-132901150D03*
X270535000Y-132401050D03*
X264805000Y-132401050D03*
X270535000Y-131900950D03*
X264805000Y-131900950D03*
X270535000Y-131400850D03*
X264805000Y-131400850D03*
%TD*%
D34*
%TO.C,R87*%
X261395000Y-135507250D03*
X259745000Y-135507250D03*
%TD*%
D58*
%TO.C,EFUSE1*%
X211122500Y-136930000D03*
X210622500Y-136930000D03*
X210122500Y-136930000D03*
X209622500Y-136930000D03*
D59*
X209672500Y-136255000D03*
D60*
X209497500Y-135755000D03*
D59*
X209672500Y-135255000D03*
D60*
X211247500Y-135255000D03*
D59*
X211072500Y-135755000D03*
D60*
X211247500Y-136255000D03*
%TD*%
D34*
%TO.C,R56*%
X256035000Y-179030000D03*
X254385000Y-179030000D03*
%TD*%
D61*
%TO.C,OR3*%
X254460000Y-187680000D03*
X255760000Y-187680000D03*
X255760000Y-189355000D03*
X255110000Y-189355000D03*
X254460000Y-189355000D03*
%TD*%
D17*
%TO.C,R25*%
X221010000Y-150680000D03*
X221010000Y-152330000D03*
%TD*%
D46*
%TO.C,C82*%
X277732500Y-167105000D03*
X277732500Y-165555000D03*
%TD*%
D52*
%TO.C,OR1*%
X253697500Y-173130000D03*
X253697500Y-174430000D03*
X252022500Y-174430000D03*
X252022500Y-173780000D03*
X252022500Y-173130000D03*
%TD*%
D62*
%TO.C,L_BST1*%
X203645000Y-135380000D03*
X201275000Y-135380000D03*
%TD*%
D34*
%TO.C,R59*%
X257785000Y-191500000D03*
X256135000Y-191500000D03*
%TD*%
D63*
%TO.C,LBK-1*%
X229360000Y-142237500D03*
X229360000Y-136787500D03*
%TD*%
D15*
%TO.C,C21*%
X242060000Y-164360000D03*
X241100000Y-164360000D03*
%TD*%
D17*
%TO.C,R23*%
X213310000Y-141955000D03*
X213310000Y-143605000D03*
%TD*%
D23*
%TO.C,C93*%
X262210000Y-195750000D03*
X262210000Y-196710000D03*
%TD*%
D49*
%TO.C,C7*%
X244610000Y-151880000D03*
X243060000Y-151880000D03*
%TD*%
D64*
%TO.C,OR4*%
X254660000Y-194017500D03*
X253360000Y-194017500D03*
X253360000Y-192342500D03*
X254010000Y-192342500D03*
X254660000Y-192342500D03*
%TD*%
D21*
%TO.C,R9*%
X216810000Y-178705000D03*
X218460000Y-178705000D03*
%TD*%
D65*
%TO.C,BUF6*%
X256160000Y-175717500D03*
X257160000Y-175717500D03*
X257160000Y-177142500D03*
X256660000Y-177142500D03*
X256160000Y-177142500D03*
%TD*%
D15*
%TO.C,C51*%
X252440000Y-207167500D03*
X251480000Y-207167500D03*
%TD*%
D66*
%TO.C,R10*%
X206460000Y-160770000D03*
X206460000Y-161790000D03*
%TD*%
D54*
%TO.C,C37*%
X216410000Y-137412500D03*
X216410000Y-134462500D03*
%TD*%
D21*
%TO.C,R50*%
X248935000Y-212380000D03*
X250585000Y-212380000D03*
%TD*%
D16*
%TO.C,C40*%
X229260000Y-134467500D03*
X229260000Y-133507500D03*
%TD*%
D17*
%TO.C,R8*%
X209935000Y-174955000D03*
X209935000Y-176605000D03*
%TD*%
%TO.C,R36*%
X214440000Y-135210000D03*
X214440000Y-136860000D03*
%TD*%
D49*
%TO.C,C72*%
X224960000Y-189377500D03*
X223410000Y-189377500D03*
%TD*%
D35*
%TO.C,C27*%
X201310000Y-129430000D03*
X201310000Y-131330000D03*
%TD*%
D34*
%TO.C,R61*%
X247335000Y-172380000D03*
X245685000Y-172380000D03*
%TD*%
D17*
%TO.C,R30*%
X245710000Y-160680000D03*
X245710000Y-162330000D03*
%TD*%
%TO.C,R1*%
X197160000Y-138080000D03*
X197160000Y-139730000D03*
%TD*%
D14*
%TO.C,SPST2*%
X275822500Y-131980000D03*
X275822500Y-133880000D03*
X273547500Y-133880000D03*
X273547500Y-132930000D03*
X273547500Y-131980000D03*
%TD*%
D23*
%TO.C,C56*%
X253210000Y-187500000D03*
X253210000Y-188460000D03*
%TD*%
D15*
%TO.C,C26*%
X254865000Y-148680000D03*
X253905000Y-148680000D03*
%TD*%
D23*
%TO.C,C74*%
X254960000Y-172200000D03*
X254960000Y-173160000D03*
%TD*%
D16*
%TO.C,C25*%
X208910000Y-139610000D03*
X208910000Y-138650000D03*
%TD*%
D17*
%TO.C,R6*%
X185350000Y-149175000D03*
X185350000Y-150825000D03*
%TD*%
D23*
%TO.C,C52*%
X227030000Y-183392500D03*
X227030000Y-184352500D03*
%TD*%
D17*
%TO.C,R37*%
X210610000Y-138405000D03*
X210610000Y-140055000D03*
%TD*%
D34*
%TO.C,R84*%
X261510000Y-190380000D03*
X259860000Y-190380000D03*
%TD*%
D17*
%TO.C,R4*%
X204460000Y-160455000D03*
X204460000Y-162105000D03*
%TD*%
D22*
%TO.C,C78*%
X250525000Y-156718750D03*
X250525000Y-158268750D03*
%TD*%
D34*
%TO.C,R57*%
X253885000Y-197730000D03*
X252235000Y-197730000D03*
%TD*%
D15*
%TO.C,C60*%
X239740000Y-172917500D03*
X238780000Y-172917500D03*
%TD*%
D27*
%TO.C,C47*%
X238410000Y-139330000D03*
X235460000Y-139330000D03*
%TD*%
D28*
%TO.C,TRGT_PWR*%
X240410000Y-158967500D03*
X240410000Y-157392500D03*
%TD*%
D20*
%TO.C,C34*%
X234860000Y-128980000D03*
X234860000Y-131930000D03*
%TD*%
D15*
%TO.C,C50*%
X213015000Y-217145000D03*
X212055000Y-217145000D03*
%TD*%
D23*
%TO.C,C58*%
X228610000Y-183500000D03*
X228610000Y-184460000D03*
%TD*%
D41*
%TO.C,C30*%
X243760000Y-144280000D03*
X245310000Y-144280000D03*
%TD*%
D22*
%TO.C,C77*%
X257000000Y-164195000D03*
X257000000Y-165745000D03*
%TD*%
D21*
%TO.C,R71*%
X274735000Y-139630000D03*
X276385000Y-139630000D03*
%TD*%
%TO.C,R63*%
X219610000Y-225245000D03*
X221260000Y-225245000D03*
%TD*%
D15*
%TO.C,C13*%
X232540000Y-160680000D03*
X231580000Y-160680000D03*
%TD*%
D21*
%TO.C,R82*%
X267820000Y-191230000D03*
X269470000Y-191230000D03*
%TD*%
D37*
%TO.C,BUF1*%
X269372500Y-188280000D03*
X269372500Y-189280000D03*
X267947500Y-189280000D03*
X267947500Y-188780000D03*
X267947500Y-188280000D03*
%TD*%
D23*
%TO.C,C79*%
X262152500Y-201585000D03*
X262152500Y-202545000D03*
%TD*%
D37*
%TO.C,INV6*%
X258110000Y-193570000D03*
X258110000Y-194570000D03*
X256685000Y-194570000D03*
X256685000Y-194070000D03*
X256685000Y-193570000D03*
%TD*%
D13*
%TO.C,C19*%
X221805000Y-154155000D03*
X222765000Y-154155000D03*
%TD*%
D20*
%TO.C,C1*%
X200360000Y-141555000D03*
X200360000Y-144505000D03*
%TD*%
D23*
%TO.C,C42*%
X224470000Y-141230000D03*
X224470000Y-142190000D03*
%TD*%
D18*
%TO.C,INV2*%
X254272500Y-147655000D03*
X254272500Y-146655000D03*
X255697500Y-146655000D03*
X255697500Y-147155000D03*
X255697500Y-147655000D03*
%TD*%
D17*
%TO.C,R55*%
X226810000Y-190980000D03*
X226810000Y-192630000D03*
%TD*%
D65*
%TO.C,INV7*%
X280360000Y-147767500D03*
X281360000Y-147767500D03*
X281360000Y-149192500D03*
X280860000Y-149192500D03*
X280360000Y-149192500D03*
%TD*%
D51*
%TO.C,U-ESD1*%
X198160000Y-133817500D03*
X199110000Y-136092500D03*
X197210000Y-136092500D03*
%TD*%
D17*
%TO.C,R43*%
X226535000Y-133537500D03*
X226535000Y-135187500D03*
%TD*%
D67*
%TO.C,Q_OVP1*%
X230725000Y-154905000D03*
X232845000Y-153955000D03*
X232845000Y-155855000D03*
%TD*%
D21*
%TO.C,R80*%
X274595000Y-147380000D03*
X276245000Y-147380000D03*
%TD*%
%TO.C,R72*%
X274685000Y-137630000D03*
X276335000Y-137630000D03*
%TD*%
D47*
%TO.C,RESET*%
X211789999Y-213517498D03*
X211789999Y-205567502D03*
X216290001Y-213517498D03*
X216290001Y-205567502D03*
%TD*%
D13*
%TO.C,C66*%
X238780000Y-197617500D03*
X239740000Y-197617500D03*
%TD*%
D22*
%TO.C,C63*%
X254710000Y-175905000D03*
X254710000Y-177455000D03*
%TD*%
D49*
%TO.C,C62*%
X250810000Y-198980000D03*
X249260000Y-198980000D03*
%TD*%
D34*
%TO.C,R75*%
X264332500Y-187180000D03*
X262682500Y-187180000D03*
%TD*%
D13*
%TO.C,C59*%
X242780000Y-172867500D03*
X243740000Y-172867500D03*
%TD*%
D17*
%TO.C,R3*%
X210560000Y-160355000D03*
X210560000Y-162005000D03*
%TD*%
D40*
%TO.C,AND1*%
X226810000Y-164767500D03*
X224910000Y-164767500D03*
X224910000Y-162492500D03*
X225860000Y-162492500D03*
X226810000Y-162492500D03*
%TD*%
D15*
%TO.C,C49*%
X246540000Y-129837500D03*
X245580000Y-129837500D03*
%TD*%
D34*
%TO.C,R81*%
X269485000Y-192860000D03*
X267835000Y-192860000D03*
%TD*%
D15*
%TO.C,C88*%
X255640000Y-195130000D03*
X254680000Y-195130000D03*
%TD*%
D21*
%TO.C,R78*%
X262685000Y-185580000D03*
X264335000Y-185580000D03*
%TD*%
D68*
%TO.C,PWR_MUX1*%
X207360002Y-148030001D03*
X207360002Y-147530000D03*
X207360002Y-147030000D03*
X207360002Y-146529999D03*
D69*
X208185002Y-146605000D03*
X208885001Y-146605000D03*
D68*
X209660000Y-146529999D03*
X209660000Y-147030000D03*
X209660000Y-147530000D03*
X209660000Y-148030001D03*
D69*
X208885001Y-147955000D03*
X208185002Y-147955000D03*
%TD*%
D34*
%TO.C,R49*%
X231135000Y-206855000D03*
X229485000Y-206855000D03*
%TD*%
%TO.C,R2*%
X210785000Y-154780000D03*
X209135000Y-154780000D03*
%TD*%
D70*
%TO.C,R48*%
X242400000Y-128862500D03*
X243420000Y-128862500D03*
%TD*%
D71*
%TO.C,BUF12*%
X259360000Y-177155000D03*
X258360000Y-177155000D03*
X258360000Y-175730000D03*
X258860000Y-175730000D03*
X259360000Y-175730000D03*
%TD*%
D24*
%TO.C,R21*%
X228360000Y-153230000D03*
X228360000Y-151580000D03*
%TD*%
%TO.C,R33*%
X218910000Y-155655000D03*
X218910000Y-154005000D03*
%TD*%
D16*
%TO.C,C3*%
X187240000Y-150080000D03*
X187240000Y-149120000D03*
%TD*%
D34*
%TO.C,R54*%
X223685000Y-176050000D03*
X222035000Y-176050000D03*
%TD*%
D13*
%TO.C,C94*%
X279360000Y-146505000D03*
X280320000Y-146505000D03*
%TD*%
D16*
%TO.C,C69*%
X253305000Y-183922500D03*
X253305000Y-182962500D03*
%TD*%
D66*
%TO.C,R47*%
X244460000Y-128827500D03*
X244460000Y-129847500D03*
%TD*%
D14*
%TO.C,LD3*%
X261222500Y-165855000D03*
X261222500Y-166805000D03*
X261222500Y-167755000D03*
X258947500Y-167755000D03*
X258947500Y-166805000D03*
X258947500Y-165855000D03*
%TD*%
D23*
%TO.C,C106*%
X255785000Y-200600000D03*
X255785000Y-201560000D03*
%TD*%
D44*
%TO.C,BAT_SET*%
X200485000Y-155417500D03*
X200485000Y-156992500D03*
%TD*%
D36*
%TO.C,NAND1*%
X279447500Y-135792500D03*
X279447500Y-133892500D03*
X281722500Y-133892500D03*
X281722500Y-134842500D03*
X281722500Y-135792500D03*
%TD*%
D13*
%TO.C,C65*%
X227655000Y-178930000D03*
X228615000Y-178930000D03*
%TD*%
D24*
%TO.C,R35*%
X212790000Y-136890000D03*
X212790000Y-135240000D03*
%TD*%
D36*
%TO.C,LD2*%
X250797500Y-165717500D03*
X250797500Y-164767500D03*
X250797500Y-163817500D03*
X253072500Y-163817500D03*
X253072500Y-164767500D03*
X253072500Y-165717500D03*
%TD*%
D13*
%TO.C,C15*%
X236780000Y-163255000D03*
X237740000Y-163255000D03*
%TD*%
D23*
%TO.C,C86*%
X263760000Y-178850000D03*
X263760000Y-179810000D03*
%TD*%
D22*
%TO.C,C80*%
X256637500Y-154617500D03*
X256637500Y-156167500D03*
%TD*%
D35*
%TO.C,C53*%
X228260000Y-175430000D03*
X228260000Y-177330000D03*
%TD*%
D16*
%TO.C,C95*%
X263135000Y-176610000D03*
X263135000Y-175650000D03*
%TD*%
D37*
%TO.C,BUF2*%
X265522500Y-194280000D03*
X265522500Y-195280000D03*
X264097500Y-195280000D03*
X264097500Y-194780000D03*
X264097500Y-194280000D03*
%TD*%
D17*
%TO.C,R29*%
X217360000Y-148455000D03*
X217360000Y-150105000D03*
%TD*%
D18*
%TO.C,INV3*%
X225647500Y-146455000D03*
X225647500Y-145455000D03*
X227072500Y-145455000D03*
X227072500Y-145955000D03*
X227072500Y-146455000D03*
%TD*%
D15*
%TO.C,C85*%
X281465000Y-137217500D03*
X280505000Y-137217500D03*
%TD*%
D72*
%TO.C,R44*%
X243145000Y-131562500D03*
X242125000Y-131562500D03*
%TD*%
D24*
%TO.C,R14*%
X239535000Y-155355000D03*
X239535000Y-153705000D03*
%TD*%
D21*
%TO.C,R16*%
X211685000Y-127280000D03*
X213335000Y-127280000D03*
%TD*%
D17*
%TO.C,R46*%
X219485000Y-139005000D03*
X219485000Y-140655000D03*
%TD*%
D25*
%TO.C,BUCK_3V3*%
X225075000Y-135250000D03*
X225075000Y-135750000D03*
X225075000Y-136250000D03*
X225075000Y-136750000D03*
X223595000Y-136750000D03*
X223595000Y-136250000D03*
X223595000Y-135750000D03*
X223595000Y-135250000D03*
%TD*%
D73*
%TO.C,ARM1*%
X241280000Y-163305000D03*
X241280000Y-162805000D03*
X241280000Y-162305000D03*
X241280000Y-161805000D03*
X244090000Y-161805000D03*
X244090000Y-162305000D03*
X244090000Y-162805000D03*
X244090000Y-163305000D03*
%TD*%
M02*
