%TF.GenerationSoftware,KiCad,Pcbnew,10.0.3*%
%TF.CreationDate,2026-07-15T11:48:59-04:00*%
%TF.ProjectId,pcbfiles,70636266-696c-4657-932e-6b696361645f,rev?*%
%TF.SameCoordinates,Original*%
%TF.FileFunction,Paste,Bot*%
%TF.FilePolarity,Positive*%
%FSLAX46Y46*%
G04 Gerber Fmt 4.6, Leading zero omitted, Abs format (unit mm)*
G04 Created by KiCad (PCBNEW 10.0.3) date 2026-07-15 11:48:59*
%MOMM*%
%LPD*%
G01*
G04 APERTURE LIST*
G04 Aperture macros list*
%AMRoundRect*
0 Rectangle with rounded corners*
0 $1 Rounding radius*
0 $2 $3 $4 $5 $6 $7 $8 $9 X,Y pos of 4 corners*
0 Add a 4 corners polygon primitive as box body*
4,1,4,$2,$3,$4,$5,$6,$7,$8,$9,$2,$3,0*
0 Add four circle primitives for the rounded corners*
1,1,$1+$1,$2,$3*
1,1,$1+$1,$4,$5*
1,1,$1+$1,$6,$7*
1,1,$1+$1,$8,$9*
0 Add four rect primitives between the rounded corners*
20,1,$1+$1,$2,$3,$4,$5,0*
20,1,$1+$1,$4,$5,$6,$7,0*
20,1,$1+$1,$6,$7,$8,$9,0*
20,1,$1+$1,$8,$9,$2,$3,0*%
G04 Aperture macros list end*
%ADD10RoundRect,0.140000X0.140000X0.170000X-0.140000X0.170000X-0.140000X-0.170000X0.140000X-0.170000X0*%
%ADD11RoundRect,0.140000X-0.170000X0.140000X-0.170000X-0.140000X0.170000X-0.140000X0.170000X0.140000X0*%
%ADD12R,1.450000X0.305000*%
%ADD13R,0.640000X2.540000*%
%ADD14R,0.640000X4.700000*%
%ADD15RoundRect,0.140000X0.170000X-0.140000X0.170000X0.140000X-0.170000X0.140000X-0.170000X-0.140000X0*%
%ADD16RoundRect,0.225000X-0.250000X0.225000X-0.250000X-0.225000X0.250000X-0.225000X0.250000X0.225000X0*%
%ADD17RoundRect,0.140000X-0.140000X-0.170000X0.140000X-0.170000X0.140000X0.170000X-0.140000X0.170000X0*%
%ADD18RoundRect,0.225000X-0.225000X-0.250000X0.225000X-0.250000X0.225000X0.250000X-0.225000X0.250000X0*%
G04 APERTURE END LIST*
D10*
%TO.C,C103*%
X226662488Y-312427500D03*
X225702488Y-312427500D03*
%TD*%
D11*
%TO.C,C104*%
X235662488Y-310069999D03*
X235662488Y-311029999D03*
%TD*%
D12*
%TO.C,LQFP64_DATA_1*%
X184036487Y-283857500D03*
X190208489Y-283857500D03*
X184036488Y-284357500D03*
X190208488Y-284357500D03*
X184036488Y-284857500D03*
X190208488Y-284857500D03*
X184036488Y-285357500D03*
X190208488Y-285357500D03*
X184036488Y-285857500D03*
X190208488Y-285857500D03*
X184036487Y-286357500D03*
X190208489Y-286357500D03*
X184036488Y-286857500D03*
X190208488Y-286857500D03*
X184036488Y-287357500D03*
X190208488Y-287357500D03*
X184036488Y-287857500D03*
X190208488Y-287857500D03*
X184036488Y-288357500D03*
X190208488Y-288357500D03*
X184036488Y-288857499D03*
X190208488Y-288857499D03*
X184036488Y-289357500D03*
X190208488Y-289357500D03*
X184036488Y-289857500D03*
X190208488Y-289857500D03*
X184036488Y-290357501D03*
X190208488Y-290357501D03*
X184036488Y-290857500D03*
X190208488Y-290857500D03*
X184036488Y-291357499D03*
X190208488Y-291357499D03*
X184036488Y-291857500D03*
X190208488Y-291857500D03*
X184036488Y-292357500D03*
X190208488Y-292357500D03*
X184036488Y-292857501D03*
X190208488Y-292857501D03*
X184036488Y-293357500D03*
X190208488Y-293357500D03*
X184036488Y-293857500D03*
X190208488Y-293857500D03*
X184036488Y-294357500D03*
X190208488Y-294357500D03*
X184036488Y-294857500D03*
X190208488Y-294857500D03*
X184036487Y-295357500D03*
X190208489Y-295357500D03*
X184036488Y-295857500D03*
X190208488Y-295857500D03*
X184036488Y-296357500D03*
X190208488Y-296357500D03*
X184036488Y-296857500D03*
X190208488Y-296857500D03*
X184036488Y-297357500D03*
X190208488Y-297357500D03*
X184036488Y-297857499D03*
X190208488Y-297857499D03*
X184036488Y-298357500D03*
X190208488Y-298357500D03*
X184036488Y-303857500D03*
X190208488Y-303857500D03*
X184036488Y-304357501D03*
X190208488Y-304357501D03*
X184036488Y-304857500D03*
X190208488Y-304857500D03*
X184036488Y-305357500D03*
X190208488Y-305357500D03*
X184036488Y-305857500D03*
X190208488Y-305857500D03*
X184036488Y-306357500D03*
X190208488Y-306357500D03*
X184036487Y-306857500D03*
X190208489Y-306857500D03*
X184036488Y-307357500D03*
X190212488Y-307357499D03*
X184036488Y-307857500D03*
X190208488Y-307857500D03*
X184036488Y-308357500D03*
X190208488Y-308357500D03*
X184036488Y-308857500D03*
X190208488Y-308857500D03*
X184036488Y-309357499D03*
X190208488Y-309357499D03*
X184036488Y-309857500D03*
X190208488Y-309857500D03*
X184036488Y-310357500D03*
X190208488Y-310357500D03*
X184036488Y-310857501D03*
X190208488Y-310857501D03*
X184036488Y-311357500D03*
X190208488Y-311357500D03*
X184036488Y-311857499D03*
X190208488Y-311857499D03*
X184036488Y-312357500D03*
X190208488Y-312357500D03*
X184036488Y-312857500D03*
X190208488Y-312857500D03*
X184036488Y-313357501D03*
X190208488Y-313357501D03*
X184036488Y-313857500D03*
X190208488Y-313857500D03*
X184036488Y-314357500D03*
X190208488Y-314357500D03*
X184036488Y-314857500D03*
X190208488Y-314857500D03*
X184036488Y-315357500D03*
X190208488Y-315357500D03*
X184036487Y-315857500D03*
X190208489Y-315857500D03*
X184036488Y-316357500D03*
X190208488Y-316357500D03*
X184036488Y-316857500D03*
X190208488Y-316857500D03*
X184036488Y-317357500D03*
X190208488Y-317357500D03*
X184036488Y-317857500D03*
X190208488Y-317857500D03*
X184036487Y-318357500D03*
X190208489Y-318357500D03*
D13*
X187122488Y-282667500D03*
D14*
X187122488Y-287926501D03*
X187122488Y-294276501D03*
D13*
X187122488Y-299547499D03*
X187122488Y-302667501D03*
D14*
X187122488Y-307938499D03*
X187122488Y-314288499D03*
D13*
X187122488Y-319547500D03*
%TD*%
D15*
%TO.C,C101*%
X217432488Y-295790000D03*
X217432488Y-294830000D03*
%TD*%
D10*
%TO.C,C100*%
X228442488Y-286540000D03*
X227482488Y-286540000D03*
%TD*%
D15*
%TO.C,C96*%
X217462488Y-303430000D03*
X217462488Y-302470000D03*
%TD*%
D16*
%TO.C,C102*%
X221382488Y-303815000D03*
X221382488Y-305365000D03*
%TD*%
D15*
%TO.C,C105*%
X243402488Y-295800000D03*
X243402488Y-294840000D03*
%TD*%
D17*
%TO.C,C98*%
X223892488Y-295250000D03*
X224852488Y-295250000D03*
%TD*%
%TO.C,C99*%
X234172488Y-286607500D03*
X235132488Y-286607500D03*
%TD*%
D18*
%TO.C,C97*%
X223917488Y-304449999D03*
X225467488Y-304449999D03*
%TD*%
M02*
