%TF.GenerationSoftware,KiCad,Pcbnew,10.0.3*%
%TF.CreationDate,2026-07-15T11:48:59-04:00*%
%TF.ProjectId,pcbfiles,70636266-696c-4657-932e-6b696361645f,rev?*%
%TF.SameCoordinates,Original*%
%TF.FileFunction,Legend,Bot*%
%TF.FilePolarity,Positive*%
%FSLAX46Y46*%
G04 Gerber Fmt 4.6, Leading zero omitted, Abs format (unit mm)*
G04 Created by KiCad (PCBNEW 10.0.3) date 2026-07-15 11:48:59*
%MOMM*%
%LPD*%
G01*
G04 APERTURE LIST*
%ADD10C,0.150000*%
%ADD11C,0.120000*%
%ADD12C,0.200000*%
%ADD13C,0.254000*%
G04 APERTURE END LIST*
D10*
X227301535Y-313919579D02*
X227349154Y-313967199D01*
X227349154Y-313967199D02*
X227492011Y-314014818D01*
X227492011Y-314014818D02*
X227587249Y-314014818D01*
X227587249Y-314014818D02*
X227730106Y-313967199D01*
X227730106Y-313967199D02*
X227825344Y-313871960D01*
X227825344Y-313871960D02*
X227872963Y-313776722D01*
X227872963Y-313776722D02*
X227920582Y-313586246D01*
X227920582Y-313586246D02*
X227920582Y-313443389D01*
X227920582Y-313443389D02*
X227872963Y-313252913D01*
X227872963Y-313252913D02*
X227825344Y-313157675D01*
X227825344Y-313157675D02*
X227730106Y-313062437D01*
X227730106Y-313062437D02*
X227587249Y-313014818D01*
X227587249Y-313014818D02*
X227492011Y-313014818D01*
X227492011Y-313014818D02*
X227349154Y-313062437D01*
X227349154Y-313062437D02*
X227301535Y-313110056D01*
X226349154Y-314014818D02*
X226920582Y-314014818D01*
X226634868Y-314014818D02*
X226634868Y-313014818D01*
X226634868Y-313014818D02*
X226730106Y-313157675D01*
X226730106Y-313157675D02*
X226825344Y-313252913D01*
X226825344Y-313252913D02*
X226920582Y-313300532D01*
X225730106Y-313014818D02*
X225634868Y-313014818D01*
X225634868Y-313014818D02*
X225539630Y-313062437D01*
X225539630Y-313062437D02*
X225492011Y-313110056D01*
X225492011Y-313110056D02*
X225444392Y-313205294D01*
X225444392Y-313205294D02*
X225396773Y-313395770D01*
X225396773Y-313395770D02*
X225396773Y-313633865D01*
X225396773Y-313633865D02*
X225444392Y-313824341D01*
X225444392Y-313824341D02*
X225492011Y-313919579D01*
X225492011Y-313919579D02*
X225539630Y-313967199D01*
X225539630Y-313967199D02*
X225634868Y-314014818D01*
X225634868Y-314014818D02*
X225730106Y-314014818D01*
X225730106Y-314014818D02*
X225825344Y-313967199D01*
X225825344Y-313967199D02*
X225872963Y-313919579D01*
X225872963Y-313919579D02*
X225920582Y-313824341D01*
X225920582Y-313824341D02*
X225968201Y-313633865D01*
X225968201Y-313633865D02*
X225968201Y-313395770D01*
X225968201Y-313395770D02*
X225920582Y-313205294D01*
X225920582Y-313205294D02*
X225872963Y-313110056D01*
X225872963Y-313110056D02*
X225825344Y-313062437D01*
X225825344Y-313062437D02*
X225730106Y-313014818D01*
X225063439Y-313014818D02*
X224444392Y-313014818D01*
X224444392Y-313014818D02*
X224777725Y-313395770D01*
X224777725Y-313395770D02*
X224634868Y-313395770D01*
X224634868Y-313395770D02*
X224539630Y-313443389D01*
X224539630Y-313443389D02*
X224492011Y-313491008D01*
X224492011Y-313491008D02*
X224444392Y-313586246D01*
X224444392Y-313586246D02*
X224444392Y-313824341D01*
X224444392Y-313824341D02*
X224492011Y-313919579D01*
X224492011Y-313919579D02*
X224539630Y-313967199D01*
X224539630Y-313967199D02*
X224634868Y-314014818D01*
X224634868Y-314014818D02*
X224920582Y-314014818D01*
X224920582Y-314014818D02*
X225015820Y-313967199D01*
X225015820Y-313967199D02*
X225063439Y-313919579D01*
X236072068Y-312450951D02*
X236119688Y-312403332D01*
X236119688Y-312403332D02*
X236167307Y-312260475D01*
X236167307Y-312260475D02*
X236167307Y-312165237D01*
X236167307Y-312165237D02*
X236119688Y-312022380D01*
X236119688Y-312022380D02*
X236024449Y-311927142D01*
X236024449Y-311927142D02*
X235929211Y-311879523D01*
X235929211Y-311879523D02*
X235738735Y-311831904D01*
X235738735Y-311831904D02*
X235595878Y-311831904D01*
X235595878Y-311831904D02*
X235405402Y-311879523D01*
X235405402Y-311879523D02*
X235310164Y-311927142D01*
X235310164Y-311927142D02*
X235214926Y-312022380D01*
X235214926Y-312022380D02*
X235167307Y-312165237D01*
X235167307Y-312165237D02*
X235167307Y-312260475D01*
X235167307Y-312260475D02*
X235214926Y-312403332D01*
X235214926Y-312403332D02*
X235262545Y-312450951D01*
X236167307Y-313403332D02*
X236167307Y-312831904D01*
X236167307Y-313117618D02*
X235167307Y-313117618D01*
X235167307Y-313117618D02*
X235310164Y-313022380D01*
X235310164Y-313022380D02*
X235405402Y-312927142D01*
X235405402Y-312927142D02*
X235453021Y-312831904D01*
X235167307Y-314022380D02*
X235167307Y-314117618D01*
X235167307Y-314117618D02*
X235214926Y-314212856D01*
X235214926Y-314212856D02*
X235262545Y-314260475D01*
X235262545Y-314260475D02*
X235357783Y-314308094D01*
X235357783Y-314308094D02*
X235548259Y-314355713D01*
X235548259Y-314355713D02*
X235786354Y-314355713D01*
X235786354Y-314355713D02*
X235976830Y-314308094D01*
X235976830Y-314308094D02*
X236072068Y-314260475D01*
X236072068Y-314260475D02*
X236119688Y-314212856D01*
X236119688Y-314212856D02*
X236167307Y-314117618D01*
X236167307Y-314117618D02*
X236167307Y-314022380D01*
X236167307Y-314022380D02*
X236119688Y-313927142D01*
X236119688Y-313927142D02*
X236072068Y-313879523D01*
X236072068Y-313879523D02*
X235976830Y-313831904D01*
X235976830Y-313831904D02*
X235786354Y-313784285D01*
X235786354Y-313784285D02*
X235548259Y-313784285D01*
X235548259Y-313784285D02*
X235357783Y-313831904D01*
X235357783Y-313831904D02*
X235262545Y-313879523D01*
X235262545Y-313879523D02*
X235214926Y-313927142D01*
X235214926Y-313927142D02*
X235167307Y-314022380D01*
X235500640Y-315212856D02*
X236167307Y-315212856D01*
X235119688Y-314974761D02*
X235833973Y-314736666D01*
X235833973Y-314736666D02*
X235833973Y-315355713D01*
X192447307Y-284593570D02*
X192447307Y-284117380D01*
X192447307Y-284117380D02*
X191447307Y-284117380D01*
X192542545Y-285593570D02*
X192494926Y-285498332D01*
X192494926Y-285498332D02*
X192399688Y-285403094D01*
X192399688Y-285403094D02*
X192256830Y-285260237D01*
X192256830Y-285260237D02*
X192209211Y-285164999D01*
X192209211Y-285164999D02*
X192209211Y-285069761D01*
X192447307Y-285117380D02*
X192399688Y-285022142D01*
X192399688Y-285022142D02*
X192304449Y-284926904D01*
X192304449Y-284926904D02*
X192113973Y-284879285D01*
X192113973Y-284879285D02*
X191780640Y-284879285D01*
X191780640Y-284879285D02*
X191590164Y-284926904D01*
X191590164Y-284926904D02*
X191494926Y-285022142D01*
X191494926Y-285022142D02*
X191447307Y-285117380D01*
X191447307Y-285117380D02*
X191447307Y-285307856D01*
X191447307Y-285307856D02*
X191494926Y-285403094D01*
X191494926Y-285403094D02*
X191590164Y-285498332D01*
X191590164Y-285498332D02*
X191780640Y-285545951D01*
X191780640Y-285545951D02*
X192113973Y-285545951D01*
X192113973Y-285545951D02*
X192304449Y-285498332D01*
X192304449Y-285498332D02*
X192399688Y-285403094D01*
X192399688Y-285403094D02*
X192447307Y-285307856D01*
X192447307Y-285307856D02*
X192447307Y-285117380D01*
X191923497Y-286307856D02*
X191923497Y-285974523D01*
X192447307Y-285974523D02*
X191447307Y-285974523D01*
X191447307Y-285974523D02*
X191447307Y-286450713D01*
X192447307Y-286831666D02*
X191447307Y-286831666D01*
X191447307Y-286831666D02*
X191447307Y-287212618D01*
X191447307Y-287212618D02*
X191494926Y-287307856D01*
X191494926Y-287307856D02*
X191542545Y-287355475D01*
X191542545Y-287355475D02*
X191637783Y-287403094D01*
X191637783Y-287403094D02*
X191780640Y-287403094D01*
X191780640Y-287403094D02*
X191875878Y-287355475D01*
X191875878Y-287355475D02*
X191923497Y-287307856D01*
X191923497Y-287307856D02*
X191971116Y-287212618D01*
X191971116Y-287212618D02*
X191971116Y-286831666D01*
X191447307Y-288260237D02*
X191447307Y-288069761D01*
X191447307Y-288069761D02*
X191494926Y-287974523D01*
X191494926Y-287974523D02*
X191542545Y-287926904D01*
X191542545Y-287926904D02*
X191685402Y-287831666D01*
X191685402Y-287831666D02*
X191875878Y-287784047D01*
X191875878Y-287784047D02*
X192256830Y-287784047D01*
X192256830Y-287784047D02*
X192352068Y-287831666D01*
X192352068Y-287831666D02*
X192399688Y-287879285D01*
X192399688Y-287879285D02*
X192447307Y-287974523D01*
X192447307Y-287974523D02*
X192447307Y-288164999D01*
X192447307Y-288164999D02*
X192399688Y-288260237D01*
X192399688Y-288260237D02*
X192352068Y-288307856D01*
X192352068Y-288307856D02*
X192256830Y-288355475D01*
X192256830Y-288355475D02*
X192018735Y-288355475D01*
X192018735Y-288355475D02*
X191923497Y-288307856D01*
X191923497Y-288307856D02*
X191875878Y-288260237D01*
X191875878Y-288260237D02*
X191828259Y-288164999D01*
X191828259Y-288164999D02*
X191828259Y-287974523D01*
X191828259Y-287974523D02*
X191875878Y-287879285D01*
X191875878Y-287879285D02*
X191923497Y-287831666D01*
X191923497Y-287831666D02*
X192018735Y-287784047D01*
X191780640Y-289212618D02*
X192447307Y-289212618D01*
X191399688Y-288974523D02*
X192113973Y-288736428D01*
X192113973Y-288736428D02*
X192113973Y-289355475D01*
X192542545Y-289498333D02*
X192542545Y-290260237D01*
X192447307Y-290498333D02*
X191447307Y-290498333D01*
X191447307Y-290498333D02*
X191447307Y-290736428D01*
X191447307Y-290736428D02*
X191494926Y-290879285D01*
X191494926Y-290879285D02*
X191590164Y-290974523D01*
X191590164Y-290974523D02*
X191685402Y-291022142D01*
X191685402Y-291022142D02*
X191875878Y-291069761D01*
X191875878Y-291069761D02*
X192018735Y-291069761D01*
X192018735Y-291069761D02*
X192209211Y-291022142D01*
X192209211Y-291022142D02*
X192304449Y-290974523D01*
X192304449Y-290974523D02*
X192399688Y-290879285D01*
X192399688Y-290879285D02*
X192447307Y-290736428D01*
X192447307Y-290736428D02*
X192447307Y-290498333D01*
X192161592Y-291450714D02*
X192161592Y-291926904D01*
X192447307Y-291355476D02*
X191447307Y-291688809D01*
X191447307Y-291688809D02*
X192447307Y-292022142D01*
X191447307Y-292212619D02*
X191447307Y-292784047D01*
X192447307Y-292498333D02*
X191447307Y-292498333D01*
X192161592Y-293069762D02*
X192161592Y-293545952D01*
X192447307Y-292974524D02*
X191447307Y-293307857D01*
X191447307Y-293307857D02*
X192447307Y-293641190D01*
X192542545Y-293736429D02*
X192542545Y-294498333D01*
X192447307Y-295260238D02*
X192447307Y-294688810D01*
X192447307Y-294974524D02*
X191447307Y-294974524D01*
X191447307Y-294974524D02*
X191590164Y-294879286D01*
X191590164Y-294879286D02*
X191685402Y-294784048D01*
X191685402Y-294784048D02*
X191733021Y-294688810D01*
X216472068Y-294360952D02*
X216519688Y-294313333D01*
X216519688Y-294313333D02*
X216567307Y-294170476D01*
X216567307Y-294170476D02*
X216567307Y-294075238D01*
X216567307Y-294075238D02*
X216519688Y-293932381D01*
X216519688Y-293932381D02*
X216424449Y-293837143D01*
X216424449Y-293837143D02*
X216329211Y-293789524D01*
X216329211Y-293789524D02*
X216138735Y-293741905D01*
X216138735Y-293741905D02*
X215995878Y-293741905D01*
X215995878Y-293741905D02*
X215805402Y-293789524D01*
X215805402Y-293789524D02*
X215710164Y-293837143D01*
X215710164Y-293837143D02*
X215614926Y-293932381D01*
X215614926Y-293932381D02*
X215567307Y-294075238D01*
X215567307Y-294075238D02*
X215567307Y-294170476D01*
X215567307Y-294170476D02*
X215614926Y-294313333D01*
X215614926Y-294313333D02*
X215662545Y-294360952D01*
X216567307Y-295313333D02*
X216567307Y-294741905D01*
X216567307Y-295027619D02*
X215567307Y-295027619D01*
X215567307Y-295027619D02*
X215710164Y-294932381D01*
X215710164Y-294932381D02*
X215805402Y-294837143D01*
X215805402Y-294837143D02*
X215853021Y-294741905D01*
X215567307Y-295932381D02*
X215567307Y-296027619D01*
X215567307Y-296027619D02*
X215614926Y-296122857D01*
X215614926Y-296122857D02*
X215662545Y-296170476D01*
X215662545Y-296170476D02*
X215757783Y-296218095D01*
X215757783Y-296218095D02*
X215948259Y-296265714D01*
X215948259Y-296265714D02*
X216186354Y-296265714D01*
X216186354Y-296265714D02*
X216376830Y-296218095D01*
X216376830Y-296218095D02*
X216472068Y-296170476D01*
X216472068Y-296170476D02*
X216519688Y-296122857D01*
X216519688Y-296122857D02*
X216567307Y-296027619D01*
X216567307Y-296027619D02*
X216567307Y-295932381D01*
X216567307Y-295932381D02*
X216519688Y-295837143D01*
X216519688Y-295837143D02*
X216472068Y-295789524D01*
X216472068Y-295789524D02*
X216376830Y-295741905D01*
X216376830Y-295741905D02*
X216186354Y-295694286D01*
X216186354Y-295694286D02*
X215948259Y-295694286D01*
X215948259Y-295694286D02*
X215757783Y-295741905D01*
X215757783Y-295741905D02*
X215662545Y-295789524D01*
X215662545Y-295789524D02*
X215614926Y-295837143D01*
X215614926Y-295837143D02*
X215567307Y-295932381D01*
X216567307Y-297218095D02*
X216567307Y-296646667D01*
X216567307Y-296932381D02*
X215567307Y-296932381D01*
X215567307Y-296932381D02*
X215710164Y-296837143D01*
X215710164Y-296837143D02*
X215805402Y-296741905D01*
X215805402Y-296741905D02*
X215853021Y-296646667D01*
X229081535Y-285739580D02*
X229129154Y-285787200D01*
X229129154Y-285787200D02*
X229272011Y-285834819D01*
X229272011Y-285834819D02*
X229367249Y-285834819D01*
X229367249Y-285834819D02*
X229510106Y-285787200D01*
X229510106Y-285787200D02*
X229605344Y-285691961D01*
X229605344Y-285691961D02*
X229652963Y-285596723D01*
X229652963Y-285596723D02*
X229700582Y-285406247D01*
X229700582Y-285406247D02*
X229700582Y-285263390D01*
X229700582Y-285263390D02*
X229652963Y-285072914D01*
X229652963Y-285072914D02*
X229605344Y-284977676D01*
X229605344Y-284977676D02*
X229510106Y-284882438D01*
X229510106Y-284882438D02*
X229367249Y-284834819D01*
X229367249Y-284834819D02*
X229272011Y-284834819D01*
X229272011Y-284834819D02*
X229129154Y-284882438D01*
X229129154Y-284882438D02*
X229081535Y-284930057D01*
X228129154Y-285834819D02*
X228700582Y-285834819D01*
X228414868Y-285834819D02*
X228414868Y-284834819D01*
X228414868Y-284834819D02*
X228510106Y-284977676D01*
X228510106Y-284977676D02*
X228605344Y-285072914D01*
X228605344Y-285072914D02*
X228700582Y-285120533D01*
X227510106Y-284834819D02*
X227414868Y-284834819D01*
X227414868Y-284834819D02*
X227319630Y-284882438D01*
X227319630Y-284882438D02*
X227272011Y-284930057D01*
X227272011Y-284930057D02*
X227224392Y-285025295D01*
X227224392Y-285025295D02*
X227176773Y-285215771D01*
X227176773Y-285215771D02*
X227176773Y-285453866D01*
X227176773Y-285453866D02*
X227224392Y-285644342D01*
X227224392Y-285644342D02*
X227272011Y-285739580D01*
X227272011Y-285739580D02*
X227319630Y-285787200D01*
X227319630Y-285787200D02*
X227414868Y-285834819D01*
X227414868Y-285834819D02*
X227510106Y-285834819D01*
X227510106Y-285834819D02*
X227605344Y-285787200D01*
X227605344Y-285787200D02*
X227652963Y-285739580D01*
X227652963Y-285739580D02*
X227700582Y-285644342D01*
X227700582Y-285644342D02*
X227748201Y-285453866D01*
X227748201Y-285453866D02*
X227748201Y-285215771D01*
X227748201Y-285215771D02*
X227700582Y-285025295D01*
X227700582Y-285025295D02*
X227652963Y-284930057D01*
X227652963Y-284930057D02*
X227605344Y-284882438D01*
X227605344Y-284882438D02*
X227510106Y-284834819D01*
X226557725Y-284834819D02*
X226462487Y-284834819D01*
X226462487Y-284834819D02*
X226367249Y-284882438D01*
X226367249Y-284882438D02*
X226319630Y-284930057D01*
X226319630Y-284930057D02*
X226272011Y-285025295D01*
X226272011Y-285025295D02*
X226224392Y-285215771D01*
X226224392Y-285215771D02*
X226224392Y-285453866D01*
X226224392Y-285453866D02*
X226272011Y-285644342D01*
X226272011Y-285644342D02*
X226319630Y-285739580D01*
X226319630Y-285739580D02*
X226367249Y-285787200D01*
X226367249Y-285787200D02*
X226462487Y-285834819D01*
X226462487Y-285834819D02*
X226557725Y-285834819D01*
X226557725Y-285834819D02*
X226652963Y-285787200D01*
X226652963Y-285787200D02*
X226700582Y-285739580D01*
X226700582Y-285739580D02*
X226748201Y-285644342D01*
X226748201Y-285644342D02*
X226795820Y-285453866D01*
X226795820Y-285453866D02*
X226795820Y-285215771D01*
X226795820Y-285215771D02*
X226748201Y-285025295D01*
X226748201Y-285025295D02*
X226700582Y-284930057D01*
X226700582Y-284930057D02*
X226652963Y-284882438D01*
X226652963Y-284882438D02*
X226557725Y-284834819D01*
X216712068Y-303797143D02*
X216759688Y-303749524D01*
X216759688Y-303749524D02*
X216807307Y-303606667D01*
X216807307Y-303606667D02*
X216807307Y-303511429D01*
X216807307Y-303511429D02*
X216759688Y-303368572D01*
X216759688Y-303368572D02*
X216664449Y-303273334D01*
X216664449Y-303273334D02*
X216569211Y-303225715D01*
X216569211Y-303225715D02*
X216378735Y-303178096D01*
X216378735Y-303178096D02*
X216235878Y-303178096D01*
X216235878Y-303178096D02*
X216045402Y-303225715D01*
X216045402Y-303225715D02*
X215950164Y-303273334D01*
X215950164Y-303273334D02*
X215854926Y-303368572D01*
X215854926Y-303368572D02*
X215807307Y-303511429D01*
X215807307Y-303511429D02*
X215807307Y-303606667D01*
X215807307Y-303606667D02*
X215854926Y-303749524D01*
X215854926Y-303749524D02*
X215902545Y-303797143D01*
X216807307Y-304273334D02*
X216807307Y-304463810D01*
X216807307Y-304463810D02*
X216759688Y-304559048D01*
X216759688Y-304559048D02*
X216712068Y-304606667D01*
X216712068Y-304606667D02*
X216569211Y-304701905D01*
X216569211Y-304701905D02*
X216378735Y-304749524D01*
X216378735Y-304749524D02*
X215997783Y-304749524D01*
X215997783Y-304749524D02*
X215902545Y-304701905D01*
X215902545Y-304701905D02*
X215854926Y-304654286D01*
X215854926Y-304654286D02*
X215807307Y-304559048D01*
X215807307Y-304559048D02*
X215807307Y-304368572D01*
X215807307Y-304368572D02*
X215854926Y-304273334D01*
X215854926Y-304273334D02*
X215902545Y-304225715D01*
X215902545Y-304225715D02*
X215997783Y-304178096D01*
X215997783Y-304178096D02*
X216235878Y-304178096D01*
X216235878Y-304178096D02*
X216331116Y-304225715D01*
X216331116Y-304225715D02*
X216378735Y-304273334D01*
X216378735Y-304273334D02*
X216426354Y-304368572D01*
X216426354Y-304368572D02*
X216426354Y-304559048D01*
X216426354Y-304559048D02*
X216378735Y-304654286D01*
X216378735Y-304654286D02*
X216331116Y-304701905D01*
X216331116Y-304701905D02*
X216235878Y-304749524D01*
X215807307Y-305606667D02*
X215807307Y-305416191D01*
X215807307Y-305416191D02*
X215854926Y-305320953D01*
X215854926Y-305320953D02*
X215902545Y-305273334D01*
X215902545Y-305273334D02*
X216045402Y-305178096D01*
X216045402Y-305178096D02*
X216235878Y-305130477D01*
X216235878Y-305130477D02*
X216616830Y-305130477D01*
X216616830Y-305130477D02*
X216712068Y-305178096D01*
X216712068Y-305178096D02*
X216759688Y-305225715D01*
X216759688Y-305225715D02*
X216807307Y-305320953D01*
X216807307Y-305320953D02*
X216807307Y-305511429D01*
X216807307Y-305511429D02*
X216759688Y-305606667D01*
X216759688Y-305606667D02*
X216712068Y-305654286D01*
X216712068Y-305654286D02*
X216616830Y-305701905D01*
X216616830Y-305701905D02*
X216378735Y-305701905D01*
X216378735Y-305701905D02*
X216283497Y-305654286D01*
X216283497Y-305654286D02*
X216235878Y-305606667D01*
X216235878Y-305606667D02*
X216188259Y-305511429D01*
X216188259Y-305511429D02*
X216188259Y-305320953D01*
X216188259Y-305320953D02*
X216235878Y-305225715D01*
X216235878Y-305225715D02*
X216283497Y-305178096D01*
X216283497Y-305178096D02*
X216378735Y-305130477D01*
X220312068Y-304550952D02*
X220359688Y-304503333D01*
X220359688Y-304503333D02*
X220407307Y-304360476D01*
X220407307Y-304360476D02*
X220407307Y-304265238D01*
X220407307Y-304265238D02*
X220359688Y-304122381D01*
X220359688Y-304122381D02*
X220264449Y-304027143D01*
X220264449Y-304027143D02*
X220169211Y-303979524D01*
X220169211Y-303979524D02*
X219978735Y-303931905D01*
X219978735Y-303931905D02*
X219835878Y-303931905D01*
X219835878Y-303931905D02*
X219645402Y-303979524D01*
X219645402Y-303979524D02*
X219550164Y-304027143D01*
X219550164Y-304027143D02*
X219454926Y-304122381D01*
X219454926Y-304122381D02*
X219407307Y-304265238D01*
X219407307Y-304265238D02*
X219407307Y-304360476D01*
X219407307Y-304360476D02*
X219454926Y-304503333D01*
X219454926Y-304503333D02*
X219502545Y-304550952D01*
X220407307Y-305503333D02*
X220407307Y-304931905D01*
X220407307Y-305217619D02*
X219407307Y-305217619D01*
X219407307Y-305217619D02*
X219550164Y-305122381D01*
X219550164Y-305122381D02*
X219645402Y-305027143D01*
X219645402Y-305027143D02*
X219693021Y-304931905D01*
X219407307Y-306122381D02*
X219407307Y-306217619D01*
X219407307Y-306217619D02*
X219454926Y-306312857D01*
X219454926Y-306312857D02*
X219502545Y-306360476D01*
X219502545Y-306360476D02*
X219597783Y-306408095D01*
X219597783Y-306408095D02*
X219788259Y-306455714D01*
X219788259Y-306455714D02*
X220026354Y-306455714D01*
X220026354Y-306455714D02*
X220216830Y-306408095D01*
X220216830Y-306408095D02*
X220312068Y-306360476D01*
X220312068Y-306360476D02*
X220359688Y-306312857D01*
X220359688Y-306312857D02*
X220407307Y-306217619D01*
X220407307Y-306217619D02*
X220407307Y-306122381D01*
X220407307Y-306122381D02*
X220359688Y-306027143D01*
X220359688Y-306027143D02*
X220312068Y-305979524D01*
X220312068Y-305979524D02*
X220216830Y-305931905D01*
X220216830Y-305931905D02*
X220026354Y-305884286D01*
X220026354Y-305884286D02*
X219788259Y-305884286D01*
X219788259Y-305884286D02*
X219597783Y-305931905D01*
X219597783Y-305931905D02*
X219502545Y-305979524D01*
X219502545Y-305979524D02*
X219454926Y-306027143D01*
X219454926Y-306027143D02*
X219407307Y-306122381D01*
X219502545Y-306836667D02*
X219454926Y-306884286D01*
X219454926Y-306884286D02*
X219407307Y-306979524D01*
X219407307Y-306979524D02*
X219407307Y-307217619D01*
X219407307Y-307217619D02*
X219454926Y-307312857D01*
X219454926Y-307312857D02*
X219502545Y-307360476D01*
X219502545Y-307360476D02*
X219597783Y-307408095D01*
X219597783Y-307408095D02*
X219693021Y-307408095D01*
X219693021Y-307408095D02*
X219835878Y-307360476D01*
X219835878Y-307360476D02*
X220407307Y-306789048D01*
X220407307Y-306789048D02*
X220407307Y-307408095D01*
X242281535Y-294539580D02*
X242329154Y-294587200D01*
X242329154Y-294587200D02*
X242472011Y-294634819D01*
X242472011Y-294634819D02*
X242567249Y-294634819D01*
X242567249Y-294634819D02*
X242710106Y-294587200D01*
X242710106Y-294587200D02*
X242805344Y-294491961D01*
X242805344Y-294491961D02*
X242852963Y-294396723D01*
X242852963Y-294396723D02*
X242900582Y-294206247D01*
X242900582Y-294206247D02*
X242900582Y-294063390D01*
X242900582Y-294063390D02*
X242852963Y-293872914D01*
X242852963Y-293872914D02*
X242805344Y-293777676D01*
X242805344Y-293777676D02*
X242710106Y-293682438D01*
X242710106Y-293682438D02*
X242567249Y-293634819D01*
X242567249Y-293634819D02*
X242472011Y-293634819D01*
X242472011Y-293634819D02*
X242329154Y-293682438D01*
X242329154Y-293682438D02*
X242281535Y-293730057D01*
X241329154Y-294634819D02*
X241900582Y-294634819D01*
X241614868Y-294634819D02*
X241614868Y-293634819D01*
X241614868Y-293634819D02*
X241710106Y-293777676D01*
X241710106Y-293777676D02*
X241805344Y-293872914D01*
X241805344Y-293872914D02*
X241900582Y-293920533D01*
X240710106Y-293634819D02*
X240614868Y-293634819D01*
X240614868Y-293634819D02*
X240519630Y-293682438D01*
X240519630Y-293682438D02*
X240472011Y-293730057D01*
X240472011Y-293730057D02*
X240424392Y-293825295D01*
X240424392Y-293825295D02*
X240376773Y-294015771D01*
X240376773Y-294015771D02*
X240376773Y-294253866D01*
X240376773Y-294253866D02*
X240424392Y-294444342D01*
X240424392Y-294444342D02*
X240472011Y-294539580D01*
X240472011Y-294539580D02*
X240519630Y-294587200D01*
X240519630Y-294587200D02*
X240614868Y-294634819D01*
X240614868Y-294634819D02*
X240710106Y-294634819D01*
X240710106Y-294634819D02*
X240805344Y-294587200D01*
X240805344Y-294587200D02*
X240852963Y-294539580D01*
X240852963Y-294539580D02*
X240900582Y-294444342D01*
X240900582Y-294444342D02*
X240948201Y-294253866D01*
X240948201Y-294253866D02*
X240948201Y-294015771D01*
X240948201Y-294015771D02*
X240900582Y-293825295D01*
X240900582Y-293825295D02*
X240852963Y-293730057D01*
X240852963Y-293730057D02*
X240805344Y-293682438D01*
X240805344Y-293682438D02*
X240710106Y-293634819D01*
X239472011Y-293634819D02*
X239948201Y-293634819D01*
X239948201Y-293634819D02*
X239995820Y-294111009D01*
X239995820Y-294111009D02*
X239948201Y-294063390D01*
X239948201Y-294063390D02*
X239852963Y-294015771D01*
X239852963Y-294015771D02*
X239614868Y-294015771D01*
X239614868Y-294015771D02*
X239519630Y-294063390D01*
X239519630Y-294063390D02*
X239472011Y-294111009D01*
X239472011Y-294111009D02*
X239424392Y-294206247D01*
X239424392Y-294206247D02*
X239424392Y-294444342D01*
X239424392Y-294444342D02*
X239472011Y-294539580D01*
X239472011Y-294539580D02*
X239519630Y-294587200D01*
X239519630Y-294587200D02*
X239614868Y-294634819D01*
X239614868Y-294634819D02*
X239852963Y-294634819D01*
X239852963Y-294634819D02*
X239948201Y-294587200D01*
X239948201Y-294587200D02*
X239995820Y-294539580D01*
X227465346Y-295769580D02*
X227512965Y-295817200D01*
X227512965Y-295817200D02*
X227655822Y-295864819D01*
X227655822Y-295864819D02*
X227751060Y-295864819D01*
X227751060Y-295864819D02*
X227893917Y-295817200D01*
X227893917Y-295817200D02*
X227989155Y-295721961D01*
X227989155Y-295721961D02*
X228036774Y-295626723D01*
X228036774Y-295626723D02*
X228084393Y-295436247D01*
X228084393Y-295436247D02*
X228084393Y-295293390D01*
X228084393Y-295293390D02*
X228036774Y-295102914D01*
X228036774Y-295102914D02*
X227989155Y-295007676D01*
X227989155Y-295007676D02*
X227893917Y-294912438D01*
X227893917Y-294912438D02*
X227751060Y-294864819D01*
X227751060Y-294864819D02*
X227655822Y-294864819D01*
X227655822Y-294864819D02*
X227512965Y-294912438D01*
X227512965Y-294912438D02*
X227465346Y-294960057D01*
X226989155Y-295864819D02*
X226798679Y-295864819D01*
X226798679Y-295864819D02*
X226703441Y-295817200D01*
X226703441Y-295817200D02*
X226655822Y-295769580D01*
X226655822Y-295769580D02*
X226560584Y-295626723D01*
X226560584Y-295626723D02*
X226512965Y-295436247D01*
X226512965Y-295436247D02*
X226512965Y-295055295D01*
X226512965Y-295055295D02*
X226560584Y-294960057D01*
X226560584Y-294960057D02*
X226608203Y-294912438D01*
X226608203Y-294912438D02*
X226703441Y-294864819D01*
X226703441Y-294864819D02*
X226893917Y-294864819D01*
X226893917Y-294864819D02*
X226989155Y-294912438D01*
X226989155Y-294912438D02*
X227036774Y-294960057D01*
X227036774Y-294960057D02*
X227084393Y-295055295D01*
X227084393Y-295055295D02*
X227084393Y-295293390D01*
X227084393Y-295293390D02*
X227036774Y-295388628D01*
X227036774Y-295388628D02*
X226989155Y-295436247D01*
X226989155Y-295436247D02*
X226893917Y-295483866D01*
X226893917Y-295483866D02*
X226703441Y-295483866D01*
X226703441Y-295483866D02*
X226608203Y-295436247D01*
X226608203Y-295436247D02*
X226560584Y-295388628D01*
X226560584Y-295388628D02*
X226512965Y-295293390D01*
X225941536Y-295293390D02*
X226036774Y-295245771D01*
X226036774Y-295245771D02*
X226084393Y-295198152D01*
X226084393Y-295198152D02*
X226132012Y-295102914D01*
X226132012Y-295102914D02*
X226132012Y-295055295D01*
X226132012Y-295055295D02*
X226084393Y-294960057D01*
X226084393Y-294960057D02*
X226036774Y-294912438D01*
X226036774Y-294912438D02*
X225941536Y-294864819D01*
X225941536Y-294864819D02*
X225751060Y-294864819D01*
X225751060Y-294864819D02*
X225655822Y-294912438D01*
X225655822Y-294912438D02*
X225608203Y-294960057D01*
X225608203Y-294960057D02*
X225560584Y-295055295D01*
X225560584Y-295055295D02*
X225560584Y-295102914D01*
X225560584Y-295102914D02*
X225608203Y-295198152D01*
X225608203Y-295198152D02*
X225655822Y-295245771D01*
X225655822Y-295245771D02*
X225751060Y-295293390D01*
X225751060Y-295293390D02*
X225941536Y-295293390D01*
X225941536Y-295293390D02*
X226036774Y-295341009D01*
X226036774Y-295341009D02*
X226084393Y-295388628D01*
X226084393Y-295388628D02*
X226132012Y-295483866D01*
X226132012Y-295483866D02*
X226132012Y-295674342D01*
X226132012Y-295674342D02*
X226084393Y-295769580D01*
X226084393Y-295769580D02*
X226036774Y-295817200D01*
X226036774Y-295817200D02*
X225941536Y-295864819D01*
X225941536Y-295864819D02*
X225751060Y-295864819D01*
X225751060Y-295864819D02*
X225655822Y-295817200D01*
X225655822Y-295817200D02*
X225608203Y-295769580D01*
X225608203Y-295769580D02*
X225560584Y-295674342D01*
X225560584Y-295674342D02*
X225560584Y-295483866D01*
X225560584Y-295483866D02*
X225608203Y-295388628D01*
X225608203Y-295388628D02*
X225655822Y-295341009D01*
X225655822Y-295341009D02*
X225751060Y-295293390D01*
X235295345Y-285729579D02*
X235342964Y-285777199D01*
X235342964Y-285777199D02*
X235485821Y-285824818D01*
X235485821Y-285824818D02*
X235581059Y-285824818D01*
X235581059Y-285824818D02*
X235723916Y-285777199D01*
X235723916Y-285777199D02*
X235819154Y-285681960D01*
X235819154Y-285681960D02*
X235866773Y-285586722D01*
X235866773Y-285586722D02*
X235914392Y-285396246D01*
X235914392Y-285396246D02*
X235914392Y-285253389D01*
X235914392Y-285253389D02*
X235866773Y-285062913D01*
X235866773Y-285062913D02*
X235819154Y-284967675D01*
X235819154Y-284967675D02*
X235723916Y-284872437D01*
X235723916Y-284872437D02*
X235581059Y-284824818D01*
X235581059Y-284824818D02*
X235485821Y-284824818D01*
X235485821Y-284824818D02*
X235342964Y-284872437D01*
X235342964Y-284872437D02*
X235295345Y-284920056D01*
X234819154Y-285824818D02*
X234628678Y-285824818D01*
X234628678Y-285824818D02*
X234533440Y-285777199D01*
X234533440Y-285777199D02*
X234485821Y-285729579D01*
X234485821Y-285729579D02*
X234390583Y-285586722D01*
X234390583Y-285586722D02*
X234342964Y-285396246D01*
X234342964Y-285396246D02*
X234342964Y-285015294D01*
X234342964Y-285015294D02*
X234390583Y-284920056D01*
X234390583Y-284920056D02*
X234438202Y-284872437D01*
X234438202Y-284872437D02*
X234533440Y-284824818D01*
X234533440Y-284824818D02*
X234723916Y-284824818D01*
X234723916Y-284824818D02*
X234819154Y-284872437D01*
X234819154Y-284872437D02*
X234866773Y-284920056D01*
X234866773Y-284920056D02*
X234914392Y-285015294D01*
X234914392Y-285015294D02*
X234914392Y-285253389D01*
X234914392Y-285253389D02*
X234866773Y-285348627D01*
X234866773Y-285348627D02*
X234819154Y-285396246D01*
X234819154Y-285396246D02*
X234723916Y-285443865D01*
X234723916Y-285443865D02*
X234533440Y-285443865D01*
X234533440Y-285443865D02*
X234438202Y-285396246D01*
X234438202Y-285396246D02*
X234390583Y-285348627D01*
X234390583Y-285348627D02*
X234342964Y-285253389D01*
X233866773Y-285824818D02*
X233676297Y-285824818D01*
X233676297Y-285824818D02*
X233581059Y-285777199D01*
X233581059Y-285777199D02*
X233533440Y-285729579D01*
X233533440Y-285729579D02*
X233438202Y-285586722D01*
X233438202Y-285586722D02*
X233390583Y-285396246D01*
X233390583Y-285396246D02*
X233390583Y-285015294D01*
X233390583Y-285015294D02*
X233438202Y-284920056D01*
X233438202Y-284920056D02*
X233485821Y-284872437D01*
X233485821Y-284872437D02*
X233581059Y-284824818D01*
X233581059Y-284824818D02*
X233771535Y-284824818D01*
X233771535Y-284824818D02*
X233866773Y-284872437D01*
X233866773Y-284872437D02*
X233914392Y-284920056D01*
X233914392Y-284920056D02*
X233962011Y-285015294D01*
X233962011Y-285015294D02*
X233962011Y-285253389D01*
X233962011Y-285253389D02*
X233914392Y-285348627D01*
X233914392Y-285348627D02*
X233866773Y-285396246D01*
X233866773Y-285396246D02*
X233771535Y-285443865D01*
X233771535Y-285443865D02*
X233581059Y-285443865D01*
X233581059Y-285443865D02*
X233485821Y-285396246D01*
X233485821Y-285396246D02*
X233438202Y-285348627D01*
X233438202Y-285348627D02*
X233390583Y-285253389D01*
X225345345Y-306159579D02*
X225392964Y-306207199D01*
X225392964Y-306207199D02*
X225535821Y-306254818D01*
X225535821Y-306254818D02*
X225631059Y-306254818D01*
X225631059Y-306254818D02*
X225773916Y-306207199D01*
X225773916Y-306207199D02*
X225869154Y-306111960D01*
X225869154Y-306111960D02*
X225916773Y-306016722D01*
X225916773Y-306016722D02*
X225964392Y-305826246D01*
X225964392Y-305826246D02*
X225964392Y-305683389D01*
X225964392Y-305683389D02*
X225916773Y-305492913D01*
X225916773Y-305492913D02*
X225869154Y-305397675D01*
X225869154Y-305397675D02*
X225773916Y-305302437D01*
X225773916Y-305302437D02*
X225631059Y-305254818D01*
X225631059Y-305254818D02*
X225535821Y-305254818D01*
X225535821Y-305254818D02*
X225392964Y-305302437D01*
X225392964Y-305302437D02*
X225345345Y-305350056D01*
X224869154Y-306254818D02*
X224678678Y-306254818D01*
X224678678Y-306254818D02*
X224583440Y-306207199D01*
X224583440Y-306207199D02*
X224535821Y-306159579D01*
X224535821Y-306159579D02*
X224440583Y-306016722D01*
X224440583Y-306016722D02*
X224392964Y-305826246D01*
X224392964Y-305826246D02*
X224392964Y-305445294D01*
X224392964Y-305445294D02*
X224440583Y-305350056D01*
X224440583Y-305350056D02*
X224488202Y-305302437D01*
X224488202Y-305302437D02*
X224583440Y-305254818D01*
X224583440Y-305254818D02*
X224773916Y-305254818D01*
X224773916Y-305254818D02*
X224869154Y-305302437D01*
X224869154Y-305302437D02*
X224916773Y-305350056D01*
X224916773Y-305350056D02*
X224964392Y-305445294D01*
X224964392Y-305445294D02*
X224964392Y-305683389D01*
X224964392Y-305683389D02*
X224916773Y-305778627D01*
X224916773Y-305778627D02*
X224869154Y-305826246D01*
X224869154Y-305826246D02*
X224773916Y-305873865D01*
X224773916Y-305873865D02*
X224583440Y-305873865D01*
X224583440Y-305873865D02*
X224488202Y-305826246D01*
X224488202Y-305826246D02*
X224440583Y-305778627D01*
X224440583Y-305778627D02*
X224392964Y-305683389D01*
X224059630Y-305254818D02*
X223392964Y-305254818D01*
X223392964Y-305254818D02*
X223821535Y-306254818D01*
%TO.C,C103*%
D11*
X226290324Y-312067500D02*
X226074652Y-312067500D01*
X226290324Y-312787500D02*
X226074652Y-312787500D01*
%TO.C,C104*%
X235302488Y-310442163D02*
X235302488Y-310657835D01*
X236022488Y-310442163D02*
X236022488Y-310657835D01*
%TO.C,LQFP64_DATA_1*%
D12*
X184137488Y-281102500D02*
X184137488Y-283307500D01*
X184137488Y-299107500D02*
X184137488Y-303107500D01*
X184137488Y-321112500D02*
X184137488Y-318907500D01*
X186422488Y-281102500D02*
X184137488Y-281102500D01*
X186422488Y-321112500D02*
X184137488Y-321112500D01*
X188583488Y-281102500D02*
X187822488Y-281102500D01*
X188583488Y-321112500D02*
X187822488Y-321112500D01*
X188583488Y-321112500D02*
X190107488Y-319583500D01*
X190107488Y-282631500D02*
X188583488Y-281102500D01*
X190107488Y-282631500D02*
X190107488Y-283307500D01*
X190107488Y-299107500D02*
X190107488Y-303107500D01*
X190107488Y-319583500D02*
X190107488Y-318907500D01*
X183722488Y-283107500D02*
G75*
G02*
X183522488Y-283107500I-100000J0D01*
G01*
X183522488Y-283107500D02*
G75*
G02*
X183722488Y-283107500I100000J0D01*
G01*
%TO.C,C101*%
D11*
X217072488Y-295417836D02*
X217072488Y-295202164D01*
X217792488Y-295417836D02*
X217792488Y-295202164D01*
%TO.C,C100*%
X228070324Y-286180000D02*
X227854652Y-286180000D01*
X228070324Y-286900000D02*
X227854652Y-286900000D01*
%TO.C,C96*%
X217102488Y-303057836D02*
X217102488Y-302842164D01*
X217822488Y-303057836D02*
X217822488Y-302842164D01*
%TO.C,C102*%
X220872488Y-304449419D02*
X220872488Y-304730581D01*
X221892488Y-304449419D02*
X221892488Y-304730581D01*
%TO.C,C105*%
X243042488Y-295427836D02*
X243042488Y-295212164D01*
X243762488Y-295427836D02*
X243762488Y-295212164D01*
%TO.C,C98*%
X224264652Y-294890000D02*
X224480324Y-294890000D01*
X224264652Y-295610000D02*
X224480324Y-295610000D01*
%TO.C,C99*%
X234544652Y-286247500D02*
X234760324Y-286247500D01*
X234544652Y-286967500D02*
X234760324Y-286967500D01*
%TO.C,C97*%
X224551907Y-303939999D02*
X224833069Y-303939999D01*
X224551907Y-304959999D02*
X224833069Y-304959999D01*
%TO.C,TRGT_PWR_EN*%
D13*
X220401000Y-168516000D02*
G75*
G02*
X220147000Y-168516000I-127000J0D01*
G01*
X220147000Y-168516000D02*
G75*
G02*
X220401000Y-168516000I127000J0D01*
G01*
%TO.C,RESET*%
X218231000Y-205478500D02*
G75*
G02*
X217977000Y-205478500I-127000J0D01*
G01*
X217977000Y-205478500D02*
G75*
G02*
X218231000Y-205478500I127000J0D01*
G01*
%TD*%
M02*
