M48
; DRILL file KiCad 10.0.3 date 2026-07-15T11:49:02
; FORMAT={-:-/ absolute / metric / decimal}
; #@! TF.CreationDate,2026-07-15T11:49:02-04:00
; #@! TF.GenerationSoftware,Kicad,Pcbnew,10.0.3
; #@! TF.FileFunction,MixedPlating,1,4
FMAT,2
METRIC
; #@! TA.AperFunction,Plated,PTH,ViaDrill
T1C0.300
; #@! TA.AperFunction,Plated,PTH,ViaDrill
T2C0.400
; #@! TA.AperFunction,Plated,PTH,ComponentDrill
T3C0.600
; #@! TA.AperFunction,Plated,PTH,ComponentDrill
T4C0.800
; #@! TA.AperFunction,Plated,PTH,ComponentDrill
T5C1.000
; #@! TA.AperFunction,Plated,PTH,ComponentDrill
T6C1.320
; #@! TA.AperFunction,NonPlated,NPTH,ComponentDrill
T7C0.650
; #@! TA.AperFunction,NonPlated,NPTH,ComponentDrill
T8C0.900
; #@! TA.AperFunction,NonPlated,NPTH,ComponentDrill
T9C1.020
; #@! TA.AperFunction,NonPlated,NPTH,ComponentDrill
T10C2.390
; #@! TA.AperFunction,NonPlated,NPTH,ComponentDrill
T11C3.200
; #@! TA.AperFunction,NonPlated,NPTH,ComponentDrill
T12C3.550
%
G90
G05
T1
X181.58Y-300.103
X182.64Y-308.343
X182.7Y-317.808
X182.71Y-310.343
X182.72Y-316.873
X182.74Y-315.843
X183.11Y-321.013
X183.63Y-319.333
X185.29Y-152.015
X185.376Y-288.385
X185.565Y-291.293
X185.565Y-301.453
X185.804Y-318.994
X187.1Y-146.61
X187.24Y-139.51
X187.24Y-151.055
X187.47Y-310.978
X188.25Y-144.55
X188.99Y-310.863
X189.11Y-141.85
X191.693Y-304.532
X191.72Y-303.783
X191.832Y-319.22
X191.96Y-310.343
X192.01Y-318.363
X192.06Y-326.763
X193.16Y-329.159
X194.0Y-295.583
X194.0Y-299.643
X195.79Y-137.9
X198.15Y-132.3
X200.21Y-138.13
X200.77Y-239.86
X202.58Y-141.52
X202.7Y-129.37
X203.06Y-161.49
X203.71Y-129.37
X203.86Y-155.43
X204.14Y-138.19
X204.4Y-144.16
X204.415Y-139.175
X205.13Y-136.1
X206.25Y-146.12
X206.82Y-128.92
X207.23Y-162.08
X207.282Y-323.46
X207.652Y-326.08
X208.75Y-132.06
X208.98Y-140.58
X209.0Y-142.39
X209.13Y-152.75
X209.48Y-137.86
X209.49Y-162.06
X209.93Y-173.75
X210.61Y-148.43
X210.88Y-149.41
X211.33Y-128.85
X211.78Y-162.02
X211.96Y-164.63
X212.07Y-174.66
X212.99Y-147.91
X213.11Y-194.28
X213.14Y-140.73
X213.15Y-191.74
X213.57Y-131.58
X213.69Y-139.75
X213.77Y-137.97
X213.81Y-156.83
X214.01Y-217.13
X214.56Y-215.64
X215.09Y-163.52
X215.26Y-164.58
X215.43Y-133.28
X215.56Y-324.893
X215.85Y-159.53
X215.89Y-161.06
X216.06Y-158.18
X216.062Y-302.35
X216.26Y-165.53
X216.3Y-146.94
X216.31Y-156.68
X216.42Y-127.56
X216.63Y-145.31
X216.912Y-311.61
X217.292Y-329.91
X217.41Y-151.24
X217.8Y-133.24
X217.8Y-139.73
X217.98Y-143.63
X218.99Y-127.6
X219.65Y-150.66
X219.682Y-326.51
X219.77Y-162.29
X220.222Y-274.123
X220.61Y-163.57
X220.69Y-164.74
X220.82Y-139.07
X220.85Y-154.21
X221.15Y-241.7
X221.17Y-229.44
X221.26Y-187.12
X221.27Y-233.45
X221.33Y-221.19
X221.81Y-216.98
X222.722Y-305.55
X222.76Y-185.11
X222.81Y-159.43
X223.38Y-137.77
X224.22Y-146.28
X224.39Y-161.27
X224.72Y-312.353
X224.9Y-139.16
X225.27Y-185.22
X226.09Y-189.15
X226.126Y-179.824
X226.26Y-177.31
X226.33Y-237.14
X226.87Y-178.08
X227.012Y-279.74
X227.152Y-281.82
X227.46Y-180.206
X227.75Y-193.8
X227.87Y-182.23
X227.91Y-190.48
X228.02Y-186.77
X228.14Y-134.53
X228.52Y-180.58
X228.62Y-145.96
X228.74Y-185.37
X228.968Y-179.92
X229.1Y-166.53
X229.62Y-128.89
X229.73Y-168.61
X229.83Y-174.18
X229.9Y-175.45
X230.912Y-300.3
X231.42Y-159.6
X231.54Y-165.04
X231.81Y-191.43
X231.98Y-183.99
X232.15Y-197.42
X232.55Y-172.12
X232.75Y-194.48
X232.91Y-178.8
X233.07Y-199.22
X233.08Y-128.84
X233.16Y-266.333
X234.67Y-166.85
X235.11Y-178.78
X235.12Y-284.213
X235.13Y-134.31
X235.16Y-172.58
X235.81Y-163.57
X235.81Y-164.54
X236.26Y-172.53
X236.8Y-181.72
X237.01Y-132.85
X237.11Y-156.18
X237.71Y-137.41
X238.375Y-193.665
X238.4Y-140.87
X238.41Y-137.82
X238.8Y-198.48
X239.12Y-172.02
X239.19Y-166.26
X239.19Y-176.12
X239.26Y-194.49
X239.78Y-199.72
X240.3Y-148.33
X240.94Y-173.08
X240.985Y-178.81
X240.985Y-181.72
X241.39Y-128.9
X241.66Y-172.58
X241.92Y-167.79
X241.97Y-144.12
X242.73Y-172.0
X243.13Y-164.67
X243.44Y-160.79
X243.65Y-172.0
X243.73Y-167.79
X243.74Y-198.53
X244.25Y-175.81
X244.25Y-194.56
X244.36Y-159.28
X244.542Y-294.89
X244.88Y-178.82
X244.88Y-181.73
X244.9Y-198.48
X244.99Y-146.22
X245.77Y-151.84
X246.73Y-154.45
X246.86Y-159.38
X246.86Y-169.28
X246.96Y-157.06
X247.345Y-140.865
X247.48Y-199.32
X247.6Y-129.79
X247.7Y-136.23
X248.45Y-149.44
X248.63Y-129.95
X248.835Y-176.056
X249.05Y-191.72
X249.14Y-151.98
X249.24Y-197.74
X249.41Y-161.23
X249.41Y-171.28
X249.735Y-176.005
X249.772Y-318.12
X249.832Y-314.81
X250.184Y-190.306
X250.21Y-177.98
X250.31Y-149.48
X250.33Y-183.49
X250.36Y-188.95
X250.45Y-177.05
X250.78Y-153.95
X250.84Y-159.34
X251.02Y-196.67
X251.23Y-151.44
X251.25Y-202.89
X251.39Y-195.42
X251.56Y-171.59
X251.84Y-156.5
X251.91Y-198.91
X252.11Y-167.04
X252.26Y-175.43
X252.85Y-191.81
X252.89Y-149.71
X253.22Y-189.25
X253.32Y-207.22
X253.69Y-177.76
X253.7Y-140.41
X253.72Y-196.59
X254.0Y-194.33
X254.013Y-176.641
X254.12Y-172.2
X254.24Y-184.67
X254.35Y-173.77
X254.525Y-132.265
X254.59Y-150.58
X254.59Y-164.6
X254.82Y-200.55
X254.983Y-197.673
X255.211Y-131.78
X255.51Y-154.3
X255.56Y-193.23
X255.56Y-197.08
X255.71Y-171.18
X255.71Y-194.18
X255.72Y-152.83
X255.74Y-163.5
X255.81Y-173.58
X255.86Y-159.73
X255.86Y-172.48
X255.933Y-174.32
X256.15Y-186.67
X256.64Y-201.62
X256.67Y-146.67
X256.91Y-200.58
X256.912Y-178.036
X257.02Y-167.47
X257.086Y-182.356
X257.118Y-180.29
X257.16Y-202.58
X257.22Y-179.5
X257.27Y-148.39
X257.5Y-187.3
X257.66Y-177.98
X257.69Y-160.75
X257.846Y-176.234
X257.86Y-204.18
X257.885Y-154.055
X257.91Y-203.13
X257.97Y-198.28
X257.993Y-186.687
X258.01Y-181.09
X258.16Y-151.35
X258.27Y-205.23
X258.54Y-137.5
X258.55Y-147.48
X258.57Y-139.057
X258.64Y-135.54
X258.81Y-172.694
X258.816Y-188.424
X259.096Y-201.843
X259.18Y-170.92
X259.205Y-170.17
X259.27Y-192.2
X259.28Y-194.76
X259.36Y-173.58
X259.38Y-181.7
X259.4Y-174.42
X259.96Y-177.98
X260.86Y-176.48
X261.04Y-177.83
X261.192Y-186.2
X261.33Y-170.38
X261.42Y-185.38
X261.46Y-183.58
X261.67Y-163.57
X261.78Y-181.7
X262.0Y-204.24
X262.21Y-156.58
X262.371Y-199.35
X262.44Y-174.42
X262.56Y-137.08
X262.71Y-188.78
X262.76Y-153.61
X262.87Y-154.404
X262.91Y-135.33
X262.93Y-150.42
X262.98Y-163.86
X262.998Y-194.446
X263.006Y-196.956
X263.06Y-202.58
X263.121Y-196.109
X263.16Y-139.08
X263.16Y-172.58
X263.53Y-197.58
X263.59Y-193.45
X263.76Y-180.78
X263.86Y-170.405
X264.36Y-188.53
X264.75Y-179.79
X264.84Y-178.81
X265.05Y-176.69
X266.01Y-202.89
X266.271Y-190.052
X266.31Y-195.93
X266.35Y-193.59
X266.38Y-187.59
X266.52Y-197.44
X266.565Y-191.916
X266.66Y-188.88
X266.67Y-134.957
X266.72Y-132.357
X266.72Y-137.157
X266.72Y-147.007
X266.72Y-150.607
X266.72Y-161.757
X266.77Y-129.907
X266.77Y-143.557
X266.77Y-158.957
X266.81Y-163.78
X266.81Y-168.73
X266.82Y-140.057
X266.82Y-153.907
X267.77Y-194.08
X267.83Y-197.92
X267.95Y-187.33
X267.95Y-190.14
X268.52Y-147.057
X268.57Y-132.407
X268.62Y-129.907
X268.62Y-135.107
X268.62Y-137.357
X268.62Y-150.707
X268.62Y-154.107
X268.62Y-158.907
X268.62Y-164.707
X268.67Y-140.307
X268.67Y-143.807
X268.72Y-161.757
X268.91Y-174.93
X268.93Y-173.12
X268.95Y-171.12
X269.36Y-184.73
X269.73Y-187.3
X270.26Y-190.479
X270.51Y-191.98
X270.76Y-194.13
X271.27Y-167.05
X271.36Y-177.85
X272.21Y-177.83
X272.26Y-174.98
X272.41Y-164.56
X273.01Y-177.88
X273.06Y-175.73
X273.16Y-134.96
X273.16Y-140.78
X273.41Y-142.43
X273.81Y-161.63
X274.15Y-148.63
X274.6Y-167.42
X275.25Y-172.17
X275.71Y-173.73
X276.22Y-156.97
X276.56Y-167.13
X277.15Y-154.3
X277.32Y-164.34
X277.33Y-137.68
X277.4Y-139.68
X277.43Y-147.43
X277.46Y-145.5
X277.49Y-141.52
X277.51Y-143.33
X277.61Y-158.29
X277.67Y-130.41
X278.01Y-135.78
X278.39Y-146.48
X278.97Y-153.29
X279.04Y-144.33
X282.5Y-137.21
X283.07Y-133.27
T2
X215.52Y-179.79
X218.835Y-152.905
X222.135Y-189.405
X223.41Y-148.305
X223.91Y-154.03
X224.66Y-147.73
X229.06Y-165.505
X230.26Y-205.655
X232.66Y-159.755
X234.09Y-141.73
X234.21Y-139.43
X234.21Y-153.655
X234.21Y-154.455
X234.6Y-137.46
X239.135Y-152.505
X240.121Y-164.476
X241.36Y-160.305
X241.385Y-165.18
X242.81Y-163.555
X246.73Y-212.36
X249.16Y-154.38
X249.835Y-155.23
X250.41Y-160.28
X251.835Y-212.355
X252.869Y-148.91
X253.24Y-147.21
X253.59Y-162.83
X254.035Y-162.03
X255.185Y-157.005
X256.985Y-158.18
X258.96Y-164.405
X261.54Y-168.82
X262.385Y-161.455
X262.78Y-162.78
X266.46Y-174.33
X266.535Y-172.48
X272.535Y-152.054
X274.06Y-156.905
X277.31Y-132.005
X277.435Y-148.655
X279.285Y-152.255
X280.463Y-150.08
X281.36Y-146.58
X281.36Y-154.255
X282.56Y-149.755
T4
X218.862Y-295.75
X218.862Y-297.25
X218.862Y-298.75
X218.862Y-300.25
X218.862Y-301.75
X218.862Y-303.25
X221.402Y-296.25
X221.402Y-297.75
X221.402Y-299.25
X221.402Y-300.75
X221.402Y-302.25
X223.942Y-298.25
X223.942Y-296.75
X223.942Y-299.75
X223.942Y-301.25
X223.942Y-302.75
X226.692Y-287.92
X226.692Y-311.08
X227.192Y-293.0
X227.192Y-308.54
X227.692Y-290.46
X227.692Y-306.0
X228.192Y-287.92
X228.192Y-311.08
X228.692Y-293.0
X228.692Y-308.54
X229.192Y-290.46
X229.192Y-306.0
X229.692Y-287.92
X229.692Y-311.08
X230.192Y-293.0
X230.192Y-308.54
X230.692Y-290.46
X230.692Y-306.0
X231.192Y-287.92
X231.192Y-311.08
X231.692Y-293.0
X231.692Y-308.54
X232.192Y-290.46
X232.192Y-306.0
X232.692Y-287.92
X232.692Y-311.08
X233.192Y-293.0
X233.192Y-308.54
X233.692Y-290.46
X233.692Y-306.0
X234.192Y-287.92
X234.192Y-311.08
X236.942Y-296.25
X236.942Y-297.75
X236.942Y-299.25
X236.942Y-302.25
X236.942Y-300.75
X239.482Y-296.75
X239.482Y-298.25
X239.482Y-299.75
X239.482Y-301.25
X239.482Y-302.75
X242.022Y-295.75
X242.022Y-297.25
X242.022Y-298.75
X242.022Y-300.25
X242.022Y-301.75
X242.022Y-303.25
T5
X200.772Y-290.05
X200.772Y-292.59
X200.772Y-295.13
X200.772Y-297.67
X200.772Y-300.21
X200.772Y-302.75
X200.772Y-305.29
X200.772Y-307.83
X207.042Y-289.97
X207.042Y-292.51
X207.042Y-295.05
X207.042Y-297.59
X207.042Y-300.13
X207.042Y-302.67
X207.042Y-305.21
X207.042Y-307.75
X209.592Y-318.43
X209.592Y-320.97
X209.592Y-323.51
X209.592Y-326.05
X214.885Y-189.218
X214.885Y-191.718
X214.885Y-194.218
X221.302Y-323.5
X221.392Y-329.23
X222.032Y-269.94
X222.072Y-275.86
X223.842Y-323.5
X223.932Y-329.23
X224.572Y-269.94
X224.612Y-275.86
X226.382Y-323.5
X226.472Y-329.23
X227.112Y-269.94
X227.152Y-275.86
X228.922Y-323.5
X229.012Y-329.23
X229.652Y-269.94
X229.692Y-275.86
X231.165Y-209.597
X231.462Y-323.5
X231.552Y-329.23
X232.192Y-269.94
X232.232Y-275.86
X232.6Y-170.28
X233.705Y-209.597
X234.002Y-323.5
X234.092Y-329.23
X234.732Y-269.94
X234.772Y-275.86
X235.14Y-170.28
X236.245Y-209.597
X236.542Y-323.5
X236.632Y-329.23
X237.272Y-269.94
X237.312Y-275.86
X237.68Y-170.28
X238.785Y-209.597
X239.082Y-323.5
X239.172Y-329.23
X239.812Y-269.94
X239.852Y-275.86
X240.22Y-170.28
X241.325Y-209.597
X243.865Y-209.597
X246.405Y-209.597
X248.945Y-209.597
X251.485Y-209.597
X251.822Y-309.77
X251.822Y-312.31
X251.822Y-314.85
X251.822Y-317.39
X254.025Y-209.597
X260.802Y-289.06
X260.802Y-291.6
X260.802Y-294.14
X260.802Y-296.68
X260.802Y-299.22
X260.802Y-301.76
X260.802Y-304.3
X260.802Y-306.84
X266.552Y-289.01
X266.552Y-291.55
X266.552Y-294.09
X266.552Y-296.63
X266.552Y-299.17
X266.552Y-301.71
X266.552Y-304.25
X266.552Y-306.79
T6
X198.16Y-167.62
X198.16Y-239.84
T7
X184.83Y-140.17
X184.83Y-145.95
T8
X213.91Y-221.83
X213.91Y-228.63
X214.215Y-234.095
X214.215Y-240.895
T9
X185.092Y-281.868
X185.092Y-320.347
X270.34Y-128.589
X270.34Y-168.719
T10
X206.03Y-167.62
T11
X180.576Y-259.825
X183.06Y-127.71
X183.1Y-252.73
X184.066Y-259.792
X187.7Y-259.68
X191.7Y-259.68
X195.7Y-259.68
X199.7Y-259.68
X203.7Y-259.68
X207.7Y-259.68
X211.7Y-259.68
X215.7Y-259.68
X219.442Y-288.5
X219.442Y-310.5
X219.7Y-259.68
X223.7Y-259.68
X227.7Y-259.68
X231.7Y-259.68
X235.7Y-259.68
X239.7Y-259.68
X241.442Y-288.5
X241.442Y-310.5
X243.7Y-259.68
X247.7Y-259.68
X251.7Y-259.68
X255.7Y-259.68
X259.7Y-259.68
X260.1Y-272.404
X260.33Y-328.36
X263.7Y-259.68
X267.42Y-259.68
X271.04Y-259.72
X274.73Y-259.89
X285.37Y-252.98
X287.02Y-126.95
T12
X190.29Y-175.82
X206.03Y-231.02
T3
G00X181.55Y-138.74
M15
G01X180.75Y-138.74
M16
G05
G00X181.55Y-147.38
M15
G01X180.75Y-147.38
M16
G05
G00X185.88Y-138.74
M15
G01X184.78Y-138.74
M16
G05
G00X185.88Y-147.38
M15
G01X184.78Y-147.38
M16
G05
M30
