%TF.GenerationSoftware,KiCad,Pcbnew,10.0.3*%
%TF.CreationDate,2026-07-14T16:43:16-04:00*%
%TF.ProjectId,pcbfiles,70636266-696c-4657-932e-6b696361645f,rev?*%
%TF.SameCoordinates,Original*%
%TF.FileFunction,Soldermask,Top*%
%TF.FilePolarity,Negative*%
%FSLAX46Y46*%
G04 Gerber Fmt 4.6, Leading zero omitted, Abs format (unit mm)*
G04 Created by KiCad (PCBNEW 10.0.3) date 2026-07-14 16:43:16*
%MOMM*%
%LPD*%
G01*
G04 APERTURE LIST*
G04 Aperture macros list*
%AMRoundRect*
0 Rectangle with rounded corners*
0 $1 Rounding radius*
0 $2 $3 $4 $5 $6 $7 $8 $9 X,Y pos of 4 corners*
0 Add a 4 corners polygon primitive as box body*
4,1,4,$2,$3,$4,$5,$6,$7,$8,$9,$2,$3,0*
0 Add four circle primitives for the rounded corners*
1,1,$1+$1,$2,$3*
1,1,$1+$1,$4,$5*
1,1,$1+$1,$6,$7*
1,1,$1+$1,$8,$9*
0 Add four rect primitives between the rounded corners*
20,1,$1+$1,$2,$3,$4,$5,0*
20,1,$1+$1,$4,$5,$6,$7,0*
20,1,$1+$1,$6,$7,$8,$9,0*
20,1,$1+$1,$8,$9,$2,$3,0*%
G04 Aperture macros list end*
%ADD10C,0.010000*%
%ADD11RoundRect,0.165400X0.165400X0.195400X-0.165400X0.195400X-0.165400X-0.195400X0.165400X-0.195400X0*%
%ADD12RoundRect,0.225400X0.300400X-0.225400X0.300400X0.225400X-0.300400X0.225400X-0.300400X-0.225400X0*%
%ADD13RoundRect,0.175400X-0.537900X-0.175400X0.537900X-0.175400X0.537900X0.175400X-0.537900X0.175400X0*%
%ADD14RoundRect,0.050800X-0.850000X-0.850000X0.850000X-0.850000X0.850000X0.850000X-0.850000X0.850000X0*%
%ADD15C,1.801600*%
%ADD16C,3.301600*%
%ADD17RoundRect,0.225400X-0.225400X-0.300400X0.225400X-0.300400X0.225400X0.300400X-0.225400X0.300400X0*%
%ADD18RoundRect,0.112900X0.275400X0.112900X-0.275400X0.112900X-0.275400X-0.112900X0.275400X-0.112900X0*%
%ADD19RoundRect,0.272087X0.678713X-0.353713X0.678713X0.353713X-0.678713X0.353713X-0.678713X-0.353713X0*%
%ADD20RoundRect,0.087900X-0.142900X-0.087900X0.142900X-0.087900X0.142900X0.087900X-0.142900X0.087900X0*%
%ADD21RoundRect,0.165400X-0.195400X0.165400X-0.195400X-0.165400X0.195400X-0.165400X0.195400X0.165400X0*%
%ADD22RoundRect,0.165400X-0.165400X-0.195400X0.165400X-0.195400X0.165400X0.195400X-0.165400X0.195400X0*%
%ADD23RoundRect,0.250400X0.275400X-0.250400X0.275400X0.250400X-0.275400X0.250400X-0.275400X-0.250400X0*%
%ADD24RoundRect,0.272087X-0.353713X-0.678713X0.353713X-0.678713X0.353713X0.678713X-0.353713X0.678713X0*%
%ADD25RoundRect,0.165400X0.195400X-0.165400X0.195400X0.165400X-0.195400X0.165400X-0.195400X-0.165400X0*%
%ADD26RoundRect,0.087900X-0.087900X0.142900X-0.087900X-0.142900X0.087900X-0.142900X0.087900X0.142900X0*%
%ADD27RoundRect,0.225400X0.225400X0.300400X-0.225400X0.300400X-0.225400X-0.300400X0.225400X-0.300400X0*%
%ADD28RoundRect,0.050800X0.850000X-0.850000X0.850000X0.850000X-0.850000X0.850000X-0.850000X-0.850000X0*%
%ADD29RoundRect,0.225400X-0.300400X0.225400X-0.300400X-0.225400X0.300400X-0.225400X0.300400X0.225400X0*%
%ADD30RoundRect,0.050800X-0.850000X0.850000X-0.850000X-0.850000X0.850000X-0.850000X0.850000X0.850000X0*%
%ADD31RoundRect,0.244150X-0.281650X0.244150X-0.281650X-0.244150X0.281650X-0.244150X0.281650X0.244150X0*%
%ADD32RoundRect,0.066933X-0.318867X-0.133867X0.318867X-0.133867X0.318867X0.133867X-0.318867X0.133867X0*%
%ADD33RoundRect,0.100400X-0.687900X-0.100400X0.687900X-0.100400X0.687900X0.100400X-0.687900X0.100400X0*%
%ADD34RoundRect,0.100400X-0.100400X-0.687900X0.100400X-0.687900X0.100400X0.687900X-0.100400X0.687900X0*%
%ADD35RoundRect,0.087900X0.087900X-0.400400X0.087900X0.400400X-0.087900X0.400400X-0.087900X-0.400400X0*%
%ADD36RoundRect,0.087900X0.400400X-0.087900X0.400400X0.087900X-0.400400X0.087900X-0.400400X-0.087900X0*%
%ADD37RoundRect,0.050800X0.800000X-0.800000X0.800000X0.800000X-0.800000X0.800000X-0.800000X-0.800000X0*%
%ADD38RoundRect,0.050800X0.850000X0.850000X-0.850000X0.850000X-0.850000X-0.850000X0.850000X-0.850000X0*%
%ADD39RoundRect,0.160400X-0.160400X-0.210400X0.160400X-0.210400X0.160400X0.210400X-0.160400X0.210400X0*%
%ADD40RoundRect,0.102000X0.654000X0.654000X-0.654000X0.654000X-0.654000X-0.654000X0.654000X-0.654000X0*%
%ADD41C,1.512000*%
%ADD42RoundRect,0.050800X-0.500000X-0.500000X0.500000X-0.500000X0.500000X0.500000X-0.500000X0.500000X0*%
%ADD43RoundRect,0.275400X0.500400X-0.275400X0.500400X0.275400X-0.500400X0.275400X-0.500400X-0.275400X0*%
%ADD44RoundRect,0.112900X-0.275400X-0.112900X0.275400X-0.112900X0.275400X0.112900X-0.275400X0.112900X0*%
%ADD45RoundRect,0.059250X0.602750X0.177750X-0.602750X0.177750X-0.602750X-0.177750X0.602750X-0.177750X0*%
%ADD46C,0.751600*%
%ADD47O,2.304000X1.204000*%
%ADD48O,2.004000X1.204000*%
%ADD49RoundRect,0.250400X0.250400X0.275400X-0.250400X0.275400X-0.250400X-0.275400X0.250400X-0.275400X0*%
%ADD50RoundRect,0.175400X0.537900X0.175400X-0.537900X0.175400X-0.537900X-0.175400X0.537900X-0.175400X0*%
%ADD51RoundRect,0.244150X0.281650X-0.244150X0.281650X0.244150X-0.281650X0.244150X-0.281650X-0.244150X0*%
%ADD52RoundRect,0.160400X0.210400X-0.160400X0.210400X0.160400X-0.210400X0.160400X-0.210400X-0.160400X0*%
%ADD53RoundRect,0.268142X-0.482658X0.682658X-0.482658X-0.682658X0.482658X-0.682658X0.482658X0.682658X0*%
%ADD54RoundRect,0.050800X-0.647700X0.774700X-0.647700X-0.774700X0.647700X-0.774700X0.647700X0.774700X0*%
%ADD55RoundRect,0.250400X-0.250400X-0.275400X0.250400X-0.275400X0.250400X0.275400X-0.250400X0.275400X0*%
%ADD56RoundRect,0.050800X0.704850X0.177800X-0.704850X0.177800X-0.704850X-0.177800X0.704850X-0.177800X0*%
%ADD57C,1.712000*%
%ADD58RoundRect,0.175400X0.175400X-0.537900X0.175400X0.537900X-0.175400X0.537900X-0.175400X-0.537900X0*%
%ADD59RoundRect,0.112900X0.112900X-0.275400X0.112900X0.275400X-0.112900X0.275400X-0.112900X-0.275400X0*%
%ADD60RoundRect,0.100500X0.616500X0.301500X-0.616500X0.301500X-0.616500X-0.301500X0.616500X-0.301500X0*%
%ADD61RoundRect,0.175400X-0.175400X0.537900X-0.175400X-0.537900X0.175400X-0.537900X0.175400X0.537900X0*%
%ADD62C,3.651600*%
%ADD63C,2.491600*%
%ADD64C,2.184000*%
%ADD65RoundRect,0.050800X0.199999X-0.525000X0.199999X0.525000X-0.199999X0.525000X-0.199999X-0.525000X0*%
%ADD66RoundRect,0.050800X0.299999X0.100000X-0.299999X0.100000X-0.299999X-0.100000X0.299999X-0.100000X0*%
%ADD67RoundRect,0.160400X0.160400X0.210400X-0.160400X0.210400X-0.160400X-0.210400X0.160400X-0.210400X0*%
%ADD68RoundRect,0.112900X-0.112900X0.275400X-0.112900X-0.275400X0.112900X-0.275400X0.112900X0.275400X0*%
%ADD69RoundRect,0.270400X-0.270400X-1.630400X0.270400X-1.630400X0.270400X1.630400X-0.270400X1.630400X0*%
%ADD70RoundRect,0.050800X-1.750000X1.475000X-1.750000X-1.475000X1.750000X-1.475000X1.750000X1.475000X0*%
%ADD71RoundRect,0.112900X-0.450400X-0.112900X0.450400X-0.112900X0.450400X0.112900X-0.450400X0.112900X0*%
%ADD72RoundRect,0.250400X-0.275400X0.250400X-0.275400X-0.250400X0.275400X-0.250400X0.275400X0.250400X0*%
%ADD73RoundRect,0.272087X-0.678713X0.353713X-0.678713X-0.353713X0.678713X-0.353713X0.678713X0.353713X0*%
%ADD74RoundRect,0.112900X-0.112900X0.450400X-0.112900X-0.450400X0.112900X-0.450400X0.112900X0.450400X0*%
%ADD75RoundRect,0.112900X-0.562900X-0.112900X0.562900X-0.112900X0.562900X0.112900X-0.562900X0.112900X0*%
%ADD76RoundRect,0.102000X-0.654000X0.654000X-0.654000X-0.654000X0.654000X-0.654000X0.654000X0.654000X0*%
%ADD77RoundRect,0.272087X0.353713X0.678713X-0.353713X0.678713X-0.353713X-0.678713X0.353713X-0.678713X0*%
%ADD78RoundRect,0.267518X-0.508282X-2.533282X0.508282X-2.533282X0.508282X2.533282X-0.508282X2.533282X0*%
%ADD79RoundRect,0.244150X0.244150X0.281650X-0.244150X0.281650X-0.244150X-0.281650X0.244150X-0.281650X0*%
%ADD80RoundRect,0.098000X0.609000X0.294000X-0.609000X0.294000X-0.609000X-0.294000X0.609000X-0.294000X0*%
%ADD81RoundRect,0.087900X0.142900X0.087900X-0.142900X0.087900X-0.142900X-0.087900X0.142900X-0.087900X0*%
%ADD82C,1.001600*%
%ADD83RoundRect,0.270320X-1.030480X0.405480X-1.030480X-0.405480X1.030480X-0.405480X1.030480X0.405480X0*%
%ADD84RoundRect,0.075400X0.300400X0.075400X-0.300400X0.075400X-0.300400X-0.075400X0.300400X-0.075400X0*%
%ADD85RoundRect,0.075400X0.475400X0.075400X-0.475400X0.075400X-0.475400X-0.075400X0.475400X-0.075400X0*%
%ADD86RoundRect,0.087900X0.087900X0.237900X-0.087900X0.237900X-0.087900X-0.237900X0.087900X-0.237900X0*%
%ADD87C,1.121600*%
%ADD88RoundRect,0.102000X-1.135000X0.139500X-1.135000X-0.139500X1.135000X-0.139500X1.135000X0.139500X0*%
%ADD89RoundRect,0.102000X-0.215000X1.270000X-0.215000X-1.270000X0.215000X-1.270000X0.215000X1.270000X0*%
%ADD90RoundRect,0.102000X-0.215000X2.350000X-0.215000X-2.350000X0.215000X-2.350000X0.215000X2.350000X0*%
%ADD91RoundRect,0.112900X0.112900X-0.450400X0.112900X0.450400X-0.112900X0.450400X-0.112900X-0.450400X0*%
G04 APERTURE END LIST*
D10*
%TO.C,USB-C1*%
X186530000Y-139510000D02*
X186530000Y-140210000D01*
X185280000Y-140210000D01*
X185280000Y-139510000D01*
X186530000Y-139510000D01*
G36*
X186530000Y-140210000D02*
G01*
X185280000Y-140210000D01*
X185280000Y-139510000D01*
X186530000Y-139510000D01*
X186530000Y-140210000D01*
G37*
X186530000Y-140310000D02*
X186530000Y-141010000D01*
X185280000Y-141010000D01*
X185280000Y-140310000D01*
X186530000Y-140310000D01*
G36*
X186530000Y-141010000D02*
G01*
X185280000Y-141010000D01*
X185280000Y-140310000D01*
X186530000Y-140310000D01*
X186530000Y-141010000D01*
G37*
X186530000Y-141110000D02*
X186530000Y-141510000D01*
X185280000Y-141510000D01*
X185280000Y-141110000D01*
X186530000Y-141110000D01*
G36*
X186530000Y-141510000D02*
G01*
X185280000Y-141510000D01*
X185280000Y-141110000D01*
X186530000Y-141110000D01*
X186530000Y-141510000D01*
G37*
X186530000Y-141610000D02*
X186530000Y-142010000D01*
X185280000Y-142010000D01*
X185280000Y-141610000D01*
X186530000Y-141610000D01*
G36*
X186530000Y-142010000D02*
G01*
X185280000Y-142010000D01*
X185280000Y-141610000D01*
X186530000Y-141610000D01*
X186530000Y-142010000D01*
G37*
X186530000Y-142110000D02*
X186530000Y-142510000D01*
X185280000Y-142510000D01*
X185280000Y-142110000D01*
X186530000Y-142110000D01*
G36*
X186530000Y-142510000D02*
G01*
X185280000Y-142510000D01*
X185280000Y-142110000D01*
X186530000Y-142110000D01*
X186530000Y-142510000D01*
G37*
X186530000Y-142610000D02*
X186530000Y-143010000D01*
X185280000Y-143010000D01*
X185280000Y-142610000D01*
X186530000Y-142610000D01*
G36*
X186530000Y-143010000D02*
G01*
X185280000Y-143010000D01*
X185280000Y-142610000D01*
X186530000Y-142610000D01*
X186530000Y-143010000D01*
G37*
X186530000Y-143110000D02*
X186530000Y-143510000D01*
X185280000Y-143510000D01*
X185280000Y-143110000D01*
X186530000Y-143110000D01*
G36*
X186530000Y-143510000D02*
G01*
X185280000Y-143510000D01*
X185280000Y-143110000D01*
X186530000Y-143110000D01*
X186530000Y-143510000D01*
G37*
X186530000Y-143610000D02*
X186530000Y-144010000D01*
X185280000Y-144010000D01*
X185280000Y-143610000D01*
X186530000Y-143610000D01*
G36*
X186530000Y-144010000D02*
G01*
X185280000Y-144010000D01*
X185280000Y-143610000D01*
X186530000Y-143610000D01*
X186530000Y-144010000D01*
G37*
X186530000Y-144110000D02*
X186530000Y-144510000D01*
X185280000Y-144510000D01*
X185280000Y-144110000D01*
X186530000Y-144110000D01*
G36*
X186530000Y-144510000D02*
G01*
X185280000Y-144510000D01*
X185280000Y-144110000D01*
X186530000Y-144110000D01*
X186530000Y-144510000D01*
G37*
X186530000Y-144610000D02*
X186530000Y-145010000D01*
X185280000Y-145010000D01*
X185280000Y-144610000D01*
X186530000Y-144610000D01*
G36*
X186530000Y-145010000D02*
G01*
X185280000Y-145010000D01*
X185280000Y-144610000D01*
X186530000Y-144610000D01*
X186530000Y-145010000D01*
G37*
X186530000Y-145110000D02*
X186530000Y-145810000D01*
X185280000Y-145810000D01*
X185280000Y-145110000D01*
X186530000Y-145110000D01*
G36*
X186530000Y-145810000D02*
G01*
X185280000Y-145810000D01*
X185280000Y-145110000D01*
X186530000Y-145110000D01*
X186530000Y-145810000D01*
G37*
X186530000Y-145910000D02*
X186530000Y-146610000D01*
X185280000Y-146610000D01*
X185280000Y-145910000D01*
X186530000Y-145910000D01*
G36*
X186530000Y-146610000D02*
G01*
X185280000Y-146610000D01*
X185280000Y-145910000D01*
X186530000Y-145910000D01*
X186530000Y-146610000D01*
G37*
%TD*%
D11*
%TO.C,C17*%
X215040000Y-140680000D03*
X214080000Y-140680000D03*
%TD*%
D12*
%TO.C,R45*%
X222610000Y-142212500D03*
X222610000Y-140562500D03*
%TD*%
D13*
%TO.C,LD1*%
X251910000Y-152980000D03*
X251910000Y-153930000D03*
X251910000Y-154880000D03*
X254185000Y-154880000D03*
X254185000Y-153930000D03*
X254185000Y-152980000D03*
%TD*%
D14*
%TO.C,J12*%
X317274632Y-229083845D03*
D15*
X317274632Y-231623845D03*
X317274632Y-234163844D03*
X317274632Y-236703845D03*
X317274632Y-239243845D03*
X317274632Y-241783845D03*
X317274632Y-244323845D03*
X317274632Y-246863846D03*
%TD*%
D12*
%TO.C,R37*%
X210610000Y-140055000D03*
X210610000Y-138405000D03*
%TD*%
D16*
%TO.C,55*%
X293624000Y-173616000D03*
%TD*%
D17*
%TO.C,R84*%
X259860000Y-190380000D03*
X261510000Y-190380000D03*
%TD*%
D12*
%TO.C,R4*%
X204460000Y-162105000D03*
X204460000Y-160455000D03*
%TD*%
%TO.C,R11*%
X195760000Y-157005000D03*
X195760000Y-155355000D03*
%TD*%
D18*
%TO.C,BUF8*%
X260322500Y-200532500D03*
X260322500Y-200032500D03*
X260322500Y-199532500D03*
X258897500Y-199532500D03*
X258897500Y-200532500D03*
%TD*%
D19*
%TO.C,C4*%
X197760000Y-144480000D03*
X197760000Y-141530000D03*
%TD*%
D20*
%TO.C,D4*%
X248280000Y-200030000D03*
X247440000Y-200030000D03*
%TD*%
D21*
%TO.C,C92*%
X256400000Y-197090000D03*
X256400000Y-198050000D03*
%TD*%
D13*
%TO.C,SPST4*%
X280772500Y-151030000D03*
X280772500Y-151980000D03*
X280772500Y-152930000D03*
X283047500Y-152930000D03*
X283047500Y-151030000D03*
%TD*%
D22*
%TO.C,C73*%
X257780000Y-183230000D03*
X258740000Y-183230000D03*
%TD*%
D21*
%TO.C,C10*%
X228210000Y-165450000D03*
X228210000Y-166410000D03*
%TD*%
D22*
%TO.C,C89*%
X260940000Y-164403750D03*
X261900000Y-164403750D03*
%TD*%
D23*
%TO.C,C75*%
X249977500Y-152985000D03*
X249977500Y-151435000D03*
%TD*%
D24*
%TO.C,C46*%
X235410000Y-142395000D03*
X238360000Y-142395000D03*
%TD*%
D25*
%TO.C,C68*%
X228770000Y-190950000D03*
X228770000Y-189990000D03*
%TD*%
D26*
%TO.C,D1*%
X253190000Y-179030000D03*
X253190000Y-178190000D03*
%TD*%
D27*
%TO.C,R51*%
X245510000Y-212330000D03*
X243860000Y-212330000D03*
%TD*%
D11*
%TO.C,C43*%
X243365000Y-129962500D03*
X242405000Y-129962500D03*
%TD*%
D28*
%TO.C,LCD1*%
X231165000Y-209597500D03*
D15*
X233705000Y-209597500D03*
X236245000Y-209597500D03*
X238785000Y-209597500D03*
X241325000Y-209597500D03*
X243865000Y-209597500D03*
X246405000Y-209597500D03*
X248945000Y-209597500D03*
X251485000Y-209597500D03*
X254025000Y-209597500D03*
%TD*%
D25*
%TO.C,C83*%
X258560000Y-149270000D03*
X258560000Y-148310000D03*
%TD*%
D29*
%TO.C,R31*%
X242435000Y-157355000D03*
X242435000Y-159005000D03*
%TD*%
D30*
%TO.C,cg-SWD_Breakout_Parent1*%
X240220000Y-170280000D03*
D15*
X237680000Y-170280000D03*
X235140000Y-170280000D03*
X232600000Y-170280000D03*
%TD*%
D31*
%TO.C,FLT*%
X245685000Y-157342500D03*
X245685000Y-158917500D03*
%TD*%
D16*
%TO.C,56*%
X359733999Y-191008000D03*
%TD*%
D27*
%TO.C,R73*%
X276345000Y-135710000D03*
X274695000Y-135710000D03*
%TD*%
D16*
%TO.C,REF\u002A\u002A*%
X392415633Y-184583845D03*
%TD*%
D13*
%TO.C,SPST3*%
X274747500Y-149792500D03*
X274747500Y-150742500D03*
X274747500Y-151692500D03*
X277022500Y-151692500D03*
X277022500Y-149792500D03*
%TD*%
D32*
%TO.C,BUCK_1V8*%
X238570000Y-130837500D03*
X238570000Y-131337500D03*
X238570000Y-131837500D03*
X238570000Y-132337500D03*
X240050000Y-132337500D03*
X240050000Y-131837500D03*
X240050000Y-131337500D03*
X240050000Y-130837500D03*
%TD*%
D27*
%TO.C,R70*%
X276335000Y-141480000D03*
X274685000Y-141480000D03*
%TD*%
D24*
%TO.C,C48*%
X244610000Y-131687500D03*
X247560000Y-131687500D03*
%TD*%
D33*
%TO.C,STM32H1*%
X230322500Y-176467500D03*
X230322500Y-176967500D03*
X230322500Y-177467500D03*
X230322500Y-177967500D03*
X230322500Y-178467500D03*
X230322500Y-178967500D03*
X230322500Y-179467500D03*
X230322500Y-179967500D03*
X230322500Y-180467500D03*
X230322500Y-180967500D03*
X230322500Y-181467500D03*
X230322500Y-181967500D03*
X230322500Y-182467500D03*
X230322500Y-182967500D03*
X230322500Y-183467500D03*
X230322500Y-183967500D03*
X230322500Y-184467500D03*
X230322500Y-184967500D03*
X230322500Y-185467500D03*
X230322500Y-185967500D03*
X230322500Y-186467500D03*
X230322500Y-186967500D03*
X230322500Y-187467500D03*
X230322500Y-187967500D03*
X230322500Y-188467500D03*
X230322500Y-188967500D03*
X230322500Y-189467500D03*
X230322500Y-189967500D03*
X230322500Y-190467500D03*
X230322500Y-190967500D03*
X230322500Y-191467500D03*
X230322500Y-191967500D03*
X230322500Y-192467500D03*
X230322500Y-192967500D03*
X230322500Y-193467500D03*
X230322500Y-193967500D03*
D34*
X232235000Y-195880000D03*
X232735000Y-195880000D03*
X233235000Y-195880000D03*
X233735000Y-195880000D03*
X234235000Y-195880000D03*
X234735000Y-195880000D03*
X235235000Y-195880000D03*
X235735000Y-195880000D03*
X236235000Y-195880000D03*
X236735000Y-195880000D03*
X237235000Y-195880000D03*
X237735000Y-195880000D03*
X238235000Y-195880000D03*
X238735000Y-195880000D03*
X239235000Y-195880000D03*
X239735000Y-195880000D03*
X240235000Y-195880000D03*
X240735000Y-195880000D03*
X241235000Y-195880000D03*
X241735000Y-195880000D03*
X242235000Y-195880000D03*
X242735000Y-195880000D03*
X243235000Y-195880000D03*
X243735000Y-195880000D03*
X244235000Y-195880000D03*
X244735000Y-195880000D03*
X245235000Y-195880000D03*
X245735000Y-195880000D03*
X246235000Y-195880000D03*
X246735000Y-195880000D03*
X247235000Y-195880000D03*
X247735000Y-195880000D03*
X248235000Y-195880000D03*
X248735000Y-195880000D03*
X249235000Y-195880000D03*
X249735000Y-195880000D03*
D33*
X251647500Y-193967500D03*
X251647500Y-193467500D03*
X251647500Y-192967500D03*
X251647500Y-192467500D03*
X251647500Y-191967500D03*
X251647500Y-191467500D03*
X251647500Y-190967500D03*
X251647500Y-190467500D03*
X251647500Y-189967500D03*
X251647500Y-189467500D03*
X251647500Y-188967500D03*
X251647500Y-188467500D03*
X251647500Y-187967500D03*
X251647500Y-187467500D03*
X251647500Y-186967500D03*
X251647500Y-186467500D03*
X251647500Y-185967500D03*
X251647500Y-185467500D03*
X251647500Y-184967500D03*
X251647500Y-184467500D03*
X251647500Y-183967500D03*
X251647500Y-183467500D03*
X251647500Y-182967500D03*
X251647500Y-182467500D03*
X251647500Y-181967500D03*
X251647500Y-181467500D03*
X251647500Y-180967500D03*
X251647500Y-180467500D03*
X251647500Y-179967500D03*
X251647500Y-179467500D03*
X251647500Y-178967500D03*
X251647500Y-178467500D03*
X251647500Y-177967500D03*
X251647500Y-177467500D03*
X251647500Y-176967500D03*
X251647500Y-176467500D03*
D34*
X249735000Y-174555000D03*
X249235000Y-174555000D03*
X248735000Y-174555000D03*
X248235000Y-174555000D03*
X247735000Y-174555000D03*
X247235000Y-174555000D03*
X246735000Y-174555000D03*
X246235000Y-174555000D03*
X245735000Y-174555000D03*
X245235000Y-174555000D03*
X244735000Y-174555000D03*
X244235000Y-174555000D03*
X243735000Y-174555000D03*
X243235000Y-174555000D03*
X242735000Y-174555000D03*
X242235000Y-174555000D03*
X241735000Y-174555000D03*
X241235000Y-174555000D03*
X240735000Y-174555000D03*
X240235000Y-174555000D03*
X239735000Y-174555000D03*
X239235000Y-174555000D03*
X238735000Y-174555000D03*
X238235000Y-174555000D03*
X237735000Y-174555000D03*
X237235000Y-174555000D03*
X236735000Y-174555000D03*
X236235000Y-174555000D03*
X235735000Y-174555000D03*
X235235000Y-174555000D03*
X234735000Y-174555000D03*
X234235000Y-174555000D03*
X233735000Y-174555000D03*
X233235000Y-174555000D03*
X232735000Y-174555000D03*
X232235000Y-174555000D03*
%TD*%
D35*
%TO.C,CHGR1*%
X213060000Y-158267500D03*
X213560000Y-158267500D03*
X214060000Y-158267500D03*
X214560000Y-158267500D03*
D36*
X215247500Y-157580000D03*
X215247500Y-157080000D03*
X215247500Y-156580000D03*
X215247500Y-156080000D03*
D35*
X214560000Y-155392500D03*
X214060000Y-155392500D03*
X213560000Y-155392500D03*
X213060000Y-155392500D03*
D36*
X212372500Y-156080000D03*
X212372500Y-156580000D03*
X212372500Y-157080000D03*
X212372500Y-157580000D03*
D37*
X213810000Y-156830000D03*
%TD*%
D17*
%TO.C,R88*%
X259745000Y-137407250D03*
X261395000Y-137407250D03*
%TD*%
D38*
%TO.C,J5*%
X381874632Y-246813846D03*
D15*
X381874632Y-244273846D03*
X381874632Y-241733847D03*
X381874632Y-239193846D03*
X381874632Y-236653846D03*
X381874632Y-234113846D03*
X381874632Y-231573846D03*
X381874632Y-229033845D03*
%TD*%
D39*
%TO.C,R44*%
X242125000Y-131562500D03*
X243145000Y-131562500D03*
%TD*%
D22*
%TO.C,C85*%
X280505000Y-137217500D03*
X281465000Y-137217500D03*
%TD*%
D16*
%TO.C,J_SOCKET_100_1*%
X364394633Y-250923845D03*
X364394633Y-224923845D03*
X338394633Y-250923845D03*
X338394633Y-224923845D03*
D40*
X364974633Y-243923845D03*
D41*
X362434633Y-243423845D03*
X359894634Y-242923845D03*
X364974634Y-242423845D03*
X362434633Y-241923845D03*
X359894633Y-241423845D03*
X364974633Y-240923845D03*
X362434633Y-240423845D03*
X359894633Y-239923845D03*
X364974633Y-239423845D03*
X362434633Y-238923845D03*
X359894633Y-238423845D03*
X364974633Y-237923845D03*
X362434632Y-237423845D03*
X359894633Y-236923845D03*
X364974633Y-236423845D03*
X362434632Y-235923845D03*
X359894634Y-235423845D03*
X364974633Y-234923845D03*
X362434633Y-234423845D03*
X359894634Y-233923845D03*
X364974634Y-233423845D03*
X362434633Y-232923845D03*
X359894633Y-232423845D03*
X364974633Y-231923845D03*
X357394633Y-224343845D03*
X356894633Y-226883845D03*
X356394633Y-229423844D03*
X355894633Y-224343844D03*
X355394633Y-226883845D03*
X354894633Y-229423845D03*
X354394633Y-224343845D03*
X353894633Y-226883845D03*
X353394633Y-229423845D03*
X352894633Y-224343845D03*
X352394633Y-226883845D03*
X351894633Y-229423845D03*
X351394633Y-224343845D03*
X350894633Y-226883846D03*
X350394633Y-229423845D03*
X349894633Y-224343845D03*
X349394633Y-226883846D03*
X348894633Y-229423844D03*
X348394633Y-224343845D03*
X347894633Y-226883845D03*
X347394633Y-229423844D03*
X346894633Y-224343844D03*
X346394633Y-226883845D03*
X345894633Y-229423845D03*
X345394633Y-224343845D03*
X337814633Y-231923845D03*
X340354633Y-232423845D03*
X342894632Y-232923845D03*
X337814632Y-233423845D03*
X340354633Y-233923845D03*
X342894633Y-234423845D03*
X337814633Y-234923845D03*
X340354633Y-235423845D03*
X342894633Y-235923845D03*
X337814633Y-236423845D03*
X340354633Y-236923845D03*
X342894633Y-237423845D03*
X337814633Y-237923845D03*
X340354634Y-238423845D03*
X342894633Y-238923845D03*
X337814633Y-239423845D03*
X340354634Y-239923845D03*
X342894632Y-240423845D03*
X337814633Y-240923845D03*
X340354633Y-241423845D03*
X342894632Y-241923845D03*
X337814632Y-242423845D03*
X340354633Y-242923845D03*
X342894633Y-243423845D03*
X337814633Y-243923845D03*
X345394633Y-251503845D03*
X345894633Y-248963845D03*
X346394633Y-246423846D03*
X346894633Y-251503846D03*
X347394633Y-248963845D03*
X347894633Y-246423845D03*
X348394633Y-251503845D03*
X348894633Y-248963845D03*
X349394633Y-246423845D03*
X349894633Y-251503845D03*
X350394633Y-248963845D03*
X350894633Y-246423845D03*
X351394633Y-251503845D03*
X351894633Y-248963844D03*
X352394633Y-246423845D03*
X352894633Y-251503845D03*
X353394633Y-248963844D03*
X353894633Y-246423846D03*
X354394633Y-251503845D03*
X354894633Y-248963845D03*
X355394633Y-246423846D03*
X355894633Y-251503846D03*
X356394633Y-248963845D03*
X356894633Y-246423845D03*
X357394633Y-251503845D03*
%TD*%
D16*
%TO.C,57*%
X293624000Y-181616000D03*
%TD*%
D21*
%TO.C,C95*%
X263135000Y-175650000D03*
X263135000Y-176610000D03*
%TD*%
D23*
%TO.C,C80*%
X256637500Y-156167500D03*
X256637500Y-154617500D03*
%TD*%
D18*
%TO.C,INV3*%
X227072500Y-146455000D03*
X227072500Y-145955000D03*
X227072500Y-145455000D03*
X225647500Y-145455000D03*
X225647500Y-146455000D03*
%TD*%
D42*
%TO.C,3V3*%
X237530000Y-134330000D03*
%TD*%
D16*
%TO.C,64*%
X391733999Y-191008000D03*
%TD*%
D43*
%TO.C,C53*%
X228260000Y-177330000D03*
X228260000Y-175430000D03*
%TD*%
D44*
%TO.C,BUF2*%
X264097500Y-194280000D03*
X264097500Y-194780000D03*
X264097500Y-195280000D03*
X265522500Y-195280000D03*
X265522500Y-194280000D03*
%TD*%
D12*
%TO.C,R46*%
X219485000Y-140655000D03*
X219485000Y-139005000D03*
%TD*%
D38*
%TO.C,J7*%
X385684633Y-246813845D03*
D15*
X385684633Y-244273845D03*
X385684633Y-241733846D03*
X385684633Y-239193845D03*
X385684633Y-236653845D03*
X385684633Y-234113845D03*
X385684633Y-231573845D03*
X385684633Y-229033844D03*
%TD*%
D29*
%TO.C,R14*%
X239535000Y-153705000D03*
X239535000Y-155355000D03*
%TD*%
D27*
%TO.C,R16*%
X213335000Y-127280000D03*
X211685000Y-127280000D03*
%TD*%
D16*
%TO.C,50*%
X293624000Y-153616000D03*
%TD*%
D12*
%TO.C,R29*%
X217360000Y-150105000D03*
X217360000Y-148455000D03*
%TD*%
D45*
%TO.C,ARM1*%
X244090000Y-163305000D03*
X244090000Y-162805000D03*
X244090000Y-162305000D03*
X244090000Y-161805000D03*
X241280000Y-161805000D03*
X241280000Y-162305000D03*
X241280000Y-162805000D03*
X241280000Y-163305000D03*
%TD*%
D32*
%TO.C,BUCK_3V3*%
X223595000Y-135250000D03*
X223595000Y-135750000D03*
X223595000Y-136250000D03*
X223595000Y-136750000D03*
X225075000Y-136750000D03*
X225075000Y-136250000D03*
X225075000Y-135750000D03*
X225075000Y-135250000D03*
%TD*%
D16*
%TO.C,53*%
X293624000Y-165616000D03*
%TD*%
D30*
%TO.C,J4*%
X360938000Y-114336002D03*
D15*
X358398000Y-114336002D03*
X355858001Y-114336002D03*
X353318000Y-114336002D03*
X350778000Y-114336002D03*
X348238000Y-114336002D03*
X345698000Y-114336002D03*
X343157999Y-114336002D03*
%TD*%
D22*
%TO.C,C50*%
X212055000Y-217145000D03*
X213015000Y-217145000D03*
%TD*%
D23*
%TO.C,C77*%
X257000000Y-165745000D03*
X257000000Y-164195000D03*
%TD*%
D31*
%TO.C,TRGT_PWR*%
X240410000Y-157392500D03*
X240410000Y-158967500D03*
%TD*%
D19*
%TO.C,C34*%
X234860000Y-131930000D03*
X234860000Y-128980000D03*
%TD*%
D23*
%TO.C,C78*%
X250525000Y-158268750D03*
X250525000Y-156718750D03*
%TD*%
D16*
%TO.C,61*%
X379734000Y-191008000D03*
%TD*%
D27*
%TO.C,R71*%
X276385000Y-139630000D03*
X274735000Y-139630000D03*
%TD*%
D25*
%TO.C,C58*%
X228610000Y-184460000D03*
X228610000Y-183500000D03*
%TD*%
D17*
%TO.C,R57*%
X252235000Y-197730000D03*
X253885000Y-197730000D03*
%TD*%
D22*
%TO.C,C60*%
X238780000Y-172917500D03*
X239740000Y-172917500D03*
%TD*%
D24*
%TO.C,C47*%
X235460000Y-139330000D03*
X238410000Y-139330000D03*
%TD*%
D22*
%TO.C,C13*%
X231580000Y-160680000D03*
X232540000Y-160680000D03*
%TD*%
D27*
%TO.C,R82*%
X269470000Y-191230000D03*
X267820000Y-191230000D03*
%TD*%
D16*
%TO.C,REF\u002A\u002A*%
X392430000Y-283008845D03*
%TD*%
D46*
%TO.C,USB-C1*%
X184830000Y-140170000D03*
X184830000Y-145950000D03*
D47*
X185330000Y-138740000D03*
X185330000Y-147380000D03*
D48*
X181150000Y-138740000D03*
X181150000Y-147380000D03*
%TD*%
D27*
%TO.C,R63*%
X221260000Y-225245000D03*
X219610000Y-225245000D03*
%TD*%
D49*
%TO.C,C30*%
X245310000Y-144280000D03*
X243760000Y-144280000D03*
%TD*%
D44*
%TO.C,BUF1*%
X267947500Y-188280000D03*
X267947500Y-188780000D03*
X267947500Y-189280000D03*
X269372500Y-189280000D03*
X269372500Y-188280000D03*
%TD*%
%TO.C,INV6*%
X256685000Y-193570000D03*
X256685000Y-194070000D03*
X256685000Y-194570000D03*
X258110000Y-194570000D03*
X258110000Y-193570000D03*
%TD*%
D25*
%TO.C,C79*%
X262152500Y-202545000D03*
X262152500Y-201585000D03*
%TD*%
D16*
%TO.C,48*%
X327733999Y-191008000D03*
%TD*%
D11*
%TO.C,C19*%
X222765000Y-154155000D03*
X221805000Y-154155000D03*
%TD*%
D21*
%TO.C,C3*%
X187240000Y-149120000D03*
X187240000Y-150080000D03*
%TD*%
D50*
%TO.C,NAND1*%
X281722500Y-135792500D03*
X281722500Y-134842500D03*
X281722500Y-133892500D03*
X279447500Y-133892500D03*
X279447500Y-135792500D03*
%TD*%
D51*
%TO.C,BAT_SET*%
X200485000Y-156992500D03*
X200485000Y-155417500D03*
%TD*%
D21*
%TO.C,C69*%
X253305000Y-182962500D03*
X253305000Y-183922500D03*
%TD*%
D13*
%TO.C,LD3*%
X258947500Y-165855000D03*
X258947500Y-166805000D03*
X258947500Y-167755000D03*
X261222500Y-167755000D03*
X261222500Y-166805000D03*
X261222500Y-165855000D03*
%TD*%
D52*
%TO.C,R47*%
X244460000Y-129847500D03*
X244460000Y-128827500D03*
%TD*%
D25*
%TO.C,C106*%
X255785000Y-201560000D03*
X255785000Y-200600000D03*
%TD*%
D11*
%TO.C,C94*%
X280320000Y-146505000D03*
X279360000Y-146505000D03*
%TD*%
%TO.C,C65*%
X228615000Y-178930000D03*
X227655000Y-178930000D03*
%TD*%
D17*
%TO.C,R54*%
X222035000Y-176050000D03*
X223685000Y-176050000D03*
%TD*%
D16*
%TO.C,49*%
X293624000Y-149616000D03*
%TD*%
D25*
%TO.C,C86*%
X263760000Y-179810000D03*
X263760000Y-178850000D03*
%TD*%
D16*
%TO.C,71*%
X293624000Y-237616000D03*
%TD*%
D50*
%TO.C,LD2*%
X253072500Y-165717500D03*
X253072500Y-164767500D03*
X253072500Y-163817500D03*
X250797500Y-163817500D03*
X250797500Y-164767500D03*
X250797500Y-165717500D03*
%TD*%
D11*
%TO.C,C15*%
X237740000Y-163255000D03*
X236780000Y-163255000D03*
%TD*%
D14*
%TO.C,J13*%
X320954633Y-229083844D03*
D15*
X320954633Y-231623844D03*
X320954633Y-234163843D03*
X320954633Y-236703844D03*
X320954633Y-239243844D03*
X320954633Y-241783844D03*
X320954633Y-244323844D03*
X320954633Y-246863845D03*
%TD*%
D16*
%TO.C,66*%
X293624000Y-217616000D03*
%TD*%
%TO.C,REF\u002A\u002A*%
X182372000Y-254000000D03*
%TD*%
%TO.C,44*%
X293624000Y-129616000D03*
%TD*%
%TO.C,58*%
X293624000Y-185616000D03*
%TD*%
%TO.C,60*%
X375734000Y-191008000D03*
%TD*%
D29*
%TO.C,R35*%
X212790000Y-135240000D03*
X212790000Y-136890000D03*
%TD*%
D17*
%TO.C,R68*%
X274835000Y-130355000D03*
X276485000Y-130355000D03*
%TD*%
D29*
%TO.C,R53*%
X216285000Y-215470000D03*
X216285000Y-217120000D03*
%TD*%
D16*
%TO.C,47*%
X293624000Y-141616000D03*
%TD*%
D11*
%TO.C,C91*%
X273710000Y-166932500D03*
X272750000Y-166932500D03*
%TD*%
D42*
%TO.C,BOOT0*%
X218910000Y-181480000D03*
%TD*%
D27*
%TO.C,R85*%
X261495000Y-188650000D03*
X259845000Y-188650000D03*
%TD*%
D44*
%TO.C,BUF9*%
X267947500Y-185482500D03*
X267947500Y-185982500D03*
X267947500Y-186482500D03*
X269372500Y-186482500D03*
X269372500Y-185482500D03*
%TD*%
D16*
%TO.C,52*%
X293624000Y-161616000D03*
%TD*%
D25*
%TO.C,C29*%
X206760000Y-130830000D03*
X206760000Y-129870000D03*
%TD*%
D16*
%TO.C,63*%
X293624000Y-205616000D03*
%TD*%
D30*
%TO.C,J7*%
X360208000Y-167896002D03*
D15*
X357668000Y-167896002D03*
X355128001Y-167896002D03*
X352588000Y-167896002D03*
X350048000Y-167896002D03*
X347508000Y-167896002D03*
X344968000Y-167896002D03*
X342427999Y-167896002D03*
%TD*%
D12*
%TO.C,R24*%
X213310000Y-146855000D03*
X213310000Y-145205000D03*
%TD*%
D53*
%TO.C,Y1*%
X222860000Y-182580000D03*
X222860000Y-186980000D03*
X225260000Y-186980000D03*
X225260000Y-182580000D03*
%TD*%
D38*
%TO.C,SWD*%
X318944633Y-261563846D03*
D15*
X318944633Y-259023846D03*
X318944633Y-256483847D03*
X318944633Y-253943846D03*
%TD*%
D16*
%TO.C,46*%
X293624000Y-137616000D03*
%TD*%
D54*
%TO.C,TRGT_PWR_EN*%
X218460001Y-168605002D03*
X218460001Y-176554998D03*
X213959999Y-168605002D03*
X213959999Y-176554998D03*
%TD*%
D12*
%TO.C,R5*%
X208360000Y-162005000D03*
X208360000Y-160355000D03*
%TD*%
D55*
%TO.C,C2*%
X213910000Y-162230000D03*
X215460000Y-162230000D03*
%TD*%
D17*
%TO.C,R64*%
X262635000Y-184030000D03*
X264285000Y-184030000D03*
%TD*%
D12*
%TO.C,R40*%
X220110000Y-222770000D03*
X220110000Y-221120000D03*
%TD*%
D14*
%TO.C,J11*%
X324724632Y-227763846D03*
D15*
X324724632Y-230303846D03*
X324724632Y-232843845D03*
X324724632Y-235383846D03*
X324724632Y-237923846D03*
X324724632Y-240463846D03*
X324724632Y-243003846D03*
X324724632Y-245543847D03*
X324724632Y-248083846D03*
%TD*%
D11*
%TO.C,C12*%
X213090000Y-128680000D03*
X212130000Y-128680000D03*
%TD*%
D16*
%TO.C,43*%
X307734000Y-191008000D03*
%TD*%
D56*
%TO.C,DEC1*%
X270862750Y-175654999D03*
X270862750Y-175005001D03*
X270862750Y-174354999D03*
X270862750Y-173705001D03*
X270862750Y-173055002D03*
X270862750Y-172405001D03*
X270862750Y-171755002D03*
X270862750Y-171105001D03*
X264957250Y-171105001D03*
X264957250Y-171754999D03*
X264957250Y-172405001D03*
X264957250Y-173054999D03*
X264957250Y-173704998D03*
X264957250Y-174354999D03*
X264957250Y-175004998D03*
X264957250Y-175654999D03*
%TD*%
D17*
%TO.C,R18*%
X208685000Y-129330000D03*
X210335000Y-129330000D03*
%TD*%
D16*
%TO.C,62*%
X293624000Y-201616000D03*
%TD*%
%TO.C,55*%
X355734000Y-191008000D03*
%TD*%
D27*
%TO.C,R79*%
X276295000Y-145480000D03*
X274645000Y-145480000D03*
%TD*%
D16*
%TO.C,70*%
X293624000Y-233616000D03*
%TD*%
D12*
%TO.C,R39*%
X220035000Y-235025000D03*
X220035000Y-233375000D03*
%TD*%
D16*
%TO.C,67*%
X293624000Y-221616000D03*
%TD*%
D44*
%TO.C,INV1*%
X217197500Y-164505000D03*
X217197500Y-165005000D03*
X217197500Y-165505000D03*
X218622500Y-165505000D03*
X218622500Y-164505000D03*
%TD*%
D11*
%TO.C,C87*%
X255060000Y-186460000D03*
X254100000Y-186460000D03*
%TD*%
D19*
%TO.C,C36*%
X231350000Y-131910000D03*
X231350000Y-128960000D03*
%TD*%
D16*
%TO.C,61*%
X293624000Y-197616000D03*
%TD*%
D38*
%TO.C,J1*%
X328168000Y-152146001D03*
D15*
X328168000Y-149606001D03*
X328168000Y-147066002D03*
X328168000Y-144526001D03*
X328168000Y-141986001D03*
X328168000Y-139446001D03*
X328168000Y-136906001D03*
X328168000Y-134366000D03*
%TD*%
D50*
%TO.C,LD7*%
X275935000Y-165555000D03*
X275935000Y-164605000D03*
X275935000Y-163655000D03*
X273660000Y-163655000D03*
X273660000Y-164605000D03*
X273660000Y-165555000D03*
%TD*%
D57*
%TO.C,SW_BOOT0*%
X214885000Y-189217500D03*
X214885000Y-191717500D03*
X214885000Y-194217500D03*
%TD*%
D21*
%TO.C,C24*%
X212010000Y-138250000D03*
X212010000Y-139210000D03*
%TD*%
D14*
%TO.C,SWD*%
X372948000Y-154166001D03*
D15*
X372948000Y-156706001D03*
X372948000Y-159246000D03*
X372948000Y-161786001D03*
%TD*%
D58*
%TO.C,AND4*%
X273722500Y-170917500D03*
X274672500Y-170917500D03*
X275622500Y-170917500D03*
X275622500Y-168642500D03*
X273722500Y-168642500D03*
%TD*%
D42*
%TO.C,1V8*%
X241160000Y-134337500D03*
%TD*%
D44*
%TO.C,BUF5*%
X264097500Y-191927500D03*
X264097500Y-192427500D03*
X264097500Y-192927500D03*
X265522500Y-192927500D03*
X265522500Y-191927500D03*
%TD*%
D19*
%TO.C,C16*%
X216436050Y-132087500D03*
X216436050Y-129137500D03*
%TD*%
D18*
%TO.C,INV2*%
X255697500Y-147655000D03*
X255697500Y-147155000D03*
X255697500Y-146655000D03*
X254272500Y-146655000D03*
X254272500Y-147655000D03*
%TD*%
D58*
%TO.C,U-ESD1*%
X197210000Y-136092500D03*
X199110000Y-136092500D03*
X198160000Y-133817500D03*
%TD*%
D30*
%TO.C,J10*%
X360284633Y-203633845D03*
D15*
X357744633Y-203633845D03*
X355204634Y-203633845D03*
X352664633Y-203633845D03*
X350124633Y-203633845D03*
X347584633Y-203633845D03*
X345044633Y-203633845D03*
X342504632Y-203633845D03*
%TD*%
D19*
%TO.C,C1*%
X200360000Y-144505000D03*
X200360000Y-141555000D03*
%TD*%
D38*
%TO.C,J2*%
X321898000Y-152226001D03*
D15*
X321898000Y-149686001D03*
X321898000Y-147146002D03*
X321898000Y-144606001D03*
X321898000Y-142066001D03*
X321898000Y-139526001D03*
X321898000Y-136986001D03*
X321898000Y-134446000D03*
%TD*%
D16*
%TO.C,REF\u002A\u002A*%
X287020000Y-254000000D03*
%TD*%
D12*
%TO.C,R55*%
X226810000Y-192630000D03*
X226810000Y-190980000D03*
%TD*%
D59*
%TO.C,INV7*%
X280360000Y-149192500D03*
X280860000Y-149192500D03*
X281360000Y-149192500D03*
X281360000Y-147767500D03*
X280360000Y-147767500D03*
%TD*%
D16*
%TO.C,54*%
X293624000Y-169616000D03*
%TD*%
%TO.C,69*%
X293624000Y-229616000D03*
%TD*%
D25*
%TO.C,C42*%
X224470000Y-142190000D03*
X224470000Y-141230000D03*
%TD*%
D12*
%TO.C,R43*%
X226535000Y-135187500D03*
X226535000Y-133537500D03*
%TD*%
D60*
%TO.C,Q_OVP1*%
X232845000Y-155855000D03*
X232845000Y-153955000D03*
X230725000Y-154905000D03*
%TD*%
D16*
%TO.C,48*%
X293624000Y-145616000D03*
%TD*%
D54*
%TO.C,RESET*%
X216290001Y-205567502D03*
X216290001Y-213517498D03*
X211789999Y-205567502D03*
X211789999Y-213517498D03*
%TD*%
D11*
%TO.C,C66*%
X239740000Y-197617500D03*
X238780000Y-197617500D03*
%TD*%
D27*
%TO.C,R80*%
X276245000Y-147380000D03*
X274595000Y-147380000D03*
%TD*%
D23*
%TO.C,C63*%
X254710000Y-177455000D03*
X254710000Y-175905000D03*
%TD*%
D16*
%TO.C,56*%
X293624000Y-177616000D03*
%TD*%
D55*
%TO.C,C62*%
X249260000Y-198980000D03*
X250810000Y-198980000D03*
%TD*%
D27*
%TO.C,R72*%
X276335000Y-137630000D03*
X274685000Y-137630000D03*
%TD*%
D17*
%TO.C,R75*%
X262682500Y-187180000D03*
X264332500Y-187180000D03*
%TD*%
D61*
%TO.C,AND1*%
X226810000Y-162492500D03*
X225860000Y-162492500D03*
X224910000Y-162492500D03*
X224910000Y-164767500D03*
X226810000Y-164767500D03*
%TD*%
D16*
%TO.C,52*%
X343734000Y-191008000D03*
%TD*%
D11*
%TO.C,C59*%
X243740000Y-172867500D03*
X242780000Y-172867500D03*
%TD*%
D27*
%TO.C,R78*%
X264335000Y-185580000D03*
X262685000Y-185580000D03*
%TD*%
D17*
%TO.C,R81*%
X267835000Y-192860000D03*
X269485000Y-192860000D03*
%TD*%
D22*
%TO.C,C88*%
X254680000Y-195130000D03*
X255640000Y-195130000D03*
%TD*%
D62*
%TO.C,BAT1*%
X206030000Y-231020000D03*
X190290000Y-175820000D03*
D63*
X206030000Y-167620000D03*
D64*
X198160000Y-239840000D03*
X198160000Y-167620000D03*
%TD*%
D16*
%TO.C,REF\u002A\u002A*%
X392415633Y-99366845D03*
%TD*%
%TO.C,72*%
X293624000Y-241616000D03*
%TD*%
D65*
%TO.C,PWR_MUX1*%
X208185002Y-147955000D03*
X208885001Y-147955000D03*
D66*
X209660000Y-148030001D03*
X209660000Y-147530000D03*
X209660000Y-147030000D03*
X209660000Y-146529999D03*
D65*
X208885001Y-146605000D03*
X208185002Y-146605000D03*
D66*
X207360002Y-146529999D03*
X207360002Y-147030000D03*
X207360002Y-147530000D03*
X207360002Y-148030001D03*
%TD*%
D17*
%TO.C,R49*%
X229485000Y-206855000D03*
X231135000Y-206855000D03*
%TD*%
D12*
%TO.C,R3*%
X210560000Y-162005000D03*
X210560000Y-160355000D03*
%TD*%
D16*
%TO.C,59*%
X371734000Y-191008000D03*
%TD*%
D17*
%TO.C,R2*%
X209135000Y-154780000D03*
X210785000Y-154780000D03*
%TD*%
D22*
%TO.C,C49*%
X245580000Y-129837500D03*
X246540000Y-129837500D03*
%TD*%
D29*
%TO.C,R21*%
X228360000Y-151580000D03*
X228360000Y-153230000D03*
%TD*%
D67*
%TO.C,R48*%
X243420000Y-128862500D03*
X242400000Y-128862500D03*
%TD*%
D14*
%TO.C,LQFP64_USART1*%
X330718000Y-162826002D03*
D15*
X330718000Y-165366002D03*
X330718000Y-167906001D03*
X330718000Y-170446002D03*
%TD*%
D16*
%TO.C,44*%
X311734000Y-191008000D03*
%TD*%
D68*
%TO.C,BUF12*%
X259360000Y-175730000D03*
X258860000Y-175730000D03*
X258360000Y-175730000D03*
X258360000Y-177155000D03*
X259360000Y-177155000D03*
%TD*%
D30*
%TO.C,J8*%
X360298001Y-173626001D03*
D15*
X357758001Y-173626001D03*
X355218002Y-173626001D03*
X352678001Y-173626001D03*
X350138001Y-173626001D03*
X347598001Y-173626001D03*
X345058001Y-173626001D03*
X342518000Y-173626001D03*
%TD*%
D29*
%TO.C,R33*%
X218910000Y-154005000D03*
X218910000Y-155655000D03*
%TD*%
D16*
%TO.C,41*%
X300100000Y-191120000D03*
%TD*%
D17*
%TO.C,R59*%
X256135000Y-191500000D03*
X257785000Y-191500000D03*
%TD*%
D69*
%TO.C,L_BST1*%
X201275000Y-135380000D03*
X203645000Y-135380000D03*
%TD*%
D70*
%TO.C,LBK-1*%
X229360000Y-136787500D03*
X229360000Y-142237500D03*
%TD*%
D16*
%TO.C,75*%
X293624000Y-253616000D03*
%TD*%
D22*
%TO.C,C21*%
X241100000Y-164360000D03*
X242060000Y-164360000D03*
%TD*%
D71*
%TO.C,OR1*%
X252022500Y-173130000D03*
X252022500Y-173780000D03*
X252022500Y-174430000D03*
X253697500Y-174430000D03*
X253697500Y-173130000D03*
%TD*%
D16*
%TO.C,REF\u002A\u002A*%
X287020000Y-125984000D03*
%TD*%
D12*
%TO.C,R23*%
X213310000Y-143605000D03*
X213310000Y-141955000D03*
%TD*%
D25*
%TO.C,C93*%
X262210000Y-196710000D03*
X262210000Y-195750000D03*
%TD*%
D72*
%TO.C,C82*%
X277732500Y-165555000D03*
X277732500Y-167105000D03*
%TD*%
D16*
%TO.C,73*%
X293624000Y-245616000D03*
%TD*%
D59*
%TO.C,BUF6*%
X256160000Y-177142500D03*
X256660000Y-177142500D03*
X257160000Y-177142500D03*
X257160000Y-175717500D03*
X256160000Y-175717500D03*
%TD*%
D52*
%TO.C,R10*%
X206460000Y-161790000D03*
X206460000Y-160770000D03*
%TD*%
D55*
%TO.C,C7*%
X243060000Y-151880000D03*
X244610000Y-151880000D03*
%TD*%
D30*
%TO.C,J8*%
X361554633Y-211253845D03*
D15*
X359014633Y-211253845D03*
X356474634Y-211253845D03*
X353934633Y-211253845D03*
X351394633Y-211253845D03*
X348854633Y-211253845D03*
X346314633Y-211253845D03*
X343774632Y-211253845D03*
X341234633Y-211253845D03*
%TD*%
D22*
%TO.C,C51*%
X251480000Y-207167500D03*
X252440000Y-207167500D03*
%TD*%
D16*
%TO.C,54*%
X351734000Y-191008000D03*
%TD*%
D27*
%TO.C,R9*%
X218460000Y-178705000D03*
X216810000Y-178705000D03*
%TD*%
D73*
%TO.C,C37*%
X216410000Y-134462500D03*
X216410000Y-137412500D03*
%TD*%
D16*
%TO.C,65*%
X293624000Y-213616000D03*
%TD*%
D27*
%TO.C,R50*%
X250585000Y-212380000D03*
X248935000Y-212380000D03*
%TD*%
D16*
%TO.C,45*%
X293624000Y-133616000D03*
%TD*%
D21*
%TO.C,C40*%
X229260000Y-133507500D03*
X229260000Y-134467500D03*
%TD*%
D12*
%TO.C,R8*%
X209935000Y-176605000D03*
X209935000Y-174955000D03*
%TD*%
%TO.C,R36*%
X214440000Y-136860000D03*
X214440000Y-135210000D03*
%TD*%
D74*
%TO.C,OR4*%
X254660000Y-192342500D03*
X254010000Y-192342500D03*
X253360000Y-192342500D03*
X253360000Y-194017500D03*
X254660000Y-194017500D03*
%TD*%
D13*
%TO.C,SPST2*%
X273547500Y-131980000D03*
X273547500Y-132930000D03*
X273547500Y-133880000D03*
X275822500Y-133880000D03*
X275822500Y-131980000D03*
%TD*%
D12*
%TO.C,R30*%
X245710000Y-162330000D03*
X245710000Y-160680000D03*
%TD*%
D38*
%TO.C,USART1*%
X325344632Y-261483845D03*
D15*
X325344632Y-258943845D03*
X325344632Y-256403846D03*
X325344632Y-253863845D03*
%TD*%
D22*
%TO.C,C26*%
X253905000Y-148680000D03*
X254865000Y-148680000D03*
%TD*%
D12*
%TO.C,R1*%
X197160000Y-139730000D03*
X197160000Y-138080000D03*
%TD*%
D28*
%TO.C,J16*%
X342504631Y-272213845D03*
D15*
X345044631Y-272213845D03*
X347584630Y-272213845D03*
X350124631Y-272213845D03*
X352664631Y-272213845D03*
X355204631Y-272213845D03*
X357744631Y-272213845D03*
X360284632Y-272213845D03*
%TD*%
D25*
%TO.C,C56*%
X253210000Y-188460000D03*
X253210000Y-187500000D03*
%TD*%
D55*
%TO.C,C72*%
X223410000Y-189377500D03*
X224960000Y-189377500D03*
%TD*%
D25*
%TO.C,C74*%
X254960000Y-173160000D03*
X254960000Y-172200000D03*
%TD*%
D38*
%TO.C,J6*%
X378064633Y-248083845D03*
D15*
X378064633Y-245543845D03*
X378064633Y-243003846D03*
X378064633Y-240463845D03*
X378064633Y-237923845D03*
X378064633Y-235383845D03*
X378064633Y-232843845D03*
X378064633Y-230303844D03*
X378064633Y-227763845D03*
%TD*%
D21*
%TO.C,C25*%
X208910000Y-138650000D03*
X208910000Y-139610000D03*
%TD*%
D43*
%TO.C,C27*%
X201310000Y-131330000D03*
X201310000Y-129430000D03*
%TD*%
D75*
%TO.C,LS2*%
X257910000Y-196012500D03*
X257910000Y-196512500D03*
X257910000Y-197012500D03*
X257910000Y-197512500D03*
X260710000Y-197512500D03*
X260710000Y-197012500D03*
X260710000Y-196512500D03*
X260710000Y-196012500D03*
%TD*%
D17*
%TO.C,R61*%
X245685000Y-172380000D03*
X247335000Y-172380000D03*
%TD*%
D12*
%TO.C,R6*%
X185350000Y-150825000D03*
X185350000Y-149175000D03*
%TD*%
D16*
%TO.C,74*%
X293624000Y-249616000D03*
%TD*%
%TO.C,J_SOCKET_64_1*%
X362568000Y-132896002D03*
X340568000Y-132896002D03*
X362568000Y-154896002D03*
X340568000Y-154896002D03*
D76*
X355318000Y-132316002D03*
D41*
X354818000Y-134856002D03*
X354318000Y-137396002D03*
X353818000Y-132316002D03*
X353318000Y-134856002D03*
X352818000Y-137396001D03*
X352318001Y-132316002D03*
X351818000Y-134856002D03*
X351318000Y-137396002D03*
X350817999Y-132316002D03*
X350318000Y-134856002D03*
X349818000Y-137396002D03*
X349318000Y-132316002D03*
X348818000Y-134856002D03*
X348318000Y-137396002D03*
X347818000Y-132316002D03*
X339988000Y-140146002D03*
X342528000Y-140646002D03*
X345068000Y-141146002D03*
X339988000Y-141646002D03*
X342528000Y-142146002D03*
X345067999Y-142646002D03*
X339988000Y-143146001D03*
X342528000Y-143646002D03*
X345068000Y-144146002D03*
X339988000Y-144646003D03*
X342528000Y-145146002D03*
X345068000Y-145646002D03*
X339988000Y-146146002D03*
X342528000Y-146646002D03*
X345068000Y-147146002D03*
X339988000Y-147646002D03*
X347818000Y-155476002D03*
X348318000Y-152936002D03*
X348818000Y-150396002D03*
X349318000Y-155476002D03*
X349818000Y-152936002D03*
X350318000Y-150396003D03*
X350817999Y-155476002D03*
X351318000Y-152936002D03*
X351818000Y-150396002D03*
X352318001Y-155476002D03*
X352818000Y-152936002D03*
X353318000Y-150396002D03*
X353818000Y-155476002D03*
X354318000Y-152936002D03*
X354818000Y-150396002D03*
X355318000Y-155476002D03*
X363148000Y-147646002D03*
X360608000Y-147146002D03*
X358068000Y-146646002D03*
X363148000Y-146146002D03*
X360608000Y-145646002D03*
X358068001Y-145146002D03*
X363148000Y-144646003D03*
X360608000Y-144146002D03*
X358068000Y-143646002D03*
X363148000Y-143146001D03*
X360608000Y-142646002D03*
X358068000Y-142146002D03*
X363148000Y-141646002D03*
X360608000Y-141146002D03*
X358068000Y-140646002D03*
X363148000Y-140146002D03*
%TD*%
D25*
%TO.C,C52*%
X227030000Y-184352500D03*
X227030000Y-183392500D03*
%TD*%
D12*
%TO.C,R32*%
X204710000Y-149805000D03*
X204710000Y-148155000D03*
%TD*%
D17*
%TO.C,R77*%
X260477500Y-192930000D03*
X262127500Y-192930000D03*
%TD*%
D11*
%TO.C,C61*%
X244740000Y-197567500D03*
X243780000Y-197567500D03*
%TD*%
D25*
%TO.C,C38*%
X237360000Y-131817500D03*
X237360000Y-130857500D03*
%TD*%
D44*
%TO.C,INV5*%
X256010000Y-149380000D03*
X256010000Y-149880000D03*
X256010000Y-150380000D03*
X257435000Y-150380000D03*
X257435000Y-149380000D03*
%TD*%
D50*
%TO.C,LD6*%
X275695000Y-155403750D03*
X275695000Y-154453750D03*
X275695000Y-153503750D03*
X273420000Y-153503750D03*
X273420000Y-154453750D03*
X273420000Y-155403750D03*
%TD*%
D16*
%TO.C,51*%
X293624000Y-157616000D03*
%TD*%
D17*
%TO.C,R74*%
X260477500Y-194530000D03*
X262127500Y-194530000D03*
%TD*%
D43*
%TO.C,C11*%
X205010000Y-131300000D03*
X205010000Y-129400000D03*
%TD*%
D19*
%TO.C,C14*%
X219011050Y-132087500D03*
X219011050Y-129137500D03*
%TD*%
D16*
%TO.C,58*%
X367734001Y-191008000D03*
%TD*%
D25*
%TO.C,C5*%
X212085000Y-176560000D03*
X212085000Y-175600000D03*
%TD*%
D27*
%TO.C,R69*%
X269485000Y-196830000D03*
X267835000Y-196830000D03*
%TD*%
D16*
%TO.C,60*%
X293624000Y-193616000D03*
%TD*%
D44*
%TO.C,BUF3*%
X253197500Y-201580000D03*
X253197500Y-202080000D03*
X253197500Y-202580000D03*
X254622500Y-202580000D03*
X254622500Y-201580000D03*
%TD*%
D11*
%TO.C,C41*%
X243140000Y-132662500D03*
X242180000Y-132662500D03*
%TD*%
D13*
%TO.C,LD5*%
X258532500Y-156167500D03*
X258532500Y-157117500D03*
X258532500Y-158067500D03*
X260807500Y-158067500D03*
X260807500Y-157117500D03*
X260807500Y-156167500D03*
%TD*%
D11*
%TO.C,C32*%
X246965000Y-146230000D03*
X246005000Y-146230000D03*
%TD*%
D21*
%TO.C,C64*%
X233060000Y-197400000D03*
X233060000Y-198360000D03*
%TD*%
D12*
%TO.C,R7*%
X199060000Y-139730000D03*
X199060000Y-138080000D03*
%TD*%
D31*
%TO.C,FB1*%
X223435000Y-191042500D03*
X223435000Y-192617500D03*
%TD*%
D38*
%TO.C,J5*%
X381928000Y-151236002D03*
D15*
X381928000Y-148696002D03*
X381928000Y-146156003D03*
X381928000Y-143616002D03*
X381928000Y-141076002D03*
X381928000Y-138536002D03*
X381928000Y-135996002D03*
X381928000Y-133456001D03*
%TD*%
D77*
%TO.C,C6*%
X214335000Y-152280000D03*
X211385000Y-152280000D03*
%TD*%
D30*
%TO.C,J3*%
X360978000Y-120256002D03*
D15*
X358438000Y-120256002D03*
X355898001Y-120256002D03*
X353358000Y-120256002D03*
X350818000Y-120256002D03*
X348278000Y-120256002D03*
X345738000Y-120256002D03*
X343197999Y-120256002D03*
%TD*%
D21*
%TO.C,C39*%
X222185000Y-135632500D03*
X222185000Y-136592500D03*
%TD*%
D78*
%TO.C,L_BK1*%
X241110000Y-139530000D03*
X245110000Y-139530000D03*
%TD*%
D12*
%TO.C,R41*%
X219835000Y-241675000D03*
X219835000Y-240025000D03*
%TD*%
%TO.C,R86*%
X278820000Y-150977500D03*
X278820000Y-149327500D03*
%TD*%
D61*
%TO.C,AND3*%
X260945000Y-160541250D03*
X259995000Y-160541250D03*
X259045000Y-160541250D03*
X259045000Y-162816250D03*
X260945000Y-162816250D03*
%TD*%
D16*
%TO.C,68*%
X293624000Y-225616000D03*
%TD*%
D13*
%TO.C,LD4*%
X252307500Y-158303750D03*
X252307500Y-159253750D03*
X252307500Y-160203750D03*
X254582500Y-160203750D03*
X254582500Y-159253750D03*
X254582500Y-158303750D03*
%TD*%
D25*
%TO.C,C54*%
X253385000Y-176447500D03*
X253385000Y-175487500D03*
%TD*%
D21*
%TO.C,C22*%
X206160000Y-147700000D03*
X206160000Y-148660000D03*
%TD*%
D12*
%TO.C,R27*%
X215010000Y-146905000D03*
X215010000Y-145255000D03*
%TD*%
D49*
%TO.C,C31*%
X220685000Y-143605000D03*
X219135000Y-143605000D03*
%TD*%
D42*
%TO.C,VSYS*%
X198860000Y-128980000D03*
%TD*%
D11*
%TO.C,C33*%
X218465000Y-145280000D03*
X217505000Y-145280000D03*
%TD*%
D16*
%TO.C,50*%
X335734001Y-191008000D03*
%TD*%
D44*
%TO.C,BUF4*%
X258887500Y-186270000D03*
X258887500Y-186770000D03*
X258887500Y-187270000D03*
X260312500Y-187270000D03*
X260312500Y-186270000D03*
%TD*%
D50*
%TO.C,SPST1*%
X261547500Y-152305000D03*
X261547500Y-151355000D03*
X261547500Y-150405000D03*
X259272500Y-150405000D03*
X259272500Y-152305000D03*
%TD*%
D22*
%TO.C,C20*%
X209000000Y-149380000D03*
X209960000Y-149380000D03*
%TD*%
D44*
%TO.C,BUF10*%
X257092500Y-189180000D03*
X257092500Y-189680000D03*
X257092500Y-190180000D03*
X258517500Y-190180000D03*
X258517500Y-189180000D03*
%TD*%
D16*
%TO.C,62*%
X383734000Y-191008000D03*
%TD*%
D17*
%TO.C,R52*%
X211790000Y-215625000D03*
X213440000Y-215625000D03*
%TD*%
D16*
%TO.C,51*%
X339734000Y-191008000D03*
%TD*%
D73*
%TO.C,C35*%
X219185000Y-134537500D03*
X219185000Y-137487500D03*
%TD*%
D29*
%TO.C,R42*%
X219760000Y-227745000D03*
X219760000Y-229395000D03*
%TD*%
D25*
%TO.C,C84*%
X258010000Y-180325000D03*
X258010000Y-179365000D03*
%TD*%
D16*
%TO.C,47*%
X323734000Y-191008000D03*
%TD*%
D79*
%TO.C,BOOT0_LED*%
X223637500Y-178960000D03*
X222062500Y-178960000D03*
%TD*%
D75*
%TO.C,LS1*%
X259510000Y-179295000D03*
X259510000Y-179795000D03*
X259510000Y-180295000D03*
X259510000Y-180795000D03*
X262310000Y-180795000D03*
X262310000Y-180295000D03*
X262310000Y-179795000D03*
X262310000Y-179295000D03*
%TD*%
D29*
%TO.C,R34*%
X206160000Y-133955000D03*
X206160000Y-135605000D03*
%TD*%
D28*
%TO.C,J15*%
X342504630Y-268403845D03*
D15*
X345044630Y-268403845D03*
X347584629Y-268403845D03*
X350124630Y-268403845D03*
X352664630Y-268403845D03*
X355204630Y-268403845D03*
X357744630Y-268403845D03*
X360284631Y-268403845D03*
%TD*%
D71*
%TO.C,OR2*%
X259172500Y-202530000D03*
X259172500Y-203180000D03*
X259172500Y-203830000D03*
X260847500Y-203830000D03*
X260847500Y-202530000D03*
%TD*%
D27*
%TO.C,R60*%
X221710000Y-237500000D03*
X220060000Y-237500000D03*
%TD*%
D80*
%TO.C,VTGT_1V1*%
X251540000Y-148155000D03*
X251540000Y-147205000D03*
X251540000Y-146255000D03*
X249030000Y-146255000D03*
X249030000Y-147205000D03*
X249030000Y-148155000D03*
%TD*%
D81*
%TO.C,D3*%
X252190000Y-196430000D03*
X253030000Y-196430000D03*
%TD*%
D58*
%TO.C,AND2*%
X232635000Y-164480000D03*
X233585000Y-164480000D03*
X234535000Y-164480000D03*
X234535000Y-162205000D03*
X232635000Y-162205000D03*
%TD*%
D72*
%TO.C,C76*%
X254860000Y-165730000D03*
X254860000Y-167280000D03*
%TD*%
D12*
%TO.C,R12*%
X247010000Y-152580000D03*
X247010000Y-150930000D03*
%TD*%
D58*
%TO.C,OVP1*%
X221860000Y-157955000D03*
X222810000Y-157955000D03*
X223760000Y-157955000D03*
X223760000Y-155680000D03*
X222810000Y-155680000D03*
X221860000Y-155680000D03*
%TD*%
D16*
%TO.C,40*%
X296610000Y-191150000D03*
%TD*%
D12*
%TO.C,R13*%
X202510000Y-157055000D03*
X202510000Y-155405000D03*
%TD*%
D18*
%TO.C,BUF11*%
X258122500Y-172082500D03*
X258122500Y-171582500D03*
X258122500Y-171082500D03*
X256697500Y-171082500D03*
X256697500Y-172082500D03*
%TD*%
D27*
%TO.C,R90*%
X274485000Y-173480000D03*
X272835000Y-173480000D03*
%TD*%
D16*
%TO.C,45*%
X315734000Y-191008000D03*
%TD*%
D82*
%TO.C,1V8_EN*%
X213910000Y-221830000D03*
X213910000Y-228630000D03*
D83*
X216660000Y-222730000D03*
X216660000Y-225230000D03*
X216660000Y-227730000D03*
%TD*%
D44*
%TO.C,BOOST1*%
X211897500Y-129780000D03*
X211897500Y-130280000D03*
X211897500Y-130780000D03*
X213322500Y-130780000D03*
X213322500Y-130280000D03*
X213322500Y-129780000D03*
%TD*%
D16*
%TO.C,59*%
X293440000Y-189490000D03*
%TD*%
%TO.C,43*%
X293624000Y-125616000D03*
%TD*%
D72*
%TO.C,C18*%
X239110000Y-163405000D03*
X239110000Y-164955000D03*
%TD*%
D20*
%TO.C,D2*%
X245680000Y-170780000D03*
X244840000Y-170780000D03*
%TD*%
D23*
%TO.C,C70*%
X225095000Y-192622500D03*
X225095000Y-191072500D03*
%TD*%
D72*
%TO.C,C81*%
X277612500Y-155391250D03*
X277612500Y-156941250D03*
%TD*%
D17*
%TO.C,R19*%
X235985000Y-165820000D03*
X237635000Y-165820000D03*
%TD*%
%TO.C,R87*%
X259745000Y-135507250D03*
X261395000Y-135507250D03*
%TD*%
D38*
%TO.C,J6*%
X387678000Y-151186001D03*
D15*
X387678000Y-148646001D03*
X387678000Y-146106002D03*
X387678000Y-143566001D03*
X387678000Y-141026001D03*
X387678000Y-138486001D03*
X387678000Y-135946001D03*
X387678000Y-133406000D03*
%TD*%
D17*
%TO.C,R62*%
X254385000Y-180540000D03*
X256035000Y-180540000D03*
%TD*%
D80*
%TO.C,OCP1*%
X245215000Y-155355000D03*
X245215000Y-154405000D03*
X245215000Y-153455000D03*
X242705000Y-153455000D03*
X242705000Y-154405000D03*
X242705000Y-155355000D03*
%TD*%
D16*
%TO.C,65*%
X395210000Y-191050000D03*
%TD*%
D43*
%TO.C,C23*%
X205860000Y-139330000D03*
X205860000Y-137430000D03*
%TD*%
D17*
%TO.C,R22*%
X224385000Y-152730000D03*
X226035000Y-152730000D03*
%TD*%
D27*
%TO.C,R76*%
X276335000Y-143280000D03*
X274685000Y-143280000D03*
%TD*%
D84*
%TO.C,EFUSE1*%
X211247500Y-136255000D03*
D85*
X211072500Y-135755000D03*
D84*
X211247500Y-135255000D03*
D85*
X209672500Y-135255000D03*
D84*
X209497500Y-135755000D03*
D85*
X209672500Y-136255000D03*
D86*
X209622500Y-136930000D03*
X210122500Y-136930000D03*
X210622500Y-136930000D03*
X211122500Y-136930000D03*
%TD*%
D17*
%TO.C,R56*%
X254385000Y-179030000D03*
X256035000Y-179030000D03*
%TD*%
D87*
%TO.C,J_CARDX_L_1*%
X270340000Y-128588750D03*
X270340000Y-168718750D03*
D88*
X264805000Y-131400850D03*
X270535000Y-131400850D03*
X264805000Y-131900950D03*
X270535000Y-131900950D03*
X264805000Y-132401050D03*
X270535000Y-132401050D03*
X264805000Y-132901150D03*
X270535000Y-132901150D03*
X264805000Y-133401250D03*
X270535000Y-133401250D03*
X264805000Y-133901350D03*
X270535000Y-133901350D03*
X264805000Y-134401450D03*
X270535000Y-134401450D03*
X264805000Y-134901450D03*
X270535000Y-134901450D03*
X264805000Y-135401550D03*
X270535000Y-135401550D03*
X264805000Y-135901650D03*
X270535000Y-135901650D03*
X264805000Y-136401750D03*
X270535000Y-136401750D03*
X264805000Y-136901950D03*
X270535000Y-136901950D03*
X264805000Y-137402050D03*
X270535000Y-137402050D03*
X264805000Y-137902150D03*
X270535000Y-137902150D03*
X264805000Y-138402250D03*
X270535000Y-138402250D03*
X264805000Y-138902300D03*
X270535000Y-138902300D03*
X264805000Y-139402400D03*
X270535000Y-139402400D03*
X264805000Y-139902500D03*
X270535000Y-139902500D03*
X264805000Y-140402600D03*
X270535000Y-140402600D03*
X264805000Y-140902700D03*
X270535000Y-140902700D03*
X264805000Y-141402800D03*
X270535000Y-141402800D03*
X264805000Y-141902900D03*
X270535000Y-141902900D03*
X264805000Y-142403000D03*
X270535000Y-142403000D03*
X264805000Y-142903100D03*
X270535000Y-142903100D03*
X264805000Y-143403200D03*
X270535000Y-143403200D03*
X264805000Y-143903300D03*
X270535000Y-143903300D03*
X264805000Y-144403400D03*
X270535000Y-144403400D03*
X264805000Y-144903500D03*
X270535000Y-144903500D03*
X264805000Y-145403600D03*
X270535000Y-145403600D03*
X264805000Y-145903700D03*
X270535000Y-145903700D03*
X264805000Y-151403800D03*
X270535000Y-151403800D03*
X264805000Y-151903900D03*
X270535000Y-151903900D03*
X264805000Y-152404000D03*
X270535000Y-152404000D03*
X264805000Y-152904100D03*
X270535000Y-152904100D03*
X264805000Y-153404200D03*
X270535000Y-153404200D03*
X264805000Y-153904300D03*
X270535000Y-153904300D03*
X264805000Y-154404400D03*
X270535000Y-154404400D03*
X264805000Y-154904500D03*
X270535000Y-154904500D03*
X264805000Y-155404600D03*
X270535000Y-155404600D03*
X264805000Y-155904700D03*
X270535000Y-155904700D03*
X264805000Y-156404800D03*
X270535000Y-156404800D03*
X264805000Y-156904900D03*
X270535000Y-156904900D03*
X264805000Y-157405000D03*
X270535000Y-157405000D03*
X264805000Y-157905100D03*
X270535000Y-157905100D03*
X264805000Y-158405200D03*
X270535000Y-158405200D03*
X264805000Y-158905250D03*
X270535000Y-158905250D03*
X264805000Y-159405350D03*
X270535000Y-159405350D03*
X264805000Y-159905450D03*
X270535000Y-159905450D03*
X264805000Y-160405550D03*
X270535000Y-160405550D03*
X264805000Y-160905750D03*
X270535000Y-160905750D03*
X264805000Y-161405850D03*
X270535000Y-161405850D03*
X264805000Y-161905950D03*
X270535000Y-161905950D03*
X264805000Y-162406050D03*
X270535000Y-162406050D03*
X264805000Y-162906050D03*
X270535000Y-162906050D03*
X264805000Y-163406150D03*
X270535000Y-163406150D03*
X264805000Y-163906250D03*
X270535000Y-163906250D03*
X264805000Y-164406350D03*
X270535000Y-164406350D03*
X264805000Y-164906450D03*
X270535000Y-164906450D03*
X264805000Y-165406550D03*
X270535000Y-165406550D03*
X264805000Y-165906650D03*
X270535000Y-165906650D03*
D89*
X267670000Y-130587250D03*
D90*
X267670000Y-135477250D03*
X267670000Y-141827250D03*
D89*
X267670000Y-146717250D03*
X267670000Y-150590250D03*
D90*
X267670000Y-155480250D03*
X267670000Y-161830250D03*
D89*
X267670000Y-166720250D03*
%TD*%
D12*
%TO.C,R26*%
X215060000Y-143605000D03*
X215060000Y-141955000D03*
%TD*%
D91*
%TO.C,OR3*%
X254460000Y-189355000D03*
X255110000Y-189355000D03*
X255760000Y-189355000D03*
X255760000Y-187680000D03*
X254460000Y-187680000D03*
%TD*%
D25*
%TO.C,C8*%
X219710000Y-164500000D03*
X219710000Y-163540000D03*
%TD*%
D12*
%TO.C,R25*%
X221010000Y-152330000D03*
X221010000Y-150680000D03*
%TD*%
%TO.C,R20*%
X235510000Y-155755000D03*
X235510000Y-154105000D03*
%TD*%
D16*
%TO.C,REF\u002A\u002A*%
X182372000Y-125984000D03*
%TD*%
D17*
%TO.C,R67*%
X267835000Y-195230000D03*
X269485000Y-195230000D03*
%TD*%
D12*
%TO.C,R83*%
X272925000Y-149717500D03*
X272925000Y-148067500D03*
%TD*%
D29*
%TO.C,R28*%
X214470000Y-148395000D03*
X214470000Y-150045000D03*
%TD*%
D16*
%TO.C,42*%
X303734001Y-191008000D03*
%TD*%
%TO.C,57*%
X363734001Y-191008000D03*
%TD*%
%TO.C,46*%
X319734000Y-191008000D03*
%TD*%
D17*
%TO.C,R65*%
X262635000Y-182330000D03*
X264285000Y-182330000D03*
%TD*%
D11*
%TO.C,C67*%
X232240000Y-172980000D03*
X231280000Y-172980000D03*
%TD*%
D51*
%TO.C,BAT_CHG*%
X197810000Y-157017500D03*
X197810000Y-155442500D03*
%TD*%
D82*
%TO.C,3.3V_EN*%
X214215000Y-234095000D03*
X214215000Y-240895000D03*
D83*
X216965000Y-234995000D03*
X216965000Y-237495000D03*
X216965000Y-239995000D03*
%TD*%
D16*
%TO.C,49*%
X331734001Y-191008000D03*
%TD*%
D81*
%TO.C,D5*%
X254760000Y-181870000D03*
X255600000Y-181870000D03*
%TD*%
D22*
%TO.C,C57*%
X249980000Y-197680000D03*
X250940000Y-197680000D03*
%TD*%
D16*
%TO.C,64*%
X293624000Y-209616000D03*
%TD*%
D12*
%TO.C,R38*%
X240385000Y-151105000D03*
X240385000Y-149455000D03*
%TD*%
D18*
%TO.C,BUF7*%
X258072500Y-174132500D03*
X258072500Y-173632500D03*
X258072500Y-173132500D03*
X256647500Y-173132500D03*
X256647500Y-174132500D03*
%TD*%
D22*
%TO.C,C28*%
X225630000Y-147580000D03*
X226590000Y-147580000D03*
%TD*%
D30*
%TO.C,J9*%
X360284633Y-207443845D03*
D15*
X357744633Y-207443845D03*
X355204634Y-207443845D03*
X352664633Y-207443845D03*
X350124633Y-207443845D03*
X347584633Y-207443845D03*
X345044633Y-207443845D03*
X342504632Y-207443845D03*
%TD*%
D27*
%TO.C,R66*%
X260535000Y-154055000D03*
X258885000Y-154055000D03*
%TD*%
D80*
%TO.C,VTGT_3V3*%
X222690000Y-147230000D03*
X222690000Y-146280000D03*
X222690000Y-145330000D03*
X220180000Y-145330000D03*
X220180000Y-146280000D03*
X220180000Y-147230000D03*
%TD*%
D21*
%TO.C,C71*%
X228685000Y-192450000D03*
X228685000Y-193410000D03*
%TD*%
D44*
%TO.C,INV4*%
X255212500Y-183280000D03*
X255212500Y-183780000D03*
X255212500Y-184280000D03*
X256637500Y-184280000D03*
X256637500Y-183280000D03*
%TD*%
D16*
%TO.C,63*%
X387734000Y-191008000D03*
%TD*%
D24*
%TO.C,C45*%
X244635000Y-134480000D03*
X247585000Y-134480000D03*
%TD*%
D17*
%TO.C,R58*%
X248285000Y-201280000D03*
X249935000Y-201280000D03*
%TD*%
D28*
%TO.C,J14*%
X341234633Y-264593845D03*
D15*
X343774633Y-264593845D03*
X346314632Y-264593845D03*
X348854633Y-264593845D03*
X351394633Y-264593845D03*
X353934633Y-264593845D03*
X356474633Y-264593845D03*
X359014634Y-264593845D03*
X361554633Y-264593845D03*
%TD*%
D17*
%TO.C,R89*%
X259845000Y-139107250D03*
X261495000Y-139107250D03*
%TD*%
D27*
%TO.C,R15*%
X233560000Y-166230000D03*
X231910000Y-166230000D03*
%TD*%
D16*
%TO.C,53*%
X347734000Y-191008000D03*
%TD*%
%TO.C,REF\u002A\u002A*%
X392415633Y-197918845D03*
%TD*%
D72*
%TO.C,C9*%
X248210000Y-155355000D03*
X248210000Y-156905000D03*
%TD*%
D25*
%TO.C,C55*%
X227045000Y-186952500D03*
X227045000Y-185992500D03*
%TD*%
D22*
%TO.C,C44*%
X235655000Y-137430000D03*
X236615000Y-137430000D03*
%TD*%
D25*
%TO.C,C90*%
X259240000Y-193930000D03*
X259240000Y-192970000D03*
%TD*%
D27*
%TO.C,R17*%
X212610000Y-132280000D03*
X210960000Y-132280000D03*
%TD*%
D87*
%TO.C,LQFP100_DATA_1*%
X305930633Y-218683845D03*
X305930633Y-257163845D03*
%TD*%
%TO.C,LQFP64_DATA_1*%
X306218000Y-126263502D03*
X306218000Y-164743502D03*
%TD*%
M02*
