%TF.GenerationSoftware,KiCad,Pcbnew,10.0.3*%
%TF.CreationDate,2026-07-14T16:43:16-04:00*%
%TF.ProjectId,pcbfiles,70636266-696c-4657-932e-6b696361645f,rev?*%
%TF.SameCoordinates,Original*%
%TF.FileFunction,Legend,Bot*%
%TF.FilePolarity,Positive*%
%FSLAX46Y46*%
G04 Gerber Fmt 4.6, Leading zero omitted, Abs format (unit mm)*
G04 Created by KiCad (PCBNEW 10.0.3) date 2026-07-14 16:43:16*
%MOMM*%
%LPD*%
G01*
G04 APERTURE LIST*
%ADD10C,0.127000*%
%ADD11C,0.150000*%
%ADD12C,0.254000*%
%ADD13C,0.120000*%
%ADD14C,0.200000*%
G04 APERTURE END LIST*
D10*
X336085227Y-242560528D02*
X336115465Y-242590767D01*
X336115465Y-242590767D02*
X336206179Y-242621005D01*
X336206179Y-242621005D02*
X336266655Y-242621005D01*
X336266655Y-242621005D02*
X336357370Y-242590767D01*
X336357370Y-242590767D02*
X336417846Y-242530290D01*
X336417846Y-242530290D02*
X336448084Y-242469814D01*
X336448084Y-242469814D02*
X336478322Y-242348862D01*
X336478322Y-242348862D02*
X336478322Y-242258147D01*
X336478322Y-242258147D02*
X336448084Y-242137195D01*
X336448084Y-242137195D02*
X336417846Y-242076719D01*
X336417846Y-242076719D02*
X336357370Y-242016243D01*
X336357370Y-242016243D02*
X336266655Y-241986005D01*
X336266655Y-241986005D02*
X336206179Y-241986005D01*
X336206179Y-241986005D02*
X336115465Y-242016243D01*
X336115465Y-242016243D02*
X336085227Y-242046481D01*
X335480465Y-242621005D02*
X335843322Y-242621005D01*
X335661894Y-242621005D02*
X335661894Y-241986005D01*
X335661894Y-241986005D02*
X335722370Y-242076719D01*
X335722370Y-242076719D02*
X335782846Y-242137195D01*
X335782846Y-242137195D02*
X335843322Y-242167433D01*
X335238560Y-242046481D02*
X335208322Y-242016243D01*
X335208322Y-242016243D02*
X335147846Y-241986005D01*
X335147846Y-241986005D02*
X334996655Y-241986005D01*
X334996655Y-241986005D02*
X334936179Y-242016243D01*
X334936179Y-242016243D02*
X334905941Y-242046481D01*
X334905941Y-242046481D02*
X334875703Y-242106957D01*
X334875703Y-242106957D02*
X334875703Y-242167433D01*
X334875703Y-242167433D02*
X334905941Y-242258147D01*
X334905941Y-242258147D02*
X335268798Y-242621005D01*
X335268798Y-242621005D02*
X334875703Y-242621005D01*
X334482608Y-241986005D02*
X334422131Y-241986005D01*
X334422131Y-241986005D02*
X334361655Y-242016243D01*
X334361655Y-242016243D02*
X334331417Y-242046481D01*
X334331417Y-242046481D02*
X334301179Y-242106957D01*
X334301179Y-242106957D02*
X334270941Y-242227909D01*
X334270941Y-242227909D02*
X334270941Y-242379100D01*
X334270941Y-242379100D02*
X334301179Y-242500052D01*
X334301179Y-242500052D02*
X334331417Y-242560528D01*
X334331417Y-242560528D02*
X334361655Y-242590767D01*
X334361655Y-242590767D02*
X334422131Y-242621005D01*
X334422131Y-242621005D02*
X334482608Y-242621005D01*
X334482608Y-242621005D02*
X334543084Y-242590767D01*
X334543084Y-242590767D02*
X334573322Y-242560528D01*
X334573322Y-242560528D02*
X334603560Y-242500052D01*
X334603560Y-242500052D02*
X334633798Y-242379100D01*
X334633798Y-242379100D02*
X334633798Y-242227909D01*
X334633798Y-242227909D02*
X334603560Y-242106957D01*
X334603560Y-242106957D02*
X334573322Y-242046481D01*
X334573322Y-242046481D02*
X334543084Y-242016243D01*
X334543084Y-242016243D02*
X334482608Y-241986005D01*
X346346810Y-237216603D02*
X346346810Y-237259366D01*
X346346810Y-237259366D02*
X346389573Y-237344893D01*
X346389573Y-237344893D02*
X346432337Y-237387656D01*
X346432337Y-237387656D02*
X346517863Y-237430419D01*
X346517863Y-237430419D02*
X346603389Y-237430419D01*
X346603389Y-237430419D02*
X346667534Y-237409037D01*
X346667534Y-237409037D02*
X346774442Y-237344893D01*
X346774442Y-237344893D02*
X346838586Y-237280748D01*
X346838586Y-237280748D02*
X346902731Y-237173840D01*
X346902731Y-237173840D02*
X346924112Y-237109696D01*
X346924112Y-237109696D02*
X346924112Y-237024169D01*
X346924112Y-237024169D02*
X346881349Y-236938643D01*
X346881349Y-236938643D02*
X346838586Y-236895880D01*
X346838586Y-236895880D02*
X346753060Y-236853117D01*
X346753060Y-236853117D02*
X346710297Y-236853117D01*
X345876416Y-236831735D02*
X346132995Y-237088314D01*
X346004705Y-236960025D02*
X346453718Y-236511012D01*
X346453718Y-236511012D02*
X346432337Y-236617920D01*
X346432337Y-236617920D02*
X346432337Y-236703446D01*
X346432337Y-236703446D02*
X346453718Y-236767591D01*
X345448785Y-236404104D02*
X345705363Y-236660683D01*
X345577074Y-236532393D02*
X346026087Y-236083380D01*
X346026087Y-236083380D02*
X346004705Y-236190288D01*
X346004705Y-236190288D02*
X346004705Y-236275815D01*
X346004705Y-236275815D02*
X346026087Y-236339959D01*
X345448785Y-235890946D02*
X345512929Y-235912328D01*
X345512929Y-235912328D02*
X345555692Y-235912328D01*
X345555692Y-235912328D02*
X345619837Y-235890946D01*
X345619837Y-235890946D02*
X345641219Y-235869565D01*
X345641219Y-235869565D02*
X345662600Y-235805420D01*
X345662600Y-235805420D02*
X345662600Y-235762657D01*
X345662600Y-235762657D02*
X345641219Y-235698512D01*
X345641219Y-235698512D02*
X345555692Y-235612986D01*
X345555692Y-235612986D02*
X345491548Y-235591604D01*
X345491548Y-235591604D02*
X345448785Y-235591604D01*
X345448785Y-235591604D02*
X345384640Y-235612986D01*
X345384640Y-235612986D02*
X345363258Y-235634368D01*
X345363258Y-235634368D02*
X345341877Y-235698512D01*
X345341877Y-235698512D02*
X345341877Y-235741275D01*
X345341877Y-235741275D02*
X345363258Y-235805420D01*
X345363258Y-235805420D02*
X345448785Y-235890946D01*
X345448785Y-235890946D02*
X345470166Y-235955091D01*
X345470166Y-235955091D02*
X345470166Y-235997854D01*
X345470166Y-235997854D02*
X345448785Y-236061999D01*
X345448785Y-236061999D02*
X345363258Y-236147525D01*
X345363258Y-236147525D02*
X345299114Y-236168907D01*
X345299114Y-236168907D02*
X345256350Y-236168907D01*
X345256350Y-236168907D02*
X345192206Y-236147525D01*
X345192206Y-236147525D02*
X345106680Y-236061999D01*
X345106680Y-236061999D02*
X345085298Y-235997854D01*
X345085298Y-235997854D02*
X345085298Y-235955091D01*
X345085298Y-235955091D02*
X345106680Y-235890946D01*
X345106680Y-235890946D02*
X345192206Y-235805420D01*
X345192206Y-235805420D02*
X345256350Y-235784039D01*
X345256350Y-235784039D02*
X345299114Y-235784039D01*
X345299114Y-235784039D02*
X345363258Y-235805420D01*
D11*
X357197580Y-156846953D02*
X357245200Y-156799334D01*
X357245200Y-156799334D02*
X357292819Y-156656477D01*
X357292819Y-156656477D02*
X357292819Y-156561239D01*
X357292819Y-156561239D02*
X357245200Y-156418382D01*
X357245200Y-156418382D02*
X357149961Y-156323144D01*
X357149961Y-156323144D02*
X357054723Y-156275525D01*
X357054723Y-156275525D02*
X356864247Y-156227906D01*
X356864247Y-156227906D02*
X356721390Y-156227906D01*
X356721390Y-156227906D02*
X356530914Y-156275525D01*
X356530914Y-156275525D02*
X356435676Y-156323144D01*
X356435676Y-156323144D02*
X356340438Y-156418382D01*
X356340438Y-156418382D02*
X356292819Y-156561239D01*
X356292819Y-156561239D02*
X356292819Y-156656477D01*
X356292819Y-156656477D02*
X356340438Y-156799334D01*
X356340438Y-156799334D02*
X356388057Y-156846953D01*
X357292819Y-157799334D02*
X357292819Y-157227906D01*
X357292819Y-157513620D02*
X356292819Y-157513620D01*
X356292819Y-157513620D02*
X356435676Y-157418382D01*
X356435676Y-157418382D02*
X356530914Y-157323144D01*
X356530914Y-157323144D02*
X356578533Y-157227906D01*
X356292819Y-158418382D02*
X356292819Y-158513620D01*
X356292819Y-158513620D02*
X356340438Y-158608858D01*
X356340438Y-158608858D02*
X356388057Y-158656477D01*
X356388057Y-158656477D02*
X356483295Y-158704096D01*
X356483295Y-158704096D02*
X356673771Y-158751715D01*
X356673771Y-158751715D02*
X356911866Y-158751715D01*
X356911866Y-158751715D02*
X357102342Y-158704096D01*
X357102342Y-158704096D02*
X357197580Y-158656477D01*
X357197580Y-158656477D02*
X357245200Y-158608858D01*
X357245200Y-158608858D02*
X357292819Y-158513620D01*
X357292819Y-158513620D02*
X357292819Y-158418382D01*
X357292819Y-158418382D02*
X357245200Y-158323144D01*
X357245200Y-158323144D02*
X357197580Y-158275525D01*
X357197580Y-158275525D02*
X357102342Y-158227906D01*
X357102342Y-158227906D02*
X356911866Y-158180287D01*
X356911866Y-158180287D02*
X356673771Y-158180287D01*
X356673771Y-158180287D02*
X356483295Y-158227906D01*
X356483295Y-158227906D02*
X356388057Y-158275525D01*
X356388057Y-158275525D02*
X356340438Y-158323144D01*
X356340438Y-158323144D02*
X356292819Y-158418382D01*
X356626152Y-159608858D02*
X357292819Y-159608858D01*
X356245200Y-159370763D02*
X356959485Y-159132668D01*
X356959485Y-159132668D02*
X356959485Y-159751715D01*
X348427047Y-158315581D02*
X348474666Y-158363201D01*
X348474666Y-158363201D02*
X348617523Y-158410820D01*
X348617523Y-158410820D02*
X348712761Y-158410820D01*
X348712761Y-158410820D02*
X348855618Y-158363201D01*
X348855618Y-158363201D02*
X348950856Y-158267962D01*
X348950856Y-158267962D02*
X348998475Y-158172724D01*
X348998475Y-158172724D02*
X349046094Y-157982248D01*
X349046094Y-157982248D02*
X349046094Y-157839391D01*
X349046094Y-157839391D02*
X348998475Y-157648915D01*
X348998475Y-157648915D02*
X348950856Y-157553677D01*
X348950856Y-157553677D02*
X348855618Y-157458439D01*
X348855618Y-157458439D02*
X348712761Y-157410820D01*
X348712761Y-157410820D02*
X348617523Y-157410820D01*
X348617523Y-157410820D02*
X348474666Y-157458439D01*
X348474666Y-157458439D02*
X348427047Y-157506058D01*
X347474666Y-158410820D02*
X348046094Y-158410820D01*
X347760380Y-158410820D02*
X347760380Y-157410820D01*
X347760380Y-157410820D02*
X347855618Y-157553677D01*
X347855618Y-157553677D02*
X347950856Y-157648915D01*
X347950856Y-157648915D02*
X348046094Y-157696534D01*
X346855618Y-157410820D02*
X346760380Y-157410820D01*
X346760380Y-157410820D02*
X346665142Y-157458439D01*
X346665142Y-157458439D02*
X346617523Y-157506058D01*
X346617523Y-157506058D02*
X346569904Y-157601296D01*
X346569904Y-157601296D02*
X346522285Y-157791772D01*
X346522285Y-157791772D02*
X346522285Y-158029867D01*
X346522285Y-158029867D02*
X346569904Y-158220343D01*
X346569904Y-158220343D02*
X346617523Y-158315581D01*
X346617523Y-158315581D02*
X346665142Y-158363201D01*
X346665142Y-158363201D02*
X346760380Y-158410820D01*
X346760380Y-158410820D02*
X346855618Y-158410820D01*
X346855618Y-158410820D02*
X346950856Y-158363201D01*
X346950856Y-158363201D02*
X346998475Y-158315581D01*
X346998475Y-158315581D02*
X347046094Y-158220343D01*
X347046094Y-158220343D02*
X347093713Y-158029867D01*
X347093713Y-158029867D02*
X347093713Y-157791772D01*
X347093713Y-157791772D02*
X347046094Y-157601296D01*
X347046094Y-157601296D02*
X346998475Y-157506058D01*
X346998475Y-157506058D02*
X346950856Y-157458439D01*
X346950856Y-157458439D02*
X346855618Y-157410820D01*
X346188951Y-157410820D02*
X345569904Y-157410820D01*
X345569904Y-157410820D02*
X345903237Y-157791772D01*
X345903237Y-157791772D02*
X345760380Y-157791772D01*
X345760380Y-157791772D02*
X345665142Y-157839391D01*
X345665142Y-157839391D02*
X345617523Y-157887010D01*
X345617523Y-157887010D02*
X345569904Y-157982248D01*
X345569904Y-157982248D02*
X345569904Y-158220343D01*
X345569904Y-158220343D02*
X345617523Y-158315581D01*
X345617523Y-158315581D02*
X345665142Y-158363201D01*
X345665142Y-158363201D02*
X345760380Y-158410820D01*
X345760380Y-158410820D02*
X346046094Y-158410820D01*
X346046094Y-158410820D02*
X346141332Y-158363201D01*
X346141332Y-158363201D02*
X346188951Y-158315581D01*
D10*
X337025226Y-247420528D02*
X337055464Y-247450767D01*
X337055464Y-247450767D02*
X337146178Y-247481005D01*
X337146178Y-247481005D02*
X337206654Y-247481005D01*
X337206654Y-247481005D02*
X337297369Y-247450767D01*
X337297369Y-247450767D02*
X337357845Y-247390290D01*
X337357845Y-247390290D02*
X337388083Y-247329814D01*
X337388083Y-247329814D02*
X337418321Y-247208862D01*
X337418321Y-247208862D02*
X337418321Y-247118147D01*
X337418321Y-247118147D02*
X337388083Y-246997195D01*
X337388083Y-246997195D02*
X337357845Y-246936719D01*
X337357845Y-246936719D02*
X337297369Y-246876243D01*
X337297369Y-246876243D02*
X337206654Y-246846005D01*
X337206654Y-246846005D02*
X337146178Y-246846005D01*
X337146178Y-246846005D02*
X337055464Y-246876243D01*
X337055464Y-246876243D02*
X337025226Y-246906481D01*
X336420464Y-247481005D02*
X336783321Y-247481005D01*
X336601893Y-247481005D02*
X336601893Y-246846005D01*
X336601893Y-246846005D02*
X336662369Y-246936719D01*
X336662369Y-246936719D02*
X336722845Y-246997195D01*
X336722845Y-246997195D02*
X336783321Y-247027433D01*
X335815702Y-247481005D02*
X336178559Y-247481005D01*
X335997131Y-247481005D02*
X335997131Y-246846005D01*
X335997131Y-246846005D02*
X336057607Y-246936719D01*
X336057607Y-246936719D02*
X336118083Y-246997195D01*
X336118083Y-246997195D02*
X336178559Y-247027433D01*
X335513321Y-247481005D02*
X335392369Y-247481005D01*
X335392369Y-247481005D02*
X335331892Y-247450767D01*
X335331892Y-247450767D02*
X335301654Y-247420528D01*
X335301654Y-247420528D02*
X335241178Y-247329814D01*
X335241178Y-247329814D02*
X335210940Y-247208862D01*
X335210940Y-247208862D02*
X335210940Y-246966957D01*
X335210940Y-246966957D02*
X335241178Y-246906481D01*
X335241178Y-246906481D02*
X335271416Y-246876243D01*
X335271416Y-246876243D02*
X335331892Y-246846005D01*
X335331892Y-246846005D02*
X335452845Y-246846005D01*
X335452845Y-246846005D02*
X335513321Y-246876243D01*
X335513321Y-246876243D02*
X335543559Y-246906481D01*
X335543559Y-246906481D02*
X335573797Y-246966957D01*
X335573797Y-246966957D02*
X335573797Y-247118147D01*
X335573797Y-247118147D02*
X335543559Y-247178624D01*
X335543559Y-247178624D02*
X335513321Y-247208862D01*
X335513321Y-247208862D02*
X335452845Y-247239100D01*
X335452845Y-247239100D02*
X335331892Y-247239100D01*
X335331892Y-247239100D02*
X335271416Y-247208862D01*
X335271416Y-247208862D02*
X335241178Y-247178624D01*
X335241178Y-247178624D02*
X335210940Y-247118147D01*
X345721315Y-231583249D02*
X345751554Y-231553011D01*
X345751554Y-231553011D02*
X345781792Y-231462297D01*
X345781792Y-231462297D02*
X345781792Y-231401821D01*
X345781792Y-231401821D02*
X345751554Y-231311106D01*
X345751554Y-231311106D02*
X345691077Y-231250630D01*
X345691077Y-231250630D02*
X345630601Y-231220392D01*
X345630601Y-231220392D02*
X345509649Y-231190154D01*
X345509649Y-231190154D02*
X345418934Y-231190154D01*
X345418934Y-231190154D02*
X345297982Y-231220392D01*
X345297982Y-231220392D02*
X345237506Y-231250630D01*
X345237506Y-231250630D02*
X345177030Y-231311106D01*
X345177030Y-231311106D02*
X345146792Y-231401821D01*
X345146792Y-231401821D02*
X345146792Y-231462297D01*
X345146792Y-231462297D02*
X345177030Y-231553011D01*
X345177030Y-231553011D02*
X345207268Y-231583249D01*
X345781792Y-232188011D02*
X345781792Y-231825154D01*
X345781792Y-232006582D02*
X345146792Y-232006582D01*
X345146792Y-232006582D02*
X345237506Y-231946106D01*
X345237506Y-231946106D02*
X345297982Y-231885630D01*
X345297982Y-231885630D02*
X345328220Y-231825154D01*
X345146792Y-232581106D02*
X345146792Y-232641583D01*
X345146792Y-232641583D02*
X345177030Y-232702059D01*
X345177030Y-232702059D02*
X345207268Y-232732297D01*
X345207268Y-232732297D02*
X345267744Y-232762535D01*
X345267744Y-232762535D02*
X345388696Y-232792773D01*
X345388696Y-232792773D02*
X345539887Y-232792773D01*
X345539887Y-232792773D02*
X345660839Y-232762535D01*
X345660839Y-232762535D02*
X345721315Y-232732297D01*
X345721315Y-232732297D02*
X345751554Y-232702059D01*
X345751554Y-232702059D02*
X345781792Y-232641583D01*
X345781792Y-232641583D02*
X345781792Y-232581106D01*
X345781792Y-232581106D02*
X345751554Y-232520630D01*
X345751554Y-232520630D02*
X345721315Y-232490392D01*
X345721315Y-232490392D02*
X345660839Y-232460154D01*
X345660839Y-232460154D02*
X345539887Y-232429916D01*
X345539887Y-232429916D02*
X345388696Y-232429916D01*
X345388696Y-232429916D02*
X345267744Y-232460154D01*
X345267744Y-232460154D02*
X345207268Y-232490392D01*
X345207268Y-232490392D02*
X345177030Y-232520630D01*
X345177030Y-232520630D02*
X345146792Y-232581106D01*
X345146792Y-233004440D02*
X345146792Y-233427773D01*
X345146792Y-233427773D02*
X345781792Y-233155630D01*
X358987388Y-253141667D02*
X359030151Y-253141667D01*
X359030151Y-253141667D02*
X359115678Y-253098904D01*
X359115678Y-253098904D02*
X359158441Y-253056140D01*
X359158441Y-253056140D02*
X359201204Y-252970614D01*
X359201204Y-252970614D02*
X359201204Y-252885088D01*
X359201204Y-252885088D02*
X359179822Y-252820943D01*
X359179822Y-252820943D02*
X359115678Y-252714035D01*
X359115678Y-252714035D02*
X359051533Y-252649891D01*
X359051533Y-252649891D02*
X358944625Y-252585746D01*
X358944625Y-252585746D02*
X358880481Y-252564365D01*
X358880481Y-252564365D02*
X358794954Y-252564365D01*
X358794954Y-252564365D02*
X358709428Y-252607128D01*
X358709428Y-252607128D02*
X358666665Y-252649891D01*
X358666665Y-252649891D02*
X358623902Y-252735417D01*
X358623902Y-252735417D02*
X358623902Y-252778180D01*
X358602520Y-253612061D02*
X358859099Y-253355482D01*
X358730810Y-253483772D02*
X358281797Y-253034759D01*
X358281797Y-253034759D02*
X358388705Y-253056140D01*
X358388705Y-253056140D02*
X358474231Y-253056140D01*
X358474231Y-253056140D02*
X358538376Y-253034759D01*
X358025218Y-253376864D02*
X357982455Y-253376864D01*
X357982455Y-253376864D02*
X357918310Y-253398246D01*
X357918310Y-253398246D02*
X357811402Y-253505153D01*
X357811402Y-253505153D02*
X357790021Y-253569298D01*
X357790021Y-253569298D02*
X357790021Y-253612061D01*
X357790021Y-253612061D02*
X357811402Y-253676206D01*
X357811402Y-253676206D02*
X357854165Y-253718969D01*
X357854165Y-253718969D02*
X357939692Y-253761732D01*
X357939692Y-253761732D02*
X358452849Y-253761732D01*
X358452849Y-253761732D02*
X358174889Y-254039692D01*
X357747258Y-254467324D02*
X358003836Y-254210745D01*
X357875547Y-254339034D02*
X357426534Y-253890022D01*
X357426534Y-253890022D02*
X357533442Y-253911403D01*
X357533442Y-253911403D02*
X357618968Y-253911403D01*
X357618968Y-253911403D02*
X357683113Y-253890022D01*
X346625227Y-221770528D02*
X346655465Y-221800767D01*
X346655465Y-221800767D02*
X346746179Y-221831005D01*
X346746179Y-221831005D02*
X346806655Y-221831005D01*
X346806655Y-221831005D02*
X346897370Y-221800767D01*
X346897370Y-221800767D02*
X346957846Y-221740290D01*
X346957846Y-221740290D02*
X346988084Y-221679814D01*
X346988084Y-221679814D02*
X347018322Y-221558862D01*
X347018322Y-221558862D02*
X347018322Y-221468147D01*
X347018322Y-221468147D02*
X346988084Y-221347195D01*
X346988084Y-221347195D02*
X346957846Y-221286719D01*
X346957846Y-221286719D02*
X346897370Y-221226243D01*
X346897370Y-221226243D02*
X346806655Y-221196005D01*
X346806655Y-221196005D02*
X346746179Y-221196005D01*
X346746179Y-221196005D02*
X346655465Y-221226243D01*
X346655465Y-221226243D02*
X346625227Y-221256481D01*
X346020465Y-221831005D02*
X346383322Y-221831005D01*
X346201894Y-221831005D02*
X346201894Y-221196005D01*
X346201894Y-221196005D02*
X346262370Y-221286719D01*
X346262370Y-221286719D02*
X346322846Y-221347195D01*
X346322846Y-221347195D02*
X346383322Y-221377433D01*
X345415703Y-221831005D02*
X345778560Y-221831005D01*
X345597132Y-221831005D02*
X345597132Y-221196005D01*
X345597132Y-221196005D02*
X345657608Y-221286719D01*
X345657608Y-221286719D02*
X345718084Y-221347195D01*
X345718084Y-221347195D02*
X345778560Y-221377433D01*
X344841179Y-221196005D02*
X345143560Y-221196005D01*
X345143560Y-221196005D02*
X345173798Y-221498386D01*
X345173798Y-221498386D02*
X345143560Y-221468147D01*
X345143560Y-221468147D02*
X345083084Y-221437909D01*
X345083084Y-221437909D02*
X344931893Y-221437909D01*
X344931893Y-221437909D02*
X344871417Y-221468147D01*
X344871417Y-221468147D02*
X344841179Y-221498386D01*
X344841179Y-221498386D02*
X344810941Y-221558862D01*
X344810941Y-221558862D02*
X344810941Y-221710052D01*
X344810941Y-221710052D02*
X344841179Y-221770528D01*
X344841179Y-221770528D02*
X344871417Y-221800767D01*
X344871417Y-221800767D02*
X344931893Y-221831005D01*
X344931893Y-221831005D02*
X345083084Y-221831005D01*
X345083084Y-221831005D02*
X345143560Y-221800767D01*
X345143560Y-221800767D02*
X345173798Y-221770528D01*
X369135227Y-245450527D02*
X369165465Y-245480766D01*
X369165465Y-245480766D02*
X369256179Y-245511004D01*
X369256179Y-245511004D02*
X369316655Y-245511004D01*
X369316655Y-245511004D02*
X369407370Y-245480766D01*
X369407370Y-245480766D02*
X369467846Y-245420289D01*
X369467846Y-245420289D02*
X369498084Y-245359813D01*
X369498084Y-245359813D02*
X369528322Y-245238861D01*
X369528322Y-245238861D02*
X369528322Y-245148146D01*
X369528322Y-245148146D02*
X369498084Y-245027194D01*
X369498084Y-245027194D02*
X369467846Y-244966718D01*
X369467846Y-244966718D02*
X369407370Y-244906242D01*
X369407370Y-244906242D02*
X369316655Y-244876004D01*
X369316655Y-244876004D02*
X369256179Y-244876004D01*
X369256179Y-244876004D02*
X369165465Y-244906242D01*
X369165465Y-244906242D02*
X369135227Y-244936480D01*
X368530465Y-245511004D02*
X368893322Y-245511004D01*
X368711894Y-245511004D02*
X368711894Y-244876004D01*
X368711894Y-244876004D02*
X368772370Y-244966718D01*
X368772370Y-244966718D02*
X368832846Y-245027194D01*
X368832846Y-245027194D02*
X368893322Y-245057432D01*
X367925703Y-245511004D02*
X368288560Y-245511004D01*
X368107132Y-245511004D02*
X368107132Y-244876004D01*
X368107132Y-244876004D02*
X368167608Y-244966718D01*
X368167608Y-244966718D02*
X368228084Y-245027194D01*
X368228084Y-245027194D02*
X368288560Y-245057432D01*
X367683798Y-244936480D02*
X367653560Y-244906242D01*
X367653560Y-244906242D02*
X367593084Y-244876004D01*
X367593084Y-244876004D02*
X367441893Y-244876004D01*
X367441893Y-244876004D02*
X367381417Y-244906242D01*
X367381417Y-244906242D02*
X367351179Y-244936480D01*
X367351179Y-244936480D02*
X367320941Y-244996956D01*
X367320941Y-244996956D02*
X367320941Y-245057432D01*
X367320941Y-245057432D02*
X367351179Y-245148146D01*
X367351179Y-245148146D02*
X367714036Y-245511004D01*
X367714036Y-245511004D02*
X367320941Y-245511004D01*
X302466549Y-227264415D02*
X302466549Y-226962034D01*
X302466549Y-226962034D02*
X301831549Y-226962034D01*
X302527025Y-227899415D02*
X302496787Y-227838939D01*
X302496787Y-227838939D02*
X302436311Y-227778463D01*
X302436311Y-227778463D02*
X302345596Y-227687749D01*
X302345596Y-227687749D02*
X302315358Y-227627272D01*
X302315358Y-227627272D02*
X302315358Y-227566796D01*
X302466549Y-227597034D02*
X302436311Y-227536558D01*
X302436311Y-227536558D02*
X302375834Y-227476082D01*
X302375834Y-227476082D02*
X302254882Y-227445844D01*
X302254882Y-227445844D02*
X302043215Y-227445844D01*
X302043215Y-227445844D02*
X301922263Y-227476082D01*
X301922263Y-227476082D02*
X301861787Y-227536558D01*
X301861787Y-227536558D02*
X301831549Y-227597034D01*
X301831549Y-227597034D02*
X301831549Y-227717987D01*
X301831549Y-227717987D02*
X301861787Y-227778463D01*
X301861787Y-227778463D02*
X301922263Y-227838939D01*
X301922263Y-227838939D02*
X302043215Y-227869177D01*
X302043215Y-227869177D02*
X302254882Y-227869177D01*
X302254882Y-227869177D02*
X302375834Y-227838939D01*
X302375834Y-227838939D02*
X302436311Y-227778463D01*
X302436311Y-227778463D02*
X302466549Y-227717987D01*
X302466549Y-227717987D02*
X302466549Y-227597034D01*
X302133930Y-228352987D02*
X302133930Y-228141320D01*
X302466549Y-228141320D02*
X301831549Y-228141320D01*
X301831549Y-228141320D02*
X301831549Y-228443701D01*
X302466549Y-228685606D02*
X301831549Y-228685606D01*
X301831549Y-228685606D02*
X301831549Y-228927511D01*
X301831549Y-228927511D02*
X301861787Y-228987987D01*
X301861787Y-228987987D02*
X301892025Y-229018225D01*
X301892025Y-229018225D02*
X301952501Y-229048463D01*
X301952501Y-229048463D02*
X302043215Y-229048463D01*
X302043215Y-229048463D02*
X302103691Y-229018225D01*
X302103691Y-229018225D02*
X302133930Y-228987987D01*
X302133930Y-228987987D02*
X302164168Y-228927511D01*
X302164168Y-228927511D02*
X302164168Y-228685606D01*
X302466549Y-229653225D02*
X302466549Y-229290368D01*
X302466549Y-229471796D02*
X301831549Y-229471796D01*
X301831549Y-229471796D02*
X301922263Y-229411320D01*
X301922263Y-229411320D02*
X301982739Y-229350844D01*
X301982739Y-229350844D02*
X302012977Y-229290368D01*
X301831549Y-230046320D02*
X301831549Y-230106797D01*
X301831549Y-230106797D02*
X301861787Y-230167273D01*
X301861787Y-230167273D02*
X301892025Y-230197511D01*
X301892025Y-230197511D02*
X301952501Y-230227749D01*
X301952501Y-230227749D02*
X302073453Y-230257987D01*
X302073453Y-230257987D02*
X302224644Y-230257987D01*
X302224644Y-230257987D02*
X302345596Y-230227749D01*
X302345596Y-230227749D02*
X302406072Y-230197511D01*
X302406072Y-230197511D02*
X302436311Y-230167273D01*
X302436311Y-230167273D02*
X302466549Y-230106797D01*
X302466549Y-230106797D02*
X302466549Y-230046320D01*
X302466549Y-230046320D02*
X302436311Y-229985844D01*
X302436311Y-229985844D02*
X302406072Y-229955606D01*
X302406072Y-229955606D02*
X302345596Y-229925368D01*
X302345596Y-229925368D02*
X302224644Y-229895130D01*
X302224644Y-229895130D02*
X302073453Y-229895130D01*
X302073453Y-229895130D02*
X301952501Y-229925368D01*
X301952501Y-229925368D02*
X301892025Y-229955606D01*
X301892025Y-229955606D02*
X301861787Y-229985844D01*
X301861787Y-229985844D02*
X301831549Y-230046320D01*
X301831549Y-230651082D02*
X301831549Y-230711559D01*
X301831549Y-230711559D02*
X301861787Y-230772035D01*
X301861787Y-230772035D02*
X301892025Y-230802273D01*
X301892025Y-230802273D02*
X301952501Y-230832511D01*
X301952501Y-230832511D02*
X302073453Y-230862749D01*
X302073453Y-230862749D02*
X302224644Y-230862749D01*
X302224644Y-230862749D02*
X302345596Y-230832511D01*
X302345596Y-230832511D02*
X302406072Y-230802273D01*
X302406072Y-230802273D02*
X302436311Y-230772035D01*
X302436311Y-230772035D02*
X302466549Y-230711559D01*
X302466549Y-230711559D02*
X302466549Y-230651082D01*
X302466549Y-230651082D02*
X302436311Y-230590606D01*
X302436311Y-230590606D02*
X302406072Y-230560368D01*
X302406072Y-230560368D02*
X302345596Y-230530130D01*
X302345596Y-230530130D02*
X302224644Y-230499892D01*
X302224644Y-230499892D02*
X302073453Y-230499892D01*
X302073453Y-230499892D02*
X301952501Y-230530130D01*
X301952501Y-230530130D02*
X301892025Y-230560368D01*
X301892025Y-230560368D02*
X301861787Y-230590606D01*
X301861787Y-230590606D02*
X301831549Y-230651082D01*
X302527025Y-230983702D02*
X302527025Y-231467511D01*
X302466549Y-231618702D02*
X301831549Y-231618702D01*
X301831549Y-231618702D02*
X301831549Y-231769892D01*
X301831549Y-231769892D02*
X301861787Y-231860607D01*
X301861787Y-231860607D02*
X301922263Y-231921083D01*
X301922263Y-231921083D02*
X301982739Y-231951321D01*
X301982739Y-231951321D02*
X302103691Y-231981559D01*
X302103691Y-231981559D02*
X302194406Y-231981559D01*
X302194406Y-231981559D02*
X302315358Y-231951321D01*
X302315358Y-231951321D02*
X302375834Y-231921083D01*
X302375834Y-231921083D02*
X302436311Y-231860607D01*
X302436311Y-231860607D02*
X302466549Y-231769892D01*
X302466549Y-231769892D02*
X302466549Y-231618702D01*
X302285120Y-232223464D02*
X302285120Y-232525845D01*
X302466549Y-232162988D02*
X301831549Y-232374654D01*
X301831549Y-232374654D02*
X302466549Y-232586321D01*
X301831549Y-232707274D02*
X301831549Y-233070131D01*
X302466549Y-232888702D02*
X301831549Y-232888702D01*
X302285120Y-233251560D02*
X302285120Y-233553941D01*
X302466549Y-233191084D02*
X301831549Y-233402750D01*
X301831549Y-233402750D02*
X302466549Y-233614417D01*
X302527025Y-233674894D02*
X302527025Y-234158703D01*
X302466549Y-234642513D02*
X302466549Y-234279656D01*
X302466549Y-234461084D02*
X301831549Y-234461084D01*
X301831549Y-234461084D02*
X301922263Y-234400608D01*
X301922263Y-234400608D02*
X301982739Y-234340132D01*
X301982739Y-234340132D02*
X302012977Y-234279656D01*
X350835228Y-232850528D02*
X350865466Y-232880767D01*
X350865466Y-232880767D02*
X350956180Y-232911005D01*
X350956180Y-232911005D02*
X351016656Y-232911005D01*
X351016656Y-232911005D02*
X351107371Y-232880767D01*
X351107371Y-232880767D02*
X351167847Y-232820290D01*
X351167847Y-232820290D02*
X351198085Y-232759814D01*
X351198085Y-232759814D02*
X351228323Y-232638862D01*
X351228323Y-232638862D02*
X351228323Y-232548147D01*
X351228323Y-232548147D02*
X351198085Y-232427195D01*
X351198085Y-232427195D02*
X351167847Y-232366719D01*
X351167847Y-232366719D02*
X351107371Y-232306243D01*
X351107371Y-232306243D02*
X351016656Y-232276005D01*
X351016656Y-232276005D02*
X350956180Y-232276005D01*
X350956180Y-232276005D02*
X350865466Y-232306243D01*
X350865466Y-232306243D02*
X350835228Y-232336481D01*
X350230466Y-232911005D02*
X350593323Y-232911005D01*
X350411895Y-232911005D02*
X350411895Y-232276005D01*
X350411895Y-232276005D02*
X350472371Y-232366719D01*
X350472371Y-232366719D02*
X350532847Y-232427195D01*
X350532847Y-232427195D02*
X350593323Y-232457433D01*
X349625704Y-232911005D02*
X349988561Y-232911005D01*
X349807133Y-232911005D02*
X349807133Y-232276005D01*
X349807133Y-232276005D02*
X349867609Y-232366719D01*
X349867609Y-232366719D02*
X349928085Y-232427195D01*
X349928085Y-232427195D02*
X349988561Y-232457433D01*
X349081418Y-232487671D02*
X349081418Y-232911005D01*
X349232609Y-232245767D02*
X349383799Y-232699338D01*
X349383799Y-232699338D02*
X348990704Y-232699338D01*
D11*
X337837580Y-148193145D02*
X337885200Y-148145526D01*
X337885200Y-148145526D02*
X337932819Y-148002669D01*
X337932819Y-148002669D02*
X337932819Y-147907431D01*
X337932819Y-147907431D02*
X337885200Y-147764574D01*
X337885200Y-147764574D02*
X337789961Y-147669336D01*
X337789961Y-147669336D02*
X337694723Y-147621717D01*
X337694723Y-147621717D02*
X337504247Y-147574098D01*
X337504247Y-147574098D02*
X337361390Y-147574098D01*
X337361390Y-147574098D02*
X337170914Y-147621717D01*
X337170914Y-147621717D02*
X337075676Y-147669336D01*
X337075676Y-147669336D02*
X336980438Y-147764574D01*
X336980438Y-147764574D02*
X336932819Y-147907431D01*
X336932819Y-147907431D02*
X336932819Y-148002669D01*
X336932819Y-148002669D02*
X336980438Y-148145526D01*
X336980438Y-148145526D02*
X337028057Y-148193145D01*
X337932819Y-148669336D02*
X337932819Y-148859812D01*
X337932819Y-148859812D02*
X337885200Y-148955050D01*
X337885200Y-148955050D02*
X337837580Y-149002669D01*
X337837580Y-149002669D02*
X337694723Y-149097907D01*
X337694723Y-149097907D02*
X337504247Y-149145526D01*
X337504247Y-149145526D02*
X337123295Y-149145526D01*
X337123295Y-149145526D02*
X337028057Y-149097907D01*
X337028057Y-149097907D02*
X336980438Y-149050288D01*
X336980438Y-149050288D02*
X336932819Y-148955050D01*
X336932819Y-148955050D02*
X336932819Y-148764574D01*
X336932819Y-148764574D02*
X336980438Y-148669336D01*
X336980438Y-148669336D02*
X337028057Y-148621717D01*
X337028057Y-148621717D02*
X337123295Y-148574098D01*
X337123295Y-148574098D02*
X337361390Y-148574098D01*
X337361390Y-148574098D02*
X337456628Y-148621717D01*
X337456628Y-148621717D02*
X337504247Y-148669336D01*
X337504247Y-148669336D02*
X337551866Y-148764574D01*
X337551866Y-148764574D02*
X337551866Y-148955050D01*
X337551866Y-148955050D02*
X337504247Y-149050288D01*
X337504247Y-149050288D02*
X337456628Y-149097907D01*
X337456628Y-149097907D02*
X337361390Y-149145526D01*
X336932819Y-150002669D02*
X336932819Y-149812193D01*
X336932819Y-149812193D02*
X336980438Y-149716955D01*
X336980438Y-149716955D02*
X337028057Y-149669336D01*
X337028057Y-149669336D02*
X337170914Y-149574098D01*
X337170914Y-149574098D02*
X337361390Y-149526479D01*
X337361390Y-149526479D02*
X337742342Y-149526479D01*
X337742342Y-149526479D02*
X337837580Y-149574098D01*
X337837580Y-149574098D02*
X337885200Y-149621717D01*
X337885200Y-149621717D02*
X337932819Y-149716955D01*
X337932819Y-149716955D02*
X337932819Y-149907431D01*
X337932819Y-149907431D02*
X337885200Y-150002669D01*
X337885200Y-150002669D02*
X337837580Y-150050288D01*
X337837580Y-150050288D02*
X337742342Y-150097907D01*
X337742342Y-150097907D02*
X337504247Y-150097907D01*
X337504247Y-150097907D02*
X337409009Y-150050288D01*
X337409009Y-150050288D02*
X337361390Y-150002669D01*
X337361390Y-150002669D02*
X337313771Y-149907431D01*
X337313771Y-149907431D02*
X337313771Y-149716955D01*
X337313771Y-149716955D02*
X337361390Y-149621717D01*
X337361390Y-149621717D02*
X337409009Y-149574098D01*
X337409009Y-149574098D02*
X337504247Y-149526479D01*
D10*
X369475228Y-233560527D02*
X369505466Y-233590766D01*
X369505466Y-233590766D02*
X369596180Y-233621004D01*
X369596180Y-233621004D02*
X369656656Y-233621004D01*
X369656656Y-233621004D02*
X369747371Y-233590766D01*
X369747371Y-233590766D02*
X369807847Y-233530289D01*
X369807847Y-233530289D02*
X369838085Y-233469813D01*
X369838085Y-233469813D02*
X369868323Y-233348861D01*
X369868323Y-233348861D02*
X369868323Y-233258146D01*
X369868323Y-233258146D02*
X369838085Y-233137194D01*
X369838085Y-233137194D02*
X369807847Y-233076718D01*
X369807847Y-233076718D02*
X369747371Y-233016242D01*
X369747371Y-233016242D02*
X369656656Y-232986004D01*
X369656656Y-232986004D02*
X369596180Y-232986004D01*
X369596180Y-232986004D02*
X369505466Y-233016242D01*
X369505466Y-233016242D02*
X369475228Y-233046480D01*
X368870466Y-233621004D02*
X369233323Y-233621004D01*
X369051895Y-233621004D02*
X369051895Y-232986004D01*
X369051895Y-232986004D02*
X369112371Y-233076718D01*
X369112371Y-233076718D02*
X369172847Y-233137194D01*
X369172847Y-233137194D02*
X369233323Y-233167432D01*
X368477371Y-232986004D02*
X368416894Y-232986004D01*
X368416894Y-232986004D02*
X368356418Y-233016242D01*
X368356418Y-233016242D02*
X368326180Y-233046480D01*
X368326180Y-233046480D02*
X368295942Y-233106956D01*
X368295942Y-233106956D02*
X368265704Y-233227908D01*
X368265704Y-233227908D02*
X368265704Y-233379099D01*
X368265704Y-233379099D02*
X368295942Y-233500051D01*
X368295942Y-233500051D02*
X368326180Y-233560527D01*
X368326180Y-233560527D02*
X368356418Y-233590766D01*
X368356418Y-233590766D02*
X368416894Y-233621004D01*
X368416894Y-233621004D02*
X368477371Y-233621004D01*
X368477371Y-233621004D02*
X368537847Y-233590766D01*
X368537847Y-233590766D02*
X368568085Y-233560527D01*
X368568085Y-233560527D02*
X368598323Y-233500051D01*
X368598323Y-233500051D02*
X368628561Y-233379099D01*
X368628561Y-233379099D02*
X368628561Y-233227908D01*
X368628561Y-233227908D02*
X368598323Y-233106956D01*
X368598323Y-233106956D02*
X368568085Y-233046480D01*
X368568085Y-233046480D02*
X368537847Y-233016242D01*
X368537847Y-233016242D02*
X368477371Y-232986004D01*
X367902847Y-233258146D02*
X367963323Y-233227908D01*
X367963323Y-233227908D02*
X367993561Y-233197670D01*
X367993561Y-233197670D02*
X368023799Y-233137194D01*
X368023799Y-233137194D02*
X368023799Y-233106956D01*
X368023799Y-233106956D02*
X367993561Y-233046480D01*
X367993561Y-233046480D02*
X367963323Y-233016242D01*
X367963323Y-233016242D02*
X367902847Y-232986004D01*
X367902847Y-232986004D02*
X367781894Y-232986004D01*
X367781894Y-232986004D02*
X367721418Y-233016242D01*
X367721418Y-233016242D02*
X367691180Y-233046480D01*
X367691180Y-233046480D02*
X367660942Y-233106956D01*
X367660942Y-233106956D02*
X367660942Y-233137194D01*
X367660942Y-233137194D02*
X367691180Y-233197670D01*
X367691180Y-233197670D02*
X367721418Y-233227908D01*
X367721418Y-233227908D02*
X367781894Y-233258146D01*
X367781894Y-233258146D02*
X367902847Y-233258146D01*
X367902847Y-233258146D02*
X367963323Y-233288385D01*
X367963323Y-233288385D02*
X367993561Y-233318623D01*
X367993561Y-233318623D02*
X368023799Y-233379099D01*
X368023799Y-233379099D02*
X368023799Y-233500051D01*
X368023799Y-233500051D02*
X367993561Y-233560527D01*
X367993561Y-233560527D02*
X367963323Y-233590766D01*
X367963323Y-233590766D02*
X367902847Y-233621004D01*
X367902847Y-233621004D02*
X367781894Y-233621004D01*
X367781894Y-233621004D02*
X367721418Y-233590766D01*
X367721418Y-233590766D02*
X367691180Y-233560527D01*
X367691180Y-233560527D02*
X367660942Y-233500051D01*
X367660942Y-233500051D02*
X367660942Y-233379099D01*
X367660942Y-233379099D02*
X367691180Y-233318623D01*
X367691180Y-233318623D02*
X367721418Y-233288385D01*
X367721418Y-233288385D02*
X367781894Y-233258146D01*
X333491314Y-227048250D02*
X333521553Y-227018012D01*
X333521553Y-227018012D02*
X333551791Y-226927298D01*
X333551791Y-226927298D02*
X333551791Y-226866822D01*
X333551791Y-226866822D02*
X333521553Y-226776107D01*
X333521553Y-226776107D02*
X333461076Y-226715631D01*
X333461076Y-226715631D02*
X333400600Y-226685393D01*
X333400600Y-226685393D02*
X333279648Y-226655155D01*
X333279648Y-226655155D02*
X333188933Y-226655155D01*
X333188933Y-226655155D02*
X333067981Y-226685393D01*
X333067981Y-226685393D02*
X333007505Y-226715631D01*
X333007505Y-226715631D02*
X332947029Y-226776107D01*
X332947029Y-226776107D02*
X332916791Y-226866822D01*
X332916791Y-226866822D02*
X332916791Y-226927298D01*
X332916791Y-226927298D02*
X332947029Y-227018012D01*
X332947029Y-227018012D02*
X332977267Y-227048250D01*
X333551791Y-227653012D02*
X333551791Y-227290155D01*
X333551791Y-227471583D02*
X332916791Y-227471583D01*
X332916791Y-227471583D02*
X333007505Y-227411107D01*
X333007505Y-227411107D02*
X333067981Y-227350631D01*
X333067981Y-227350631D02*
X333098219Y-227290155D01*
X333551791Y-228257774D02*
X333551791Y-227894917D01*
X333551791Y-228076345D02*
X332916791Y-228076345D01*
X332916791Y-228076345D02*
X333007505Y-228015869D01*
X333007505Y-228015869D02*
X333067981Y-227955393D01*
X333067981Y-227955393D02*
X333098219Y-227894917D01*
X332916791Y-228469441D02*
X332916791Y-228892774D01*
X332916791Y-228892774D02*
X333551791Y-228620631D01*
D11*
X313572819Y-128989572D02*
X313572819Y-128513382D01*
X313572819Y-128513382D02*
X312572819Y-128513382D01*
X313668057Y-129989572D02*
X313620438Y-129894334D01*
X313620438Y-129894334D02*
X313525200Y-129799096D01*
X313525200Y-129799096D02*
X313382342Y-129656239D01*
X313382342Y-129656239D02*
X313334723Y-129561001D01*
X313334723Y-129561001D02*
X313334723Y-129465763D01*
X313572819Y-129513382D02*
X313525200Y-129418144D01*
X313525200Y-129418144D02*
X313429961Y-129322906D01*
X313429961Y-129322906D02*
X313239485Y-129275287D01*
X313239485Y-129275287D02*
X312906152Y-129275287D01*
X312906152Y-129275287D02*
X312715676Y-129322906D01*
X312715676Y-129322906D02*
X312620438Y-129418144D01*
X312620438Y-129418144D02*
X312572819Y-129513382D01*
X312572819Y-129513382D02*
X312572819Y-129703858D01*
X312572819Y-129703858D02*
X312620438Y-129799096D01*
X312620438Y-129799096D02*
X312715676Y-129894334D01*
X312715676Y-129894334D02*
X312906152Y-129941953D01*
X312906152Y-129941953D02*
X313239485Y-129941953D01*
X313239485Y-129941953D02*
X313429961Y-129894334D01*
X313429961Y-129894334D02*
X313525200Y-129799096D01*
X313525200Y-129799096D02*
X313572819Y-129703858D01*
X313572819Y-129703858D02*
X313572819Y-129513382D01*
X313049009Y-130703858D02*
X313049009Y-130370525D01*
X313572819Y-130370525D02*
X312572819Y-130370525D01*
X312572819Y-130370525D02*
X312572819Y-130846715D01*
X313572819Y-131227668D02*
X312572819Y-131227668D01*
X312572819Y-131227668D02*
X312572819Y-131608620D01*
X312572819Y-131608620D02*
X312620438Y-131703858D01*
X312620438Y-131703858D02*
X312668057Y-131751477D01*
X312668057Y-131751477D02*
X312763295Y-131799096D01*
X312763295Y-131799096D02*
X312906152Y-131799096D01*
X312906152Y-131799096D02*
X313001390Y-131751477D01*
X313001390Y-131751477D02*
X313049009Y-131703858D01*
X313049009Y-131703858D02*
X313096628Y-131608620D01*
X313096628Y-131608620D02*
X313096628Y-131227668D01*
X312572819Y-132656239D02*
X312572819Y-132465763D01*
X312572819Y-132465763D02*
X312620438Y-132370525D01*
X312620438Y-132370525D02*
X312668057Y-132322906D01*
X312668057Y-132322906D02*
X312810914Y-132227668D01*
X312810914Y-132227668D02*
X313001390Y-132180049D01*
X313001390Y-132180049D02*
X313382342Y-132180049D01*
X313382342Y-132180049D02*
X313477580Y-132227668D01*
X313477580Y-132227668D02*
X313525200Y-132275287D01*
X313525200Y-132275287D02*
X313572819Y-132370525D01*
X313572819Y-132370525D02*
X313572819Y-132561001D01*
X313572819Y-132561001D02*
X313525200Y-132656239D01*
X313525200Y-132656239D02*
X313477580Y-132703858D01*
X313477580Y-132703858D02*
X313382342Y-132751477D01*
X313382342Y-132751477D02*
X313144247Y-132751477D01*
X313144247Y-132751477D02*
X313049009Y-132703858D01*
X313049009Y-132703858D02*
X313001390Y-132656239D01*
X313001390Y-132656239D02*
X312953771Y-132561001D01*
X312953771Y-132561001D02*
X312953771Y-132370525D01*
X312953771Y-132370525D02*
X313001390Y-132275287D01*
X313001390Y-132275287D02*
X313049009Y-132227668D01*
X313049009Y-132227668D02*
X313144247Y-132180049D01*
X312906152Y-133608620D02*
X313572819Y-133608620D01*
X312525200Y-133370525D02*
X313239485Y-133132430D01*
X313239485Y-133132430D02*
X313239485Y-133751477D01*
X313668057Y-133894335D02*
X313668057Y-134656239D01*
X313572819Y-134894335D02*
X312572819Y-134894335D01*
X312572819Y-134894335D02*
X312572819Y-135132430D01*
X312572819Y-135132430D02*
X312620438Y-135275287D01*
X312620438Y-135275287D02*
X312715676Y-135370525D01*
X312715676Y-135370525D02*
X312810914Y-135418144D01*
X312810914Y-135418144D02*
X313001390Y-135465763D01*
X313001390Y-135465763D02*
X313144247Y-135465763D01*
X313144247Y-135465763D02*
X313334723Y-135418144D01*
X313334723Y-135418144D02*
X313429961Y-135370525D01*
X313429961Y-135370525D02*
X313525200Y-135275287D01*
X313525200Y-135275287D02*
X313572819Y-135132430D01*
X313572819Y-135132430D02*
X313572819Y-134894335D01*
X313287104Y-135846716D02*
X313287104Y-136322906D01*
X313572819Y-135751478D02*
X312572819Y-136084811D01*
X312572819Y-136084811D02*
X313572819Y-136418144D01*
X312572819Y-136608621D02*
X312572819Y-137180049D01*
X313572819Y-136894335D02*
X312572819Y-136894335D01*
X313287104Y-137465764D02*
X313287104Y-137941954D01*
X313572819Y-137370526D02*
X312572819Y-137703859D01*
X312572819Y-137703859D02*
X313572819Y-138037192D01*
X313668057Y-138132431D02*
X313668057Y-138894335D01*
X313572819Y-139656240D02*
X313572819Y-139084812D01*
X313572819Y-139370526D02*
X312572819Y-139370526D01*
X312572819Y-139370526D02*
X312715676Y-139275288D01*
X312715676Y-139275288D02*
X312810914Y-139180050D01*
X312810914Y-139180050D02*
X312858533Y-139084812D01*
X341437580Y-148946954D02*
X341485200Y-148899335D01*
X341485200Y-148899335D02*
X341532819Y-148756478D01*
X341532819Y-148756478D02*
X341532819Y-148661240D01*
X341532819Y-148661240D02*
X341485200Y-148518383D01*
X341485200Y-148518383D02*
X341389961Y-148423145D01*
X341389961Y-148423145D02*
X341294723Y-148375526D01*
X341294723Y-148375526D02*
X341104247Y-148327907D01*
X341104247Y-148327907D02*
X340961390Y-148327907D01*
X340961390Y-148327907D02*
X340770914Y-148375526D01*
X340770914Y-148375526D02*
X340675676Y-148423145D01*
X340675676Y-148423145D02*
X340580438Y-148518383D01*
X340580438Y-148518383D02*
X340532819Y-148661240D01*
X340532819Y-148661240D02*
X340532819Y-148756478D01*
X340532819Y-148756478D02*
X340580438Y-148899335D01*
X340580438Y-148899335D02*
X340628057Y-148946954D01*
X341532819Y-149899335D02*
X341532819Y-149327907D01*
X341532819Y-149613621D02*
X340532819Y-149613621D01*
X340532819Y-149613621D02*
X340675676Y-149518383D01*
X340675676Y-149518383D02*
X340770914Y-149423145D01*
X340770914Y-149423145D02*
X340818533Y-149327907D01*
X340532819Y-150518383D02*
X340532819Y-150613621D01*
X340532819Y-150613621D02*
X340580438Y-150708859D01*
X340580438Y-150708859D02*
X340628057Y-150756478D01*
X340628057Y-150756478D02*
X340723295Y-150804097D01*
X340723295Y-150804097D02*
X340913771Y-150851716D01*
X340913771Y-150851716D02*
X341151866Y-150851716D01*
X341151866Y-150851716D02*
X341342342Y-150804097D01*
X341342342Y-150804097D02*
X341437580Y-150756478D01*
X341437580Y-150756478D02*
X341485200Y-150708859D01*
X341485200Y-150708859D02*
X341532819Y-150613621D01*
X341532819Y-150613621D02*
X341532819Y-150518383D01*
X341532819Y-150518383D02*
X341485200Y-150423145D01*
X341485200Y-150423145D02*
X341437580Y-150375526D01*
X341437580Y-150375526D02*
X341342342Y-150327907D01*
X341342342Y-150327907D02*
X341151866Y-150280288D01*
X341151866Y-150280288D02*
X340913771Y-150280288D01*
X340913771Y-150280288D02*
X340723295Y-150327907D01*
X340723295Y-150327907D02*
X340628057Y-150375526D01*
X340628057Y-150375526D02*
X340580438Y-150423145D01*
X340580438Y-150423145D02*
X340532819Y-150518383D01*
X340628057Y-151232669D02*
X340580438Y-151280288D01*
X340580438Y-151280288D02*
X340532819Y-151375526D01*
X340532819Y-151375526D02*
X340532819Y-151613621D01*
X340532819Y-151613621D02*
X340580438Y-151708859D01*
X340580438Y-151708859D02*
X340628057Y-151756478D01*
X340628057Y-151756478D02*
X340723295Y-151804097D01*
X340723295Y-151804097D02*
X340818533Y-151804097D01*
X340818533Y-151804097D02*
X340961390Y-151756478D01*
X340961390Y-151756478D02*
X341532819Y-151185050D01*
X341532819Y-151185050D02*
X341532819Y-151804097D01*
X363407047Y-138935582D02*
X363454666Y-138983202D01*
X363454666Y-138983202D02*
X363597523Y-139030821D01*
X363597523Y-139030821D02*
X363692761Y-139030821D01*
X363692761Y-139030821D02*
X363835618Y-138983202D01*
X363835618Y-138983202D02*
X363930856Y-138887963D01*
X363930856Y-138887963D02*
X363978475Y-138792725D01*
X363978475Y-138792725D02*
X364026094Y-138602249D01*
X364026094Y-138602249D02*
X364026094Y-138459392D01*
X364026094Y-138459392D02*
X363978475Y-138268916D01*
X363978475Y-138268916D02*
X363930856Y-138173678D01*
X363930856Y-138173678D02*
X363835618Y-138078440D01*
X363835618Y-138078440D02*
X363692761Y-138030821D01*
X363692761Y-138030821D02*
X363597523Y-138030821D01*
X363597523Y-138030821D02*
X363454666Y-138078440D01*
X363454666Y-138078440D02*
X363407047Y-138126059D01*
X362454666Y-139030821D02*
X363026094Y-139030821D01*
X362740380Y-139030821D02*
X362740380Y-138030821D01*
X362740380Y-138030821D02*
X362835618Y-138173678D01*
X362835618Y-138173678D02*
X362930856Y-138268916D01*
X362930856Y-138268916D02*
X363026094Y-138316535D01*
X361835618Y-138030821D02*
X361740380Y-138030821D01*
X361740380Y-138030821D02*
X361645142Y-138078440D01*
X361645142Y-138078440D02*
X361597523Y-138126059D01*
X361597523Y-138126059D02*
X361549904Y-138221297D01*
X361549904Y-138221297D02*
X361502285Y-138411773D01*
X361502285Y-138411773D02*
X361502285Y-138649868D01*
X361502285Y-138649868D02*
X361549904Y-138840344D01*
X361549904Y-138840344D02*
X361597523Y-138935582D01*
X361597523Y-138935582D02*
X361645142Y-138983202D01*
X361645142Y-138983202D02*
X361740380Y-139030821D01*
X361740380Y-139030821D02*
X361835618Y-139030821D01*
X361835618Y-139030821D02*
X361930856Y-138983202D01*
X361930856Y-138983202D02*
X361978475Y-138935582D01*
X361978475Y-138935582D02*
X362026094Y-138840344D01*
X362026094Y-138840344D02*
X362073713Y-138649868D01*
X362073713Y-138649868D02*
X362073713Y-138411773D01*
X362073713Y-138411773D02*
X362026094Y-138221297D01*
X362026094Y-138221297D02*
X361978475Y-138126059D01*
X361978475Y-138126059D02*
X361930856Y-138078440D01*
X361930856Y-138078440D02*
X361835618Y-138030821D01*
X360597523Y-138030821D02*
X361073713Y-138030821D01*
X361073713Y-138030821D02*
X361121332Y-138507011D01*
X361121332Y-138507011D02*
X361073713Y-138459392D01*
X361073713Y-138459392D02*
X360978475Y-138411773D01*
X360978475Y-138411773D02*
X360740380Y-138411773D01*
X360740380Y-138411773D02*
X360645142Y-138459392D01*
X360645142Y-138459392D02*
X360597523Y-138507011D01*
X360597523Y-138507011D02*
X360549904Y-138602249D01*
X360549904Y-138602249D02*
X360549904Y-138840344D01*
X360549904Y-138840344D02*
X360597523Y-138935582D01*
X360597523Y-138935582D02*
X360645142Y-138983202D01*
X360645142Y-138983202D02*
X360740380Y-139030821D01*
X360740380Y-139030821D02*
X360978475Y-139030821D01*
X360978475Y-139030821D02*
X361073713Y-138983202D01*
X361073713Y-138983202D02*
X361121332Y-138935582D01*
D10*
X360147315Y-227377916D02*
X360177554Y-227347678D01*
X360177554Y-227347678D02*
X360207792Y-227256964D01*
X360207792Y-227256964D02*
X360207792Y-227196488D01*
X360207792Y-227196488D02*
X360177554Y-227105773D01*
X360177554Y-227105773D02*
X360117077Y-227045297D01*
X360117077Y-227045297D02*
X360056601Y-227015059D01*
X360056601Y-227015059D02*
X359935649Y-226984821D01*
X359935649Y-226984821D02*
X359844934Y-226984821D01*
X359844934Y-226984821D02*
X359723982Y-227015059D01*
X359723982Y-227015059D02*
X359663506Y-227045297D01*
X359663506Y-227045297D02*
X359603030Y-227105773D01*
X359603030Y-227105773D02*
X359572792Y-227196488D01*
X359572792Y-227196488D02*
X359572792Y-227256964D01*
X359572792Y-227256964D02*
X359603030Y-227347678D01*
X359603030Y-227347678D02*
X359633268Y-227377916D01*
X360207792Y-227982678D02*
X360207792Y-227619821D01*
X360207792Y-227801249D02*
X359572792Y-227801249D01*
X359572792Y-227801249D02*
X359663506Y-227740773D01*
X359663506Y-227740773D02*
X359723982Y-227680297D01*
X359723982Y-227680297D02*
X359754220Y-227619821D01*
X360207792Y-228587440D02*
X360207792Y-228224583D01*
X360207792Y-228406011D02*
X359572792Y-228406011D01*
X359572792Y-228406011D02*
X359663506Y-228345535D01*
X359663506Y-228345535D02*
X359723982Y-228285059D01*
X359723982Y-228285059D02*
X359754220Y-228224583D01*
X359572792Y-228799107D02*
X359572792Y-229192202D01*
X359572792Y-229192202D02*
X359814696Y-228980535D01*
X359814696Y-228980535D02*
X359814696Y-229071250D01*
X359814696Y-229071250D02*
X359844934Y-229131726D01*
X359844934Y-229131726D02*
X359875173Y-229161964D01*
X359875173Y-229161964D02*
X359935649Y-229192202D01*
X359935649Y-229192202D02*
X360086839Y-229192202D01*
X360086839Y-229192202D02*
X360147315Y-229161964D01*
X360147315Y-229161964D02*
X360177554Y-229131726D01*
X360177554Y-229131726D02*
X360207792Y-229071250D01*
X360207792Y-229071250D02*
X360207792Y-228889821D01*
X360207792Y-228889821D02*
X360177554Y-228829345D01*
X360177554Y-228829345D02*
X360147315Y-228799107D01*
X358349144Y-232274834D02*
X358391907Y-232274834D01*
X358391907Y-232274834D02*
X358477434Y-232232071D01*
X358477434Y-232232071D02*
X358520197Y-232189307D01*
X358520197Y-232189307D02*
X358562960Y-232103781D01*
X358562960Y-232103781D02*
X358562960Y-232018255D01*
X358562960Y-232018255D02*
X358541578Y-231954110D01*
X358541578Y-231954110D02*
X358477434Y-231847202D01*
X358477434Y-231847202D02*
X358413289Y-231783058D01*
X358413289Y-231783058D02*
X358306381Y-231718913D01*
X358306381Y-231718913D02*
X358242237Y-231697532D01*
X358242237Y-231697532D02*
X358156710Y-231697532D01*
X358156710Y-231697532D02*
X358071184Y-231740295D01*
X358071184Y-231740295D02*
X358028421Y-231783058D01*
X358028421Y-231783058D02*
X357985658Y-231868584D01*
X357985658Y-231868584D02*
X357985658Y-231911347D01*
X357964276Y-232745228D02*
X358220855Y-232488649D01*
X358092566Y-232616939D02*
X357643553Y-232167926D01*
X357643553Y-232167926D02*
X357750461Y-232189307D01*
X357750461Y-232189307D02*
X357835987Y-232189307D01*
X357835987Y-232189307D02*
X357900132Y-232167926D01*
X357536645Y-233172859D02*
X357793224Y-232916281D01*
X357664934Y-233044570D02*
X357215921Y-232595557D01*
X357215921Y-232595557D02*
X357322829Y-232616939D01*
X357322829Y-232616939D02*
X357408356Y-232616939D01*
X357408356Y-232616939D02*
X357472500Y-232595557D01*
X356809672Y-233001807D02*
X356766909Y-233044570D01*
X356766909Y-233044570D02*
X356745527Y-233108715D01*
X356745527Y-233108715D02*
X356745527Y-233151478D01*
X356745527Y-233151478D02*
X356766909Y-233215623D01*
X356766909Y-233215623D02*
X356831053Y-233322530D01*
X356831053Y-233322530D02*
X356937961Y-233429438D01*
X356937961Y-233429438D02*
X357044869Y-233493583D01*
X357044869Y-233493583D02*
X357109014Y-233514964D01*
X357109014Y-233514964D02*
X357151777Y-233514964D01*
X357151777Y-233514964D02*
X357215921Y-233493583D01*
X357215921Y-233493583D02*
X357258685Y-233450820D01*
X357258685Y-233450820D02*
X357280066Y-233386675D01*
X357280066Y-233386675D02*
X357280066Y-233343912D01*
X357280066Y-233343912D02*
X357258685Y-233279767D01*
X357258685Y-233279767D02*
X357194540Y-233172859D01*
X357194540Y-233172859D02*
X357087632Y-233065952D01*
X357087632Y-233065952D02*
X356980724Y-233001807D01*
X356980724Y-233001807D02*
X356916580Y-232980425D01*
X356916580Y-232980425D02*
X356873816Y-232980425D01*
X356873816Y-232980425D02*
X356809672Y-233001807D01*
X342361315Y-225493249D02*
X342391554Y-225463011D01*
X342391554Y-225463011D02*
X342421792Y-225372297D01*
X342421792Y-225372297D02*
X342421792Y-225311821D01*
X342421792Y-225311821D02*
X342391554Y-225221106D01*
X342391554Y-225221106D02*
X342331077Y-225160630D01*
X342331077Y-225160630D02*
X342270601Y-225130392D01*
X342270601Y-225130392D02*
X342149649Y-225100154D01*
X342149649Y-225100154D02*
X342058934Y-225100154D01*
X342058934Y-225100154D02*
X341937982Y-225130392D01*
X341937982Y-225130392D02*
X341877506Y-225160630D01*
X341877506Y-225160630D02*
X341817030Y-225221106D01*
X341817030Y-225221106D02*
X341786792Y-225311821D01*
X341786792Y-225311821D02*
X341786792Y-225372297D01*
X341786792Y-225372297D02*
X341817030Y-225463011D01*
X341817030Y-225463011D02*
X341847268Y-225493249D01*
X342421792Y-226098011D02*
X342421792Y-225735154D01*
X342421792Y-225916582D02*
X341786792Y-225916582D01*
X341786792Y-225916582D02*
X341877506Y-225856106D01*
X341877506Y-225856106D02*
X341937982Y-225795630D01*
X341937982Y-225795630D02*
X341968220Y-225735154D01*
X341786792Y-226491106D02*
X341786792Y-226551583D01*
X341786792Y-226551583D02*
X341817030Y-226612059D01*
X341817030Y-226612059D02*
X341847268Y-226642297D01*
X341847268Y-226642297D02*
X341907744Y-226672535D01*
X341907744Y-226672535D02*
X342028696Y-226702773D01*
X342028696Y-226702773D02*
X342179887Y-226702773D01*
X342179887Y-226702773D02*
X342300839Y-226672535D01*
X342300839Y-226672535D02*
X342361315Y-226642297D01*
X342361315Y-226642297D02*
X342391554Y-226612059D01*
X342391554Y-226612059D02*
X342421792Y-226551583D01*
X342421792Y-226551583D02*
X342421792Y-226491106D01*
X342421792Y-226491106D02*
X342391554Y-226430630D01*
X342391554Y-226430630D02*
X342361315Y-226400392D01*
X342361315Y-226400392D02*
X342300839Y-226370154D01*
X342300839Y-226370154D02*
X342179887Y-226339916D01*
X342179887Y-226339916D02*
X342028696Y-226339916D01*
X342028696Y-226339916D02*
X341907744Y-226370154D01*
X341907744Y-226370154D02*
X341847268Y-226400392D01*
X341847268Y-226400392D02*
X341817030Y-226430630D01*
X341817030Y-226430630D02*
X341786792Y-226491106D01*
X342421792Y-227005154D02*
X342421792Y-227126106D01*
X342421792Y-227126106D02*
X342391554Y-227186583D01*
X342391554Y-227186583D02*
X342361315Y-227216821D01*
X342361315Y-227216821D02*
X342270601Y-227277297D01*
X342270601Y-227277297D02*
X342149649Y-227307535D01*
X342149649Y-227307535D02*
X341907744Y-227307535D01*
X341907744Y-227307535D02*
X341847268Y-227277297D01*
X341847268Y-227277297D02*
X341817030Y-227247059D01*
X341817030Y-227247059D02*
X341786792Y-227186583D01*
X341786792Y-227186583D02*
X341786792Y-227065630D01*
X341786792Y-227065630D02*
X341817030Y-227005154D01*
X341817030Y-227005154D02*
X341847268Y-226974916D01*
X341847268Y-226974916D02*
X341907744Y-226944678D01*
X341907744Y-226944678D02*
X342058934Y-226944678D01*
X342058934Y-226944678D02*
X342119411Y-226974916D01*
X342119411Y-226974916D02*
X342149649Y-227005154D01*
X342149649Y-227005154D02*
X342179887Y-227065630D01*
X342179887Y-227065630D02*
X342179887Y-227186583D01*
X342179887Y-227186583D02*
X342149649Y-227247059D01*
X342149649Y-227247059D02*
X342119411Y-227277297D01*
X342119411Y-227277297D02*
X342058934Y-227307535D01*
D11*
X350207047Y-130135582D02*
X350254666Y-130183202D01*
X350254666Y-130183202D02*
X350397523Y-130230821D01*
X350397523Y-130230821D02*
X350492761Y-130230821D01*
X350492761Y-130230821D02*
X350635618Y-130183202D01*
X350635618Y-130183202D02*
X350730856Y-130087963D01*
X350730856Y-130087963D02*
X350778475Y-129992725D01*
X350778475Y-129992725D02*
X350826094Y-129802249D01*
X350826094Y-129802249D02*
X350826094Y-129659392D01*
X350826094Y-129659392D02*
X350778475Y-129468916D01*
X350778475Y-129468916D02*
X350730856Y-129373678D01*
X350730856Y-129373678D02*
X350635618Y-129278440D01*
X350635618Y-129278440D02*
X350492761Y-129230821D01*
X350492761Y-129230821D02*
X350397523Y-129230821D01*
X350397523Y-129230821D02*
X350254666Y-129278440D01*
X350254666Y-129278440D02*
X350207047Y-129326059D01*
X349254666Y-130230821D02*
X349826094Y-130230821D01*
X349540380Y-130230821D02*
X349540380Y-129230821D01*
X349540380Y-129230821D02*
X349635618Y-129373678D01*
X349635618Y-129373678D02*
X349730856Y-129468916D01*
X349730856Y-129468916D02*
X349826094Y-129516535D01*
X348635618Y-129230821D02*
X348540380Y-129230821D01*
X348540380Y-129230821D02*
X348445142Y-129278440D01*
X348445142Y-129278440D02*
X348397523Y-129326059D01*
X348397523Y-129326059D02*
X348349904Y-129421297D01*
X348349904Y-129421297D02*
X348302285Y-129611773D01*
X348302285Y-129611773D02*
X348302285Y-129849868D01*
X348302285Y-129849868D02*
X348349904Y-130040344D01*
X348349904Y-130040344D02*
X348397523Y-130135582D01*
X348397523Y-130135582D02*
X348445142Y-130183202D01*
X348445142Y-130183202D02*
X348540380Y-130230821D01*
X348540380Y-130230821D02*
X348635618Y-130230821D01*
X348635618Y-130230821D02*
X348730856Y-130183202D01*
X348730856Y-130183202D02*
X348778475Y-130135582D01*
X348778475Y-130135582D02*
X348826094Y-130040344D01*
X348826094Y-130040344D02*
X348873713Y-129849868D01*
X348873713Y-129849868D02*
X348873713Y-129611773D01*
X348873713Y-129611773D02*
X348826094Y-129421297D01*
X348826094Y-129421297D02*
X348778475Y-129326059D01*
X348778475Y-129326059D02*
X348730856Y-129278440D01*
X348730856Y-129278440D02*
X348635618Y-129230821D01*
X347683237Y-129230821D02*
X347587999Y-129230821D01*
X347587999Y-129230821D02*
X347492761Y-129278440D01*
X347492761Y-129278440D02*
X347445142Y-129326059D01*
X347445142Y-129326059D02*
X347397523Y-129421297D01*
X347397523Y-129421297D02*
X347349904Y-129611773D01*
X347349904Y-129611773D02*
X347349904Y-129849868D01*
X347349904Y-129849868D02*
X347397523Y-130040344D01*
X347397523Y-130040344D02*
X347445142Y-130135582D01*
X347445142Y-130135582D02*
X347492761Y-130183202D01*
X347492761Y-130183202D02*
X347587999Y-130230821D01*
X347587999Y-130230821D02*
X347683237Y-130230821D01*
X347683237Y-130230821D02*
X347778475Y-130183202D01*
X347778475Y-130183202D02*
X347826094Y-130135582D01*
X347826094Y-130135582D02*
X347873713Y-130040344D01*
X347873713Y-130040344D02*
X347921332Y-129849868D01*
X347921332Y-129849868D02*
X347921332Y-129611773D01*
X347921332Y-129611773D02*
X347873713Y-129421297D01*
X347873713Y-129421297D02*
X347826094Y-129326059D01*
X347826094Y-129326059D02*
X347778475Y-129278440D01*
X347778475Y-129278440D02*
X347683237Y-129230821D01*
X337597580Y-138756954D02*
X337645200Y-138709335D01*
X337645200Y-138709335D02*
X337692819Y-138566478D01*
X337692819Y-138566478D02*
X337692819Y-138471240D01*
X337692819Y-138471240D02*
X337645200Y-138328383D01*
X337645200Y-138328383D02*
X337549961Y-138233145D01*
X337549961Y-138233145D02*
X337454723Y-138185526D01*
X337454723Y-138185526D02*
X337264247Y-138137907D01*
X337264247Y-138137907D02*
X337121390Y-138137907D01*
X337121390Y-138137907D02*
X336930914Y-138185526D01*
X336930914Y-138185526D02*
X336835676Y-138233145D01*
X336835676Y-138233145D02*
X336740438Y-138328383D01*
X336740438Y-138328383D02*
X336692819Y-138471240D01*
X336692819Y-138471240D02*
X336692819Y-138566478D01*
X336692819Y-138566478D02*
X336740438Y-138709335D01*
X336740438Y-138709335D02*
X336788057Y-138756954D01*
X337692819Y-139709335D02*
X337692819Y-139137907D01*
X337692819Y-139423621D02*
X336692819Y-139423621D01*
X336692819Y-139423621D02*
X336835676Y-139328383D01*
X336835676Y-139328383D02*
X336930914Y-139233145D01*
X336930914Y-139233145D02*
X336978533Y-139137907D01*
X336692819Y-140328383D02*
X336692819Y-140423621D01*
X336692819Y-140423621D02*
X336740438Y-140518859D01*
X336740438Y-140518859D02*
X336788057Y-140566478D01*
X336788057Y-140566478D02*
X336883295Y-140614097D01*
X336883295Y-140614097D02*
X337073771Y-140661716D01*
X337073771Y-140661716D02*
X337311866Y-140661716D01*
X337311866Y-140661716D02*
X337502342Y-140614097D01*
X337502342Y-140614097D02*
X337597580Y-140566478D01*
X337597580Y-140566478D02*
X337645200Y-140518859D01*
X337645200Y-140518859D02*
X337692819Y-140423621D01*
X337692819Y-140423621D02*
X337692819Y-140328383D01*
X337692819Y-140328383D02*
X337645200Y-140233145D01*
X337645200Y-140233145D02*
X337597580Y-140185526D01*
X337597580Y-140185526D02*
X337502342Y-140137907D01*
X337502342Y-140137907D02*
X337311866Y-140090288D01*
X337311866Y-140090288D02*
X337073771Y-140090288D01*
X337073771Y-140090288D02*
X336883295Y-140137907D01*
X336883295Y-140137907D02*
X336788057Y-140185526D01*
X336788057Y-140185526D02*
X336740438Y-140233145D01*
X336740438Y-140233145D02*
X336692819Y-140328383D01*
X337692819Y-141614097D02*
X337692819Y-141042669D01*
X337692819Y-141328383D02*
X336692819Y-141328383D01*
X336692819Y-141328383D02*
X336835676Y-141233145D01*
X336835676Y-141233145D02*
X336930914Y-141137907D01*
X336930914Y-141137907D02*
X336978533Y-141042669D01*
D10*
X368495228Y-234730526D02*
X368525466Y-234760765D01*
X368525466Y-234760765D02*
X368616180Y-234791003D01*
X368616180Y-234791003D02*
X368676656Y-234791003D01*
X368676656Y-234791003D02*
X368767371Y-234760765D01*
X368767371Y-234760765D02*
X368827847Y-234700288D01*
X368827847Y-234700288D02*
X368858085Y-234639812D01*
X368858085Y-234639812D02*
X368888323Y-234518860D01*
X368888323Y-234518860D02*
X368888323Y-234428145D01*
X368888323Y-234428145D02*
X368858085Y-234307193D01*
X368858085Y-234307193D02*
X368827847Y-234246717D01*
X368827847Y-234246717D02*
X368767371Y-234186241D01*
X368767371Y-234186241D02*
X368676656Y-234156003D01*
X368676656Y-234156003D02*
X368616180Y-234156003D01*
X368616180Y-234156003D02*
X368525466Y-234186241D01*
X368525466Y-234186241D02*
X368495228Y-234216479D01*
X367890466Y-234791003D02*
X368253323Y-234791003D01*
X368071895Y-234791003D02*
X368071895Y-234156003D01*
X368071895Y-234156003D02*
X368132371Y-234246717D01*
X368132371Y-234246717D02*
X368192847Y-234307193D01*
X368192847Y-234307193D02*
X368253323Y-234337431D01*
X367285704Y-234791003D02*
X367648561Y-234791003D01*
X367467133Y-234791003D02*
X367467133Y-234156003D01*
X367467133Y-234156003D02*
X367527609Y-234246717D01*
X367527609Y-234246717D02*
X367588085Y-234307193D01*
X367588085Y-234307193D02*
X367648561Y-234337431D01*
X366741418Y-234156003D02*
X366862371Y-234156003D01*
X366862371Y-234156003D02*
X366922847Y-234186241D01*
X366922847Y-234186241D02*
X366953085Y-234216479D01*
X366953085Y-234216479D02*
X367013561Y-234307193D01*
X367013561Y-234307193D02*
X367043799Y-234428145D01*
X367043799Y-234428145D02*
X367043799Y-234670050D01*
X367043799Y-234670050D02*
X367013561Y-234730526D01*
X367013561Y-234730526D02*
X366983323Y-234760765D01*
X366983323Y-234760765D02*
X366922847Y-234791003D01*
X366922847Y-234791003D02*
X366801894Y-234791003D01*
X366801894Y-234791003D02*
X366741418Y-234760765D01*
X366741418Y-234760765D02*
X366711180Y-234730526D01*
X366711180Y-234730526D02*
X366680942Y-234670050D01*
X366680942Y-234670050D02*
X366680942Y-234518860D01*
X366680942Y-234518860D02*
X366711180Y-234458384D01*
X366711180Y-234458384D02*
X366741418Y-234428145D01*
X366741418Y-234428145D02*
X366801894Y-234397907D01*
X366801894Y-234397907D02*
X366922847Y-234397907D01*
X366922847Y-234397907D02*
X366983323Y-234428145D01*
X366983323Y-234428145D02*
X367013561Y-234458384D01*
X367013561Y-234458384D02*
X367043799Y-234518860D01*
D11*
X356420857Y-130125581D02*
X356468476Y-130173201D01*
X356468476Y-130173201D02*
X356611333Y-130220820D01*
X356611333Y-130220820D02*
X356706571Y-130220820D01*
X356706571Y-130220820D02*
X356849428Y-130173201D01*
X356849428Y-130173201D02*
X356944666Y-130077962D01*
X356944666Y-130077962D02*
X356992285Y-129982724D01*
X356992285Y-129982724D02*
X357039904Y-129792248D01*
X357039904Y-129792248D02*
X357039904Y-129649391D01*
X357039904Y-129649391D02*
X356992285Y-129458915D01*
X356992285Y-129458915D02*
X356944666Y-129363677D01*
X356944666Y-129363677D02*
X356849428Y-129268439D01*
X356849428Y-129268439D02*
X356706571Y-129220820D01*
X356706571Y-129220820D02*
X356611333Y-129220820D01*
X356611333Y-129220820D02*
X356468476Y-129268439D01*
X356468476Y-129268439D02*
X356420857Y-129316058D01*
X355944666Y-130220820D02*
X355754190Y-130220820D01*
X355754190Y-130220820D02*
X355658952Y-130173201D01*
X355658952Y-130173201D02*
X355611333Y-130125581D01*
X355611333Y-130125581D02*
X355516095Y-129982724D01*
X355516095Y-129982724D02*
X355468476Y-129792248D01*
X355468476Y-129792248D02*
X355468476Y-129411296D01*
X355468476Y-129411296D02*
X355516095Y-129316058D01*
X355516095Y-129316058D02*
X355563714Y-129268439D01*
X355563714Y-129268439D02*
X355658952Y-129220820D01*
X355658952Y-129220820D02*
X355849428Y-129220820D01*
X355849428Y-129220820D02*
X355944666Y-129268439D01*
X355944666Y-129268439D02*
X355992285Y-129316058D01*
X355992285Y-129316058D02*
X356039904Y-129411296D01*
X356039904Y-129411296D02*
X356039904Y-129649391D01*
X356039904Y-129649391D02*
X355992285Y-129744629D01*
X355992285Y-129744629D02*
X355944666Y-129792248D01*
X355944666Y-129792248D02*
X355849428Y-129839867D01*
X355849428Y-129839867D02*
X355658952Y-129839867D01*
X355658952Y-129839867D02*
X355563714Y-129792248D01*
X355563714Y-129792248D02*
X355516095Y-129744629D01*
X355516095Y-129744629D02*
X355468476Y-129649391D01*
X354992285Y-130220820D02*
X354801809Y-130220820D01*
X354801809Y-130220820D02*
X354706571Y-130173201D01*
X354706571Y-130173201D02*
X354658952Y-130125581D01*
X354658952Y-130125581D02*
X354563714Y-129982724D01*
X354563714Y-129982724D02*
X354516095Y-129792248D01*
X354516095Y-129792248D02*
X354516095Y-129411296D01*
X354516095Y-129411296D02*
X354563714Y-129316058D01*
X354563714Y-129316058D02*
X354611333Y-129268439D01*
X354611333Y-129268439D02*
X354706571Y-129220820D01*
X354706571Y-129220820D02*
X354897047Y-129220820D01*
X354897047Y-129220820D02*
X354992285Y-129268439D01*
X354992285Y-129268439D02*
X355039904Y-129316058D01*
X355039904Y-129316058D02*
X355087523Y-129411296D01*
X355087523Y-129411296D02*
X355087523Y-129649391D01*
X355087523Y-129649391D02*
X355039904Y-129744629D01*
X355039904Y-129744629D02*
X354992285Y-129792248D01*
X354992285Y-129792248D02*
X354897047Y-129839867D01*
X354897047Y-129839867D02*
X354706571Y-129839867D01*
X354706571Y-129839867D02*
X354611333Y-129792248D01*
X354611333Y-129792248D02*
X354563714Y-129744629D01*
X354563714Y-129744629D02*
X354516095Y-129649391D01*
X348590858Y-140165582D02*
X348638477Y-140213202D01*
X348638477Y-140213202D02*
X348781334Y-140260821D01*
X348781334Y-140260821D02*
X348876572Y-140260821D01*
X348876572Y-140260821D02*
X349019429Y-140213202D01*
X349019429Y-140213202D02*
X349114667Y-140117963D01*
X349114667Y-140117963D02*
X349162286Y-140022725D01*
X349162286Y-140022725D02*
X349209905Y-139832249D01*
X349209905Y-139832249D02*
X349209905Y-139689392D01*
X349209905Y-139689392D02*
X349162286Y-139498916D01*
X349162286Y-139498916D02*
X349114667Y-139403678D01*
X349114667Y-139403678D02*
X349019429Y-139308440D01*
X349019429Y-139308440D02*
X348876572Y-139260821D01*
X348876572Y-139260821D02*
X348781334Y-139260821D01*
X348781334Y-139260821D02*
X348638477Y-139308440D01*
X348638477Y-139308440D02*
X348590858Y-139356059D01*
X348114667Y-140260821D02*
X347924191Y-140260821D01*
X347924191Y-140260821D02*
X347828953Y-140213202D01*
X347828953Y-140213202D02*
X347781334Y-140165582D01*
X347781334Y-140165582D02*
X347686096Y-140022725D01*
X347686096Y-140022725D02*
X347638477Y-139832249D01*
X347638477Y-139832249D02*
X347638477Y-139451297D01*
X347638477Y-139451297D02*
X347686096Y-139356059D01*
X347686096Y-139356059D02*
X347733715Y-139308440D01*
X347733715Y-139308440D02*
X347828953Y-139260821D01*
X347828953Y-139260821D02*
X348019429Y-139260821D01*
X348019429Y-139260821D02*
X348114667Y-139308440D01*
X348114667Y-139308440D02*
X348162286Y-139356059D01*
X348162286Y-139356059D02*
X348209905Y-139451297D01*
X348209905Y-139451297D02*
X348209905Y-139689392D01*
X348209905Y-139689392D02*
X348162286Y-139784630D01*
X348162286Y-139784630D02*
X348114667Y-139832249D01*
X348114667Y-139832249D02*
X348019429Y-139879868D01*
X348019429Y-139879868D02*
X347828953Y-139879868D01*
X347828953Y-139879868D02*
X347733715Y-139832249D01*
X347733715Y-139832249D02*
X347686096Y-139784630D01*
X347686096Y-139784630D02*
X347638477Y-139689392D01*
X347067048Y-139689392D02*
X347162286Y-139641773D01*
X347162286Y-139641773D02*
X347209905Y-139594154D01*
X347209905Y-139594154D02*
X347257524Y-139498916D01*
X347257524Y-139498916D02*
X347257524Y-139451297D01*
X347257524Y-139451297D02*
X347209905Y-139356059D01*
X347209905Y-139356059D02*
X347162286Y-139308440D01*
X347162286Y-139308440D02*
X347067048Y-139260821D01*
X347067048Y-139260821D02*
X346876572Y-139260821D01*
X346876572Y-139260821D02*
X346781334Y-139308440D01*
X346781334Y-139308440D02*
X346733715Y-139356059D01*
X346733715Y-139356059D02*
X346686096Y-139451297D01*
X346686096Y-139451297D02*
X346686096Y-139498916D01*
X346686096Y-139498916D02*
X346733715Y-139594154D01*
X346733715Y-139594154D02*
X346781334Y-139641773D01*
X346781334Y-139641773D02*
X346876572Y-139689392D01*
X346876572Y-139689392D02*
X347067048Y-139689392D01*
X347067048Y-139689392D02*
X347162286Y-139737011D01*
X347162286Y-139737011D02*
X347209905Y-139784630D01*
X347209905Y-139784630D02*
X347257524Y-139879868D01*
X347257524Y-139879868D02*
X347257524Y-140070344D01*
X347257524Y-140070344D02*
X347209905Y-140165582D01*
X347209905Y-140165582D02*
X347162286Y-140213202D01*
X347162286Y-140213202D02*
X347067048Y-140260821D01*
X347067048Y-140260821D02*
X346876572Y-140260821D01*
X346876572Y-140260821D02*
X346781334Y-140213202D01*
X346781334Y-140213202D02*
X346733715Y-140165582D01*
X346733715Y-140165582D02*
X346686096Y-140070344D01*
X346686096Y-140070344D02*
X346686096Y-139879868D01*
X346686096Y-139879868D02*
X346733715Y-139784630D01*
X346733715Y-139784630D02*
X346781334Y-139737011D01*
X346781334Y-139737011D02*
X346876572Y-139689392D01*
X346470857Y-150555581D02*
X346518476Y-150603201D01*
X346518476Y-150603201D02*
X346661333Y-150650820D01*
X346661333Y-150650820D02*
X346756571Y-150650820D01*
X346756571Y-150650820D02*
X346899428Y-150603201D01*
X346899428Y-150603201D02*
X346994666Y-150507962D01*
X346994666Y-150507962D02*
X347042285Y-150412724D01*
X347042285Y-150412724D02*
X347089904Y-150222248D01*
X347089904Y-150222248D02*
X347089904Y-150079391D01*
X347089904Y-150079391D02*
X347042285Y-149888915D01*
X347042285Y-149888915D02*
X346994666Y-149793677D01*
X346994666Y-149793677D02*
X346899428Y-149698439D01*
X346899428Y-149698439D02*
X346756571Y-149650820D01*
X346756571Y-149650820D02*
X346661333Y-149650820D01*
X346661333Y-149650820D02*
X346518476Y-149698439D01*
X346518476Y-149698439D02*
X346470857Y-149746058D01*
X345994666Y-150650820D02*
X345804190Y-150650820D01*
X345804190Y-150650820D02*
X345708952Y-150603201D01*
X345708952Y-150603201D02*
X345661333Y-150555581D01*
X345661333Y-150555581D02*
X345566095Y-150412724D01*
X345566095Y-150412724D02*
X345518476Y-150222248D01*
X345518476Y-150222248D02*
X345518476Y-149841296D01*
X345518476Y-149841296D02*
X345566095Y-149746058D01*
X345566095Y-149746058D02*
X345613714Y-149698439D01*
X345613714Y-149698439D02*
X345708952Y-149650820D01*
X345708952Y-149650820D02*
X345899428Y-149650820D01*
X345899428Y-149650820D02*
X345994666Y-149698439D01*
X345994666Y-149698439D02*
X346042285Y-149746058D01*
X346042285Y-149746058D02*
X346089904Y-149841296D01*
X346089904Y-149841296D02*
X346089904Y-150079391D01*
X346089904Y-150079391D02*
X346042285Y-150174629D01*
X346042285Y-150174629D02*
X345994666Y-150222248D01*
X345994666Y-150222248D02*
X345899428Y-150269867D01*
X345899428Y-150269867D02*
X345708952Y-150269867D01*
X345708952Y-150269867D02*
X345613714Y-150222248D01*
X345613714Y-150222248D02*
X345566095Y-150174629D01*
X345566095Y-150174629D02*
X345518476Y-150079391D01*
X345185142Y-149650820D02*
X344518476Y-149650820D01*
X344518476Y-149650820D02*
X344947047Y-150650820D01*
D10*
X358760595Y-241036682D02*
X358790833Y-241066921D01*
X358790833Y-241066921D02*
X358881547Y-241097159D01*
X358881547Y-241097159D02*
X358942023Y-241097159D01*
X358942023Y-241097159D02*
X359032738Y-241066921D01*
X359032738Y-241066921D02*
X359093214Y-241006444D01*
X359093214Y-241006444D02*
X359123452Y-240945968D01*
X359123452Y-240945968D02*
X359153690Y-240825016D01*
X359153690Y-240825016D02*
X359153690Y-240734301D01*
X359153690Y-240734301D02*
X359123452Y-240613349D01*
X359123452Y-240613349D02*
X359093214Y-240552873D01*
X359093214Y-240552873D02*
X359032738Y-240492397D01*
X359032738Y-240492397D02*
X358942023Y-240462159D01*
X358942023Y-240462159D02*
X358881547Y-240462159D01*
X358881547Y-240462159D02*
X358790833Y-240492397D01*
X358790833Y-240492397D02*
X358760595Y-240522635D01*
X358155833Y-241097159D02*
X358518690Y-241097159D01*
X358337262Y-241097159D02*
X358337262Y-240462159D01*
X358337262Y-240462159D02*
X358397738Y-240552873D01*
X358397738Y-240552873D02*
X358458214Y-240613349D01*
X358458214Y-240613349D02*
X358518690Y-240643587D01*
X357551071Y-241097159D02*
X357913928Y-241097159D01*
X357732500Y-241097159D02*
X357732500Y-240462159D01*
X357732500Y-240462159D02*
X357792976Y-240552873D01*
X357792976Y-240552873D02*
X357853452Y-240613349D01*
X357853452Y-240613349D02*
X357913928Y-240643587D01*
X356946309Y-241097159D02*
X357309166Y-241097159D01*
X357127738Y-241097159D02*
X357127738Y-240462159D01*
X357127738Y-240462159D02*
X357188214Y-240552873D01*
X357188214Y-240552873D02*
X357248690Y-240613349D01*
X357248690Y-240613349D02*
X357309166Y-240643587D01*
%TO.C,TRGT_PWR_EN*%
D12*
X220401000Y-168516000D02*
G75*
G02*
X220147000Y-168516000I-127000J0D01*
G01*
X220147000Y-168516000D02*
G75*
G02*
X220401000Y-168516000I127000J0D01*
G01*
%TO.C,RESET*%
X218231000Y-205478500D02*
G75*
G02*
X217977000Y-205478500I-127000J0D01*
G01*
X217977000Y-205478500D02*
G75*
G02*
X218231000Y-205478500I127000J0D01*
G01*
%TO.C,C120*%
D13*
X336262468Y-242897846D02*
X336046796Y-242897846D01*
X336262468Y-243617846D02*
X336046796Y-243617846D01*
%TO.C,C118*%
X344584603Y-237423066D02*
X344783414Y-237621877D01*
X345305852Y-236701817D02*
X345504663Y-236900628D01*
%TO.C,C104*%
X356428000Y-154838165D02*
X356428000Y-155053837D01*
X357148000Y-154838165D02*
X357148000Y-155053837D01*
%TO.C,C103*%
X347415836Y-156463502D02*
X347200164Y-156463502D01*
X347415836Y-157183502D02*
X347200164Y-157183502D01*
%TO.C,C119*%
X336586360Y-245570460D02*
X336305198Y-245570460D01*
X336586360Y-246590460D02*
X336305198Y-246590460D01*
%TO.C,C107*%
X346312633Y-231687264D02*
X346312633Y-231968426D01*
X347332633Y-231687264D02*
X347332633Y-231968426D01*
%TO.C,C121*%
X356996827Y-252450195D02*
X356781155Y-252450195D01*
X356996827Y-253170195D02*
X356781155Y-253170195D01*
%TO.C,C115*%
X345762929Y-222721393D02*
X345978601Y-222721393D01*
X345762929Y-223441393D02*
X345978601Y-223441393D01*
%TO.C,C112*%
X366344632Y-244851681D02*
X366344632Y-244636009D01*
X367064632Y-244851681D02*
X367064632Y-244636009D01*
%TO.C,LQFP100_DATA_1*%
D14*
X304975633Y-217918845D02*
X304975633Y-220123845D01*
X304975633Y-235923845D02*
X304975633Y-239923845D01*
X304975633Y-257928845D02*
X304975633Y-255723845D01*
X307260633Y-217918845D02*
X304975633Y-217918845D01*
X307260633Y-257928845D02*
X304975633Y-257928845D01*
X309421633Y-217918845D02*
X308660633Y-217918845D01*
X309421633Y-257928845D02*
X308660633Y-257928845D01*
X309421633Y-257928845D02*
X310945633Y-256399845D01*
X310945633Y-219447845D02*
X309421633Y-217918845D01*
X310945633Y-219447845D02*
X310945633Y-220123845D01*
X310945633Y-235923845D02*
X310945633Y-239923845D01*
X310945633Y-256399845D02*
X310945633Y-255723845D01*
X304560633Y-219923845D02*
G75*
G02*
X304360633Y-219923845I-100000J0D01*
G01*
X304360633Y-219923845D02*
G75*
G02*
X304560633Y-219923845I100000J0D01*
G01*
%TO.C,C114*%
D13*
X349984052Y-230809846D02*
X350265214Y-230809846D01*
X349984052Y-231829846D02*
X350265214Y-231829846D01*
%TO.C,C96*%
X338228000Y-147453838D02*
X338228000Y-147238166D01*
X338948000Y-147453838D02*
X338948000Y-147238166D01*
%TO.C,C108*%
X366514098Y-233048442D02*
X366729770Y-233048442D01*
X366514098Y-233768442D02*
X366729770Y-233768442D01*
%TO.C,C117*%
X334184632Y-227618265D02*
X334184632Y-227899427D01*
X335204632Y-227618265D02*
X335204632Y-227899427D01*
%TO.C,LQFP64_DATA_1*%
D14*
X305263000Y-125498502D02*
X305263000Y-127703502D01*
X305263000Y-143503502D02*
X305263000Y-147503502D01*
X305263000Y-165508502D02*
X305263000Y-163303502D01*
X307548000Y-125498502D02*
X305263000Y-125498502D01*
X307548000Y-165508502D02*
X305263000Y-165508502D01*
X309709000Y-125498502D02*
X308948000Y-125498502D01*
X309709000Y-165508502D02*
X308948000Y-165508502D01*
X309709000Y-165508502D02*
X311233000Y-163979502D01*
X311233000Y-127027502D02*
X309709000Y-125498502D01*
X311233000Y-127027502D02*
X311233000Y-127703502D01*
X311233000Y-143503502D02*
X311233000Y-147503502D01*
X311233000Y-163979502D02*
X311233000Y-163303502D01*
X304848000Y-127503502D02*
G75*
G02*
X304648000Y-127503502I-100000J0D01*
G01*
X304648000Y-127503502D02*
G75*
G02*
X304848000Y-127503502I100000J0D01*
G01*
%TO.C,C102*%
D13*
X341998000Y-148845421D02*
X341998000Y-149126583D01*
X343018000Y-148845421D02*
X343018000Y-149126583D01*
%TO.C,C105*%
X364168000Y-139823838D02*
X364168000Y-139608166D01*
X364888000Y-139823838D02*
X364888000Y-139608166D01*
%TO.C,C113*%
X358400633Y-228196348D02*
X358400633Y-227980676D01*
X359120633Y-228196348D02*
X359120633Y-227980676D01*
%TO.C,C110*%
X358328326Y-233106446D02*
X358175823Y-233258949D01*
X358837443Y-233615563D02*
X358684940Y-233768066D01*
%TO.C,C109*%
X343727406Y-226913867D02*
X343528595Y-226715056D01*
X344448655Y-226192618D02*
X344249844Y-225993807D01*
%TO.C,C100*%
X349195836Y-130576002D02*
X348980164Y-130576002D01*
X349195836Y-131296002D02*
X348980164Y-131296002D01*
%TO.C,C101*%
X338198000Y-139813838D02*
X338198000Y-139598166D01*
X338918000Y-139813838D02*
X338918000Y-139598166D01*
%TO.C,C116*%
X366752797Y-235277844D02*
X366968469Y-235277844D01*
X366752797Y-235997844D02*
X366968469Y-235997844D01*
%TO.C,C99*%
X355670164Y-130643502D02*
X355885836Y-130643502D01*
X355670164Y-131363502D02*
X355885836Y-131363502D01*
%TO.C,C98*%
X345390164Y-139286002D02*
X345605836Y-139286002D01*
X345390164Y-140006002D02*
X345605836Y-140006002D01*
%TO.C,C97*%
X345677419Y-148336001D02*
X345958581Y-148336001D01*
X345677419Y-149356001D02*
X345958581Y-149356001D01*
%TO.C,C111*%
X358157836Y-241610000D02*
X357942164Y-241610000D01*
X358157836Y-242330000D02*
X357942164Y-242330000D01*
%TD*%
M02*
