%TF.GenerationSoftware,KiCad,Pcbnew,10.0.3*%
%TF.CreationDate,2026-07-14T16:43:16-04:00*%
%TF.ProjectId,pcbfiles,70636266-696c-4657-932e-6b696361645f,rev?*%
%TF.SameCoordinates,Original*%
%TF.FileFunction,Soldermask,Bot*%
%TF.FilePolarity,Negative*%
%FSLAX46Y46*%
G04 Gerber Fmt 4.6, Leading zero omitted, Abs format (unit mm)*
G04 Created by KiCad (PCBNEW 10.0.3) date 2026-07-14 16:43:16*
%MOMM*%
%LPD*%
G01*
G04 APERTURE LIST*
G04 Aperture macros list*
%AMRoundRect*
0 Rectangle with rounded corners*
0 $1 Rounding radius*
0 $2 $3 $4 $5 $6 $7 $8 $9 X,Y pos of 4 corners*
0 Add a 4 corners polygon primitive as box body*
4,1,4,$2,$3,$4,$5,$6,$7,$8,$9,$2,$3,0*
0 Add four circle primitives for the rounded corners*
1,1,$1+$1,$2,$3*
1,1,$1+$1,$4,$5*
1,1,$1+$1,$6,$7*
1,1,$1+$1,$8,$9*
0 Add four rect primitives between the rounded corners*
20,1,$1+$1,$2,$3,$4,$5,0*
20,1,$1+$1,$4,$5,$6,$7,0*
20,1,$1+$1,$6,$7,$8,$9,0*
20,1,$1+$1,$8,$9,$2,$3,0*%
G04 Aperture macros list end*
%ADD10RoundRect,0.050800X-0.850000X-0.850000X0.850000X-0.850000X0.850000X0.850000X-0.850000X0.850000X0*%
%ADD11C,1.801600*%
%ADD12C,3.301600*%
%ADD13RoundRect,0.050800X0.850000X-0.850000X0.850000X0.850000X-0.850000X0.850000X-0.850000X-0.850000X0*%
%ADD14RoundRect,0.050800X-0.850000X0.850000X-0.850000X-0.850000X0.850000X-0.850000X0.850000X0.850000X0*%
%ADD15RoundRect,0.050800X0.850000X0.850000X-0.850000X0.850000X-0.850000X-0.850000X0.850000X-0.850000X0*%
%ADD16RoundRect,0.102000X0.654000X0.654000X-0.654000X0.654000X-0.654000X-0.654000X0.654000X-0.654000X0*%
%ADD17C,1.512000*%
%ADD18C,0.751600*%
%ADD19O,2.304000X1.204000*%
%ADD20O,2.004000X1.204000*%
%ADD21C,1.712000*%
%ADD22C,3.651600*%
%ADD23C,2.491600*%
%ADD24C,2.184000*%
%ADD25RoundRect,0.102000X-0.654000X0.654000X-0.654000X-0.654000X0.654000X-0.654000X0.654000X0.654000X0*%
%ADD26C,1.001600*%
%ADD27C,1.121600*%
%ADD28RoundRect,0.165400X0.165400X0.195400X-0.165400X0.195400X-0.165400X-0.195400X0.165400X-0.195400X0*%
%ADD29RoundRect,0.250400X-0.371797X-0.017678X-0.017678X-0.371797X0.371797X0.017678X0.017678X0.371797X0*%
%ADD30RoundRect,0.165400X-0.195400X0.165400X-0.195400X-0.165400X0.195400X-0.165400X0.195400X0.165400X0*%
%ADD31RoundRect,0.250400X0.250400X0.275400X-0.250400X0.275400X-0.250400X-0.275400X0.250400X-0.275400X0*%
%ADD32RoundRect,0.250400X-0.275400X0.250400X-0.275400X-0.250400X0.275400X-0.250400X0.275400X0.250400X0*%
%ADD33RoundRect,0.165400X-0.165400X-0.195400X0.165400X-0.195400X0.165400X0.195400X-0.165400X0.195400X0*%
%ADD34RoundRect,0.165400X0.195400X-0.165400X0.195400X0.165400X-0.195400X0.165400X-0.195400X-0.165400X0*%
%ADD35RoundRect,0.102000X-0.725000X0.152500X-0.725000X-0.152500X0.725000X-0.152500X0.725000X0.152500X0*%
%ADD36RoundRect,0.102000X-0.320000X1.270000X-0.320000X-1.270000X0.320000X-1.270000X0.320000X1.270000X0*%
%ADD37RoundRect,0.102000X-0.320000X2.350000X-0.320000X-2.350000X0.320000X-2.350000X0.320000X2.350000X0*%
%ADD38RoundRect,0.250400X-0.250400X-0.275400X0.250400X-0.275400X0.250400X0.275400X-0.250400X0.275400X0*%
%ADD39RoundRect,0.165400X-0.021213X0.255124X-0.255124X0.021213X0.021213X-0.255124X0.255124X-0.021213X0*%
%ADD40RoundRect,0.250400X0.371797X0.017678X0.017678X0.371797X-0.371797X-0.017678X-0.017678X-0.371797X0*%
G04 APERTURE END LIST*
D10*
%TO.C,J12*%
X317274632Y-229083845D03*
D11*
X317274632Y-231623845D03*
X317274632Y-234163844D03*
X317274632Y-236703845D03*
X317274632Y-239243845D03*
X317274632Y-241783845D03*
X317274632Y-244323845D03*
X317274632Y-246863846D03*
%TD*%
D12*
%TO.C,55*%
X293624000Y-173616000D03*
%TD*%
D13*
%TO.C,LCD1*%
X231165000Y-209597500D03*
D11*
X233705000Y-209597500D03*
X236245000Y-209597500D03*
X238785000Y-209597500D03*
X241325000Y-209597500D03*
X243865000Y-209597500D03*
X246405000Y-209597500D03*
X248945000Y-209597500D03*
X251485000Y-209597500D03*
X254025000Y-209597500D03*
%TD*%
D14*
%TO.C,cg-SWD_Breakout_Parent1*%
X240220000Y-170280000D03*
D11*
X237680000Y-170280000D03*
X235140000Y-170280000D03*
X232600000Y-170280000D03*
%TD*%
D12*
%TO.C,56*%
X359733999Y-191008000D03*
%TD*%
%TO.C,REF\u002A\u002A*%
X392415633Y-184583845D03*
%TD*%
D15*
%TO.C,J5*%
X381874632Y-246813846D03*
D11*
X381874632Y-244273846D03*
X381874632Y-241733847D03*
X381874632Y-239193846D03*
X381874632Y-236653846D03*
X381874632Y-234113846D03*
X381874632Y-231573846D03*
X381874632Y-229033845D03*
%TD*%
D12*
%TO.C,J_SOCKET_100_1*%
X364394633Y-250923845D03*
X364394633Y-224923845D03*
X338394633Y-250923845D03*
X338394633Y-224923845D03*
D16*
X364974633Y-243923845D03*
D17*
X362434633Y-243423845D03*
X359894634Y-242923845D03*
X364974634Y-242423845D03*
X362434633Y-241923845D03*
X359894633Y-241423845D03*
X364974633Y-240923845D03*
X362434633Y-240423845D03*
X359894633Y-239923845D03*
X364974633Y-239423845D03*
X362434633Y-238923845D03*
X359894633Y-238423845D03*
X364974633Y-237923845D03*
X362434632Y-237423845D03*
X359894633Y-236923845D03*
X364974633Y-236423845D03*
X362434632Y-235923845D03*
X359894634Y-235423845D03*
X364974633Y-234923845D03*
X362434633Y-234423845D03*
X359894634Y-233923845D03*
X364974634Y-233423845D03*
X362434633Y-232923845D03*
X359894633Y-232423845D03*
X364974633Y-231923845D03*
X357394633Y-224343845D03*
X356894633Y-226883845D03*
X356394633Y-229423844D03*
X355894633Y-224343844D03*
X355394633Y-226883845D03*
X354894633Y-229423845D03*
X354394633Y-224343845D03*
X353894633Y-226883845D03*
X353394633Y-229423845D03*
X352894633Y-224343845D03*
X352394633Y-226883845D03*
X351894633Y-229423845D03*
X351394633Y-224343845D03*
X350894633Y-226883846D03*
X350394633Y-229423845D03*
X349894633Y-224343845D03*
X349394633Y-226883846D03*
X348894633Y-229423844D03*
X348394633Y-224343845D03*
X347894633Y-226883845D03*
X347394633Y-229423844D03*
X346894633Y-224343844D03*
X346394633Y-226883845D03*
X345894633Y-229423845D03*
X345394633Y-224343845D03*
X337814633Y-231923845D03*
X340354633Y-232423845D03*
X342894632Y-232923845D03*
X337814632Y-233423845D03*
X340354633Y-233923845D03*
X342894633Y-234423845D03*
X337814633Y-234923845D03*
X340354633Y-235423845D03*
X342894633Y-235923845D03*
X337814633Y-236423845D03*
X340354633Y-236923845D03*
X342894633Y-237423845D03*
X337814633Y-237923845D03*
X340354634Y-238423845D03*
X342894633Y-238923845D03*
X337814633Y-239423845D03*
X340354634Y-239923845D03*
X342894632Y-240423845D03*
X337814633Y-240923845D03*
X340354633Y-241423845D03*
X342894632Y-241923845D03*
X337814632Y-242423845D03*
X340354633Y-242923845D03*
X342894633Y-243423845D03*
X337814633Y-243923845D03*
X345394633Y-251503845D03*
X345894633Y-248963845D03*
X346394633Y-246423846D03*
X346894633Y-251503846D03*
X347394633Y-248963845D03*
X347894633Y-246423845D03*
X348394633Y-251503845D03*
X348894633Y-248963845D03*
X349394633Y-246423845D03*
X349894633Y-251503845D03*
X350394633Y-248963845D03*
X350894633Y-246423845D03*
X351394633Y-251503845D03*
X351894633Y-248963844D03*
X352394633Y-246423845D03*
X352894633Y-251503845D03*
X353394633Y-248963844D03*
X353894633Y-246423846D03*
X354394633Y-251503845D03*
X354894633Y-248963845D03*
X355394633Y-246423846D03*
X355894633Y-251503846D03*
X356394633Y-248963845D03*
X356894633Y-246423845D03*
X357394633Y-251503845D03*
%TD*%
D12*
%TO.C,57*%
X293624000Y-181616000D03*
%TD*%
%TO.C,64*%
X391733999Y-191008000D03*
%TD*%
D15*
%TO.C,J7*%
X385684633Y-246813845D03*
D11*
X385684633Y-244273845D03*
X385684633Y-241733846D03*
X385684633Y-239193845D03*
X385684633Y-236653845D03*
X385684633Y-234113845D03*
X385684633Y-231573845D03*
X385684633Y-229033844D03*
%TD*%
D12*
%TO.C,50*%
X293624000Y-153616000D03*
%TD*%
%TO.C,53*%
X293624000Y-165616000D03*
%TD*%
D14*
%TO.C,J4*%
X360938000Y-114336002D03*
D11*
X358398000Y-114336002D03*
X355858001Y-114336002D03*
X353318000Y-114336002D03*
X350778000Y-114336002D03*
X348238000Y-114336002D03*
X345698000Y-114336002D03*
X343157999Y-114336002D03*
%TD*%
D12*
%TO.C,61*%
X379734000Y-191008000D03*
%TD*%
%TO.C,REF\u002A\u002A*%
X392430000Y-283008845D03*
%TD*%
D18*
%TO.C,USB-C1*%
X184830000Y-140170000D03*
X184830000Y-145950000D03*
D19*
X185330000Y-138740000D03*
X185330000Y-147380000D03*
D20*
X181150000Y-138740000D03*
X181150000Y-147380000D03*
%TD*%
D12*
%TO.C,48*%
X327733999Y-191008000D03*
%TD*%
%TO.C,49*%
X293624000Y-149616000D03*
%TD*%
%TO.C,71*%
X293624000Y-237616000D03*
%TD*%
D10*
%TO.C,J13*%
X320954633Y-229083844D03*
D11*
X320954633Y-231623844D03*
X320954633Y-234163843D03*
X320954633Y-236703844D03*
X320954633Y-239243844D03*
X320954633Y-241783844D03*
X320954633Y-244323844D03*
X320954633Y-246863845D03*
%TD*%
D12*
%TO.C,66*%
X293624000Y-217616000D03*
%TD*%
%TO.C,REF\u002A\u002A*%
X182372000Y-254000000D03*
%TD*%
%TO.C,44*%
X293624000Y-129616000D03*
%TD*%
%TO.C,58*%
X293624000Y-185616000D03*
%TD*%
%TO.C,60*%
X375734000Y-191008000D03*
%TD*%
%TO.C,47*%
X293624000Y-141616000D03*
%TD*%
%TO.C,52*%
X293624000Y-161616000D03*
%TD*%
%TO.C,63*%
X293624000Y-205616000D03*
%TD*%
D14*
%TO.C,J7*%
X360208000Y-167896002D03*
D11*
X357668000Y-167896002D03*
X355128001Y-167896002D03*
X352588000Y-167896002D03*
X350048000Y-167896002D03*
X347508000Y-167896002D03*
X344968000Y-167896002D03*
X342427999Y-167896002D03*
%TD*%
D15*
%TO.C,SWD*%
X318944633Y-261563846D03*
D11*
X318944633Y-259023846D03*
X318944633Y-256483847D03*
X318944633Y-253943846D03*
%TD*%
D12*
%TO.C,46*%
X293624000Y-137616000D03*
%TD*%
D10*
%TO.C,J11*%
X324724632Y-227763846D03*
D11*
X324724632Y-230303846D03*
X324724632Y-232843845D03*
X324724632Y-235383846D03*
X324724632Y-237923846D03*
X324724632Y-240463846D03*
X324724632Y-243003846D03*
X324724632Y-245543847D03*
X324724632Y-248083846D03*
%TD*%
D12*
%TO.C,43*%
X307734000Y-191008000D03*
%TD*%
%TO.C,62*%
X293624000Y-201616000D03*
%TD*%
%TO.C,55*%
X355734000Y-191008000D03*
%TD*%
%TO.C,70*%
X293624000Y-233616000D03*
%TD*%
%TO.C,67*%
X293624000Y-221616000D03*
%TD*%
%TO.C,61*%
X293624000Y-197616000D03*
%TD*%
D15*
%TO.C,J1*%
X328168000Y-152146001D03*
D11*
X328168000Y-149606001D03*
X328168000Y-147066002D03*
X328168000Y-144526001D03*
X328168000Y-141986001D03*
X328168000Y-139446001D03*
X328168000Y-136906001D03*
X328168000Y-134366000D03*
%TD*%
D21*
%TO.C,SW_BOOT0*%
X214885000Y-189217500D03*
X214885000Y-191717500D03*
X214885000Y-194217500D03*
%TD*%
D10*
%TO.C,SWD*%
X372948000Y-154166001D03*
D11*
X372948000Y-156706001D03*
X372948000Y-159246000D03*
X372948000Y-161786001D03*
%TD*%
D14*
%TO.C,J10*%
X360284633Y-203633845D03*
D11*
X357744633Y-203633845D03*
X355204634Y-203633845D03*
X352664633Y-203633845D03*
X350124633Y-203633845D03*
X347584633Y-203633845D03*
X345044633Y-203633845D03*
X342504632Y-203633845D03*
%TD*%
D15*
%TO.C,J2*%
X321898000Y-152226001D03*
D11*
X321898000Y-149686001D03*
X321898000Y-147146002D03*
X321898000Y-144606001D03*
X321898000Y-142066001D03*
X321898000Y-139526001D03*
X321898000Y-136986001D03*
X321898000Y-134446000D03*
%TD*%
D12*
%TO.C,REF\u002A\u002A*%
X287020000Y-254000000D03*
%TD*%
%TO.C,54*%
X293624000Y-169616000D03*
%TD*%
%TO.C,69*%
X293624000Y-229616000D03*
%TD*%
%TO.C,48*%
X293624000Y-145616000D03*
%TD*%
%TO.C,56*%
X293624000Y-177616000D03*
%TD*%
%TO.C,52*%
X343734000Y-191008000D03*
%TD*%
D22*
%TO.C,BAT1*%
X206030000Y-231020000D03*
X190290000Y-175820000D03*
D23*
X206030000Y-167620000D03*
D24*
X198160000Y-239840000D03*
X198160000Y-167620000D03*
%TD*%
D12*
%TO.C,REF\u002A\u002A*%
X392415633Y-99366845D03*
%TD*%
%TO.C,72*%
X293624000Y-241616000D03*
%TD*%
%TO.C,59*%
X371734000Y-191008000D03*
%TD*%
D10*
%TO.C,LQFP64_USART1*%
X330718000Y-162826002D03*
D11*
X330718000Y-165366002D03*
X330718000Y-167906001D03*
X330718000Y-170446002D03*
%TD*%
D12*
%TO.C,44*%
X311734000Y-191008000D03*
%TD*%
D14*
%TO.C,J8*%
X360298001Y-173626001D03*
D11*
X357758001Y-173626001D03*
X355218002Y-173626001D03*
X352678001Y-173626001D03*
X350138001Y-173626001D03*
X347598001Y-173626001D03*
X345058001Y-173626001D03*
X342518000Y-173626001D03*
%TD*%
D12*
%TO.C,41*%
X300100000Y-191120000D03*
%TD*%
%TO.C,75*%
X293624000Y-253616000D03*
%TD*%
%TO.C,REF\u002A\u002A*%
X287020000Y-125984000D03*
%TD*%
%TO.C,73*%
X293624000Y-245616000D03*
%TD*%
D14*
%TO.C,J8*%
X361554633Y-211253845D03*
D11*
X359014633Y-211253845D03*
X356474634Y-211253845D03*
X353934633Y-211253845D03*
X351394633Y-211253845D03*
X348854633Y-211253845D03*
X346314633Y-211253845D03*
X343774632Y-211253845D03*
X341234633Y-211253845D03*
%TD*%
D12*
%TO.C,54*%
X351734000Y-191008000D03*
%TD*%
%TO.C,65*%
X293624000Y-213616000D03*
%TD*%
%TO.C,45*%
X293624000Y-133616000D03*
%TD*%
D15*
%TO.C,USART1*%
X325344632Y-261483845D03*
D11*
X325344632Y-258943845D03*
X325344632Y-256403846D03*
X325344632Y-253863845D03*
%TD*%
D13*
%TO.C,J16*%
X342504631Y-272213845D03*
D11*
X345044631Y-272213845D03*
X347584630Y-272213845D03*
X350124631Y-272213845D03*
X352664631Y-272213845D03*
X355204631Y-272213845D03*
X357744631Y-272213845D03*
X360284632Y-272213845D03*
%TD*%
D15*
%TO.C,J6*%
X378064633Y-248083845D03*
D11*
X378064633Y-245543845D03*
X378064633Y-243003846D03*
X378064633Y-240463845D03*
X378064633Y-237923845D03*
X378064633Y-235383845D03*
X378064633Y-232843845D03*
X378064633Y-230303844D03*
X378064633Y-227763845D03*
%TD*%
D12*
%TO.C,74*%
X293624000Y-249616000D03*
%TD*%
%TO.C,J_SOCKET_64_1*%
X362568000Y-132896002D03*
X340568000Y-132896002D03*
X362568000Y-154896002D03*
X340568000Y-154896002D03*
D25*
X355318000Y-132316002D03*
D17*
X354818000Y-134856002D03*
X354318000Y-137396002D03*
X353818000Y-132316002D03*
X353318000Y-134856002D03*
X352818000Y-137396001D03*
X352318001Y-132316002D03*
X351818000Y-134856002D03*
X351318000Y-137396002D03*
X350817999Y-132316002D03*
X350318000Y-134856002D03*
X349818000Y-137396002D03*
X349318000Y-132316002D03*
X348818000Y-134856002D03*
X348318000Y-137396002D03*
X347818000Y-132316002D03*
X339988000Y-140146002D03*
X342528000Y-140646002D03*
X345068000Y-141146002D03*
X339988000Y-141646002D03*
X342528000Y-142146002D03*
X345067999Y-142646002D03*
X339988000Y-143146001D03*
X342528000Y-143646002D03*
X345068000Y-144146002D03*
X339988000Y-144646003D03*
X342528000Y-145146002D03*
X345068000Y-145646002D03*
X339988000Y-146146002D03*
X342528000Y-146646002D03*
X345068000Y-147146002D03*
X339988000Y-147646002D03*
X347818000Y-155476002D03*
X348318000Y-152936002D03*
X348818000Y-150396002D03*
X349318000Y-155476002D03*
X349818000Y-152936002D03*
X350318000Y-150396003D03*
X350817999Y-155476002D03*
X351318000Y-152936002D03*
X351818000Y-150396002D03*
X352318001Y-155476002D03*
X352818000Y-152936002D03*
X353318000Y-150396002D03*
X353818000Y-155476002D03*
X354318000Y-152936002D03*
X354818000Y-150396002D03*
X355318000Y-155476002D03*
X363148000Y-147646002D03*
X360608000Y-147146002D03*
X358068000Y-146646002D03*
X363148000Y-146146002D03*
X360608000Y-145646002D03*
X358068001Y-145146002D03*
X363148000Y-144646003D03*
X360608000Y-144146002D03*
X358068000Y-143646002D03*
X363148000Y-143146001D03*
X360608000Y-142646002D03*
X358068000Y-142146002D03*
X363148000Y-141646002D03*
X360608000Y-141146002D03*
X358068000Y-140646002D03*
X363148000Y-140146002D03*
%TD*%
D12*
%TO.C,51*%
X293624000Y-157616000D03*
%TD*%
%TO.C,58*%
X367734001Y-191008000D03*
%TD*%
%TO.C,60*%
X293624000Y-193616000D03*
%TD*%
D15*
%TO.C,J5*%
X381928000Y-151236002D03*
D11*
X381928000Y-148696002D03*
X381928000Y-146156003D03*
X381928000Y-143616002D03*
X381928000Y-141076002D03*
X381928000Y-138536002D03*
X381928000Y-135996002D03*
X381928000Y-133456001D03*
%TD*%
D14*
%TO.C,J3*%
X360978000Y-120256002D03*
D11*
X358438000Y-120256002D03*
X355898001Y-120256002D03*
X353358000Y-120256002D03*
X350818000Y-120256002D03*
X348278000Y-120256002D03*
X345738000Y-120256002D03*
X343197999Y-120256002D03*
%TD*%
D12*
%TO.C,68*%
X293624000Y-225616000D03*
%TD*%
%TO.C,50*%
X335734001Y-191008000D03*
%TD*%
%TO.C,62*%
X383734000Y-191008000D03*
%TD*%
%TO.C,51*%
X339734000Y-191008000D03*
%TD*%
%TO.C,47*%
X323734000Y-191008000D03*
%TD*%
D13*
%TO.C,J15*%
X342504630Y-268403845D03*
D11*
X345044630Y-268403845D03*
X347584629Y-268403845D03*
X350124630Y-268403845D03*
X352664630Y-268403845D03*
X355204630Y-268403845D03*
X357744630Y-268403845D03*
X360284631Y-268403845D03*
%TD*%
D12*
%TO.C,40*%
X296610000Y-191150000D03*
%TD*%
%TO.C,45*%
X315734000Y-191008000D03*
%TD*%
D26*
%TO.C,1V8_EN*%
X213910000Y-221830000D03*
X213910000Y-228630000D03*
%TD*%
D12*
%TO.C,59*%
X293440000Y-189490000D03*
%TD*%
%TO.C,43*%
X293624000Y-125616000D03*
%TD*%
D15*
%TO.C,J6*%
X387678000Y-151186001D03*
D11*
X387678000Y-148646001D03*
X387678000Y-146106002D03*
X387678000Y-143566001D03*
X387678000Y-141026001D03*
X387678000Y-138486001D03*
X387678000Y-135946001D03*
X387678000Y-133406000D03*
%TD*%
D12*
%TO.C,65*%
X395210000Y-191050000D03*
%TD*%
D27*
%TO.C,J_CARDX_L_1*%
X270340000Y-128588750D03*
X270340000Y-168718750D03*
%TD*%
D12*
%TO.C,REF\u002A\u002A*%
X182372000Y-125984000D03*
%TD*%
%TO.C,42*%
X303734001Y-191008000D03*
%TD*%
%TO.C,57*%
X363734001Y-191008000D03*
%TD*%
%TO.C,46*%
X319734000Y-191008000D03*
%TD*%
D26*
%TO.C,3.3V_EN*%
X214215000Y-234095000D03*
X214215000Y-240895000D03*
%TD*%
D12*
%TO.C,49*%
X331734001Y-191008000D03*
%TD*%
%TO.C,64*%
X293624000Y-209616000D03*
%TD*%
D14*
%TO.C,J9*%
X360284633Y-207443845D03*
D11*
X357744633Y-207443845D03*
X355204634Y-207443845D03*
X352664633Y-207443845D03*
X350124633Y-207443845D03*
X347584633Y-207443845D03*
X345044633Y-207443845D03*
X342504632Y-207443845D03*
%TD*%
D12*
%TO.C,63*%
X387734000Y-191008000D03*
%TD*%
D13*
%TO.C,J14*%
X341234633Y-264593845D03*
D11*
X343774633Y-264593845D03*
X346314632Y-264593845D03*
X348854633Y-264593845D03*
X351394633Y-264593845D03*
X353934633Y-264593845D03*
X356474633Y-264593845D03*
X359014634Y-264593845D03*
X361554633Y-264593845D03*
%TD*%
D12*
%TO.C,53*%
X347734000Y-191008000D03*
%TD*%
%TO.C,REF\u002A\u002A*%
X392415633Y-197918845D03*
%TD*%
D28*
%TO.C,C120*%
X336634632Y-243257846D03*
X335674632Y-243257846D03*
%TD*%
D29*
%TO.C,C118*%
X344496625Y-236613839D03*
X345592641Y-237709855D03*
%TD*%
D30*
%TO.C,C104*%
X356788000Y-154466001D03*
X356788000Y-155426001D03*
%TD*%
D28*
%TO.C,C103*%
X347788000Y-156823502D03*
X346828000Y-156823502D03*
%TD*%
D31*
%TO.C,C119*%
X337220779Y-246080460D03*
X335670779Y-246080460D03*
%TD*%
D32*
%TO.C,C107*%
X346822633Y-231052845D03*
X346822633Y-232602845D03*
%TD*%
D28*
%TO.C,C121*%
X357368991Y-252810195D03*
X356408991Y-252810195D03*
%TD*%
D33*
%TO.C,C115*%
X345390765Y-223081393D03*
X346350765Y-223081393D03*
%TD*%
D34*
%TO.C,C112*%
X366704632Y-245223845D03*
X366704632Y-244263845D03*
%TD*%
D27*
%TO.C,LQFP100_DATA_1*%
X305930633Y-218683845D03*
D35*
X304874633Y-241673845D03*
D27*
X305930633Y-257163845D03*
D35*
X304874632Y-220673845D03*
X311046634Y-220673845D03*
X304874633Y-221173845D03*
X311046633Y-221173845D03*
X304874633Y-221673845D03*
X311046633Y-221673845D03*
X304874633Y-222173845D03*
X311046633Y-222173845D03*
X304874633Y-222673845D03*
X311046633Y-222673845D03*
X304874632Y-223173845D03*
X311046634Y-223173845D03*
X304874633Y-223673845D03*
X311046633Y-223673845D03*
X304874633Y-224173845D03*
X311046633Y-224173845D03*
X304874633Y-224673845D03*
X311046633Y-224673845D03*
X304874633Y-225173845D03*
X311046633Y-225173845D03*
X304874633Y-225673844D03*
X311046633Y-225673844D03*
X304874633Y-226173845D03*
X311046633Y-226173845D03*
X304874633Y-226673845D03*
X311046633Y-226673845D03*
X304874633Y-227173846D03*
X311046633Y-227173846D03*
X304874633Y-227673845D03*
X311046633Y-227673845D03*
X304874633Y-228173844D03*
X311046633Y-228173844D03*
X304874633Y-228673845D03*
X311046633Y-228673845D03*
X304874633Y-229173845D03*
X311046633Y-229173845D03*
X304874633Y-229673846D03*
X311046633Y-229673846D03*
X304874633Y-230173845D03*
X311046633Y-230173845D03*
X304874633Y-230673845D03*
X311046633Y-230673845D03*
X304874633Y-231173845D03*
X311046633Y-231173845D03*
X304874633Y-231673845D03*
X311046633Y-231673845D03*
X304874632Y-232173845D03*
X311046634Y-232173845D03*
X304874633Y-232673845D03*
X311046633Y-232673845D03*
X304874633Y-233173845D03*
X311046633Y-233173845D03*
X304874633Y-233673845D03*
X311046633Y-233673845D03*
X304874633Y-234173845D03*
X311046633Y-234173845D03*
X304874633Y-234673844D03*
X311046633Y-234673844D03*
X304874633Y-235173845D03*
X311046633Y-235173845D03*
X304874633Y-240673845D03*
X311046633Y-240673845D03*
X304874633Y-241173846D03*
X311046633Y-241173846D03*
X311046633Y-241673845D03*
X304874633Y-242173845D03*
X311046633Y-242173845D03*
X304874633Y-242673845D03*
X311046633Y-242673845D03*
X304874633Y-243173845D03*
X311046633Y-243173845D03*
X304874632Y-243673845D03*
X311046634Y-243673845D03*
X304874633Y-244173845D03*
X311050633Y-244173844D03*
X304874633Y-244673845D03*
X311046633Y-244673845D03*
X304874633Y-245173845D03*
X311046633Y-245173845D03*
X304874633Y-245673845D03*
X311046633Y-245673845D03*
X304874633Y-246173844D03*
X311046633Y-246173844D03*
X304874633Y-246673845D03*
X311046633Y-246673845D03*
X304874633Y-247173845D03*
X311046633Y-247173845D03*
X304874633Y-247673846D03*
X311046633Y-247673846D03*
X304874633Y-248173845D03*
X311046633Y-248173845D03*
X304874633Y-248673844D03*
X311046633Y-248673844D03*
X304874633Y-249173845D03*
X311046633Y-249173845D03*
X304874633Y-249673845D03*
X311046633Y-249673845D03*
X304874633Y-250173846D03*
X311046633Y-250173846D03*
X304874633Y-250673845D03*
X311046633Y-250673845D03*
X304874633Y-251173845D03*
X311046633Y-251173845D03*
X304874633Y-251673845D03*
X311046633Y-251673845D03*
X304874633Y-252173845D03*
X311046633Y-252173845D03*
X304874632Y-252673845D03*
X311046634Y-252673845D03*
X304874633Y-253173845D03*
X311046633Y-253173845D03*
X304874633Y-253673845D03*
X311046633Y-253673845D03*
X304874633Y-254173845D03*
X311046633Y-254173845D03*
X304874633Y-254673845D03*
X311046633Y-254673845D03*
X304874632Y-255173845D03*
X311046634Y-255173845D03*
D36*
X307960633Y-219483845D03*
D37*
X307960633Y-224742846D03*
X307960633Y-231092846D03*
D36*
X307960633Y-236363844D03*
X307960633Y-239483846D03*
D37*
X307960633Y-244754844D03*
X307960633Y-251104844D03*
D36*
X307960633Y-256363845D03*
%TD*%
D38*
%TO.C,C114*%
X349349633Y-231319846D03*
X350899633Y-231319846D03*
%TD*%
D34*
%TO.C,C96*%
X338588000Y-147826002D03*
X338588000Y-146866002D03*
%TD*%
D33*
%TO.C,C108*%
X366141934Y-233408442D03*
X367101934Y-233408442D03*
%TD*%
D32*
%TO.C,C117*%
X334694632Y-226983846D03*
X334694632Y-228533846D03*
%TD*%
D27*
%TO.C,LQFP64_DATA_1*%
X306218000Y-126263502D03*
X306218000Y-164743502D03*
D35*
X305161999Y-128253502D03*
X311334001Y-128253502D03*
X305162000Y-128753502D03*
X311334000Y-128753502D03*
X305162000Y-129253502D03*
X311334000Y-129253502D03*
X305162000Y-129753502D03*
X311334000Y-129753502D03*
X305162000Y-130253502D03*
X311334000Y-130253502D03*
X305161999Y-130753502D03*
X311334001Y-130753502D03*
X305162000Y-131253502D03*
X311334000Y-131253502D03*
X305162000Y-131753502D03*
X311334000Y-131753502D03*
X305162000Y-132253502D03*
X311334000Y-132253502D03*
X305162000Y-132753502D03*
X311334000Y-132753502D03*
X305162000Y-133253501D03*
X311334000Y-133253501D03*
X305162000Y-133753502D03*
X311334000Y-133753502D03*
X305162000Y-134253502D03*
X311334000Y-134253502D03*
X305162000Y-134753503D03*
X311334000Y-134753503D03*
X305162000Y-135253502D03*
X311334000Y-135253502D03*
X305162000Y-135753501D03*
X311334000Y-135753501D03*
X305162000Y-136253502D03*
X311334000Y-136253502D03*
X305162000Y-136753502D03*
X311334000Y-136753502D03*
X305162000Y-137253503D03*
X311334000Y-137253503D03*
X305162000Y-137753502D03*
X311334000Y-137753502D03*
X305162000Y-138253502D03*
X311334000Y-138253502D03*
X305162000Y-138753502D03*
X311334000Y-138753502D03*
X305162000Y-139253502D03*
X311334000Y-139253502D03*
X305161999Y-139753502D03*
X311334001Y-139753502D03*
X305162000Y-140253502D03*
X311334000Y-140253502D03*
X305162000Y-140753502D03*
X311334000Y-140753502D03*
X305162000Y-141253502D03*
X311334000Y-141253502D03*
X305162000Y-141753502D03*
X311334000Y-141753502D03*
X305162000Y-142253501D03*
X311334000Y-142253501D03*
X305162000Y-142753502D03*
X311334000Y-142753502D03*
X305162000Y-148253502D03*
X311334000Y-148253502D03*
X305162000Y-148753503D03*
X311334000Y-148753503D03*
X305162000Y-149253502D03*
X311334000Y-149253502D03*
X305162000Y-149753502D03*
X311334000Y-149753502D03*
X305162000Y-150253502D03*
X311334000Y-150253502D03*
X305162000Y-150753502D03*
X311334000Y-150753502D03*
X305161999Y-151253502D03*
X311334001Y-151253502D03*
X305162000Y-151753502D03*
X311338000Y-151753501D03*
X305162000Y-152253502D03*
X311334000Y-152253502D03*
X305162000Y-152753502D03*
X311334000Y-152753502D03*
X305162000Y-153253502D03*
X311334000Y-153253502D03*
X305162000Y-153753501D03*
X311334000Y-153753501D03*
X305162000Y-154253502D03*
X311334000Y-154253502D03*
X305162000Y-154753502D03*
X311334000Y-154753502D03*
X305162000Y-155253503D03*
X311334000Y-155253503D03*
X305162000Y-155753502D03*
X311334000Y-155753502D03*
X305162000Y-156253501D03*
X311334000Y-156253501D03*
X305162000Y-156753502D03*
X311334000Y-156753502D03*
X305162000Y-157253502D03*
X311334000Y-157253502D03*
X305162000Y-157753503D03*
X311334000Y-157753503D03*
X305162000Y-158253502D03*
X311334000Y-158253502D03*
X305162000Y-158753502D03*
X311334000Y-158753502D03*
X305162000Y-159253502D03*
X311334000Y-159253502D03*
X305162000Y-159753502D03*
X311334000Y-159753502D03*
X305161999Y-160253502D03*
X311334001Y-160253502D03*
X305162000Y-160753502D03*
X311334000Y-160753502D03*
X305162000Y-161253502D03*
X311334000Y-161253502D03*
X305162000Y-161753502D03*
X311334000Y-161753502D03*
X305162000Y-162253502D03*
X311334000Y-162253502D03*
X305161999Y-162753502D03*
X311334001Y-162753502D03*
D36*
X308248000Y-127063502D03*
D37*
X308248000Y-132322503D03*
X308248000Y-138672503D03*
D36*
X308248000Y-143943501D03*
X308248000Y-147063503D03*
D37*
X308248000Y-152334501D03*
X308248000Y-158684501D03*
D36*
X308248000Y-163943502D03*
%TD*%
D32*
%TO.C,C102*%
X342508000Y-148211002D03*
X342508000Y-149761002D03*
%TD*%
D34*
%TO.C,C105*%
X364528000Y-140196002D03*
X364528000Y-139236002D03*
%TD*%
%TO.C,C113*%
X358760633Y-228568512D03*
X358760633Y-227608512D03*
%TD*%
D39*
%TO.C,C110*%
X358846044Y-233097845D03*
X358167222Y-233776667D03*
%TD*%
D40*
%TO.C,C109*%
X344536633Y-227001845D03*
X343440617Y-225905829D03*
%TD*%
D28*
%TO.C,C100*%
X349568000Y-130936002D03*
X348608000Y-130936002D03*
%TD*%
D34*
%TO.C,C101*%
X338558000Y-140186002D03*
X338558000Y-139226002D03*
%TD*%
D33*
%TO.C,C116*%
X366380633Y-235637844D03*
X367340633Y-235637844D03*
%TD*%
%TO.C,C99*%
X355298000Y-131003502D03*
X356258000Y-131003502D03*
%TD*%
%TO.C,C98*%
X345018000Y-139646002D03*
X345978000Y-139646002D03*
%TD*%
D38*
%TO.C,C97*%
X345043000Y-148846001D03*
X346593000Y-148846001D03*
%TD*%
D28*
%TO.C,C111*%
X358530000Y-241970000D03*
X357570000Y-241970000D03*
%TD*%
M02*
