%TF.GenerationSoftware,KiCad,Pcbnew,10.0.3*%
%TF.CreationDate,2026-07-14T16:43:16-04:00*%
%TF.ProjectId,pcbfiles,70636266-696c-4657-932e-6b696361645f,rev?*%
%TF.SameCoordinates,Original*%
%TF.FileFunction,Paste,Bot*%
%TF.FilePolarity,Positive*%
%FSLAX46Y46*%
G04 Gerber Fmt 4.6, Leading zero omitted, Abs format (unit mm)*
G04 Created by KiCad (PCBNEW 10.0.3) date 2026-07-14 16:43:16*
%MOMM*%
%LPD*%
G01*
G04 APERTURE LIST*
G04 Aperture macros list*
%AMRoundRect*
0 Rectangle with rounded corners*
0 $1 Rounding radius*
0 $2 $3 $4 $5 $6 $7 $8 $9 X,Y pos of 4 corners*
0 Add a 4 corners polygon primitive as box body*
4,1,4,$2,$3,$4,$5,$6,$7,$8,$9,$2,$3,0*
0 Add four circle primitives for the rounded corners*
1,1,$1+$1,$2,$3*
1,1,$1+$1,$4,$5*
1,1,$1+$1,$6,$7*
1,1,$1+$1,$8,$9*
0 Add four rect primitives between the rounded corners*
20,1,$1+$1,$2,$3,$4,$5,0*
20,1,$1+$1,$4,$5,$6,$7,0*
20,1,$1+$1,$6,$7,$8,$9,0*
20,1,$1+$1,$8,$9,$2,$3,0*%
G04 Aperture macros list end*
%ADD10RoundRect,0.140000X0.140000X0.170000X-0.140000X0.170000X-0.140000X-0.170000X0.140000X-0.170000X0*%
%ADD11RoundRect,0.225000X-0.335876X-0.017678X-0.017678X-0.335876X0.335876X0.017678X0.017678X0.335876X0*%
%ADD12RoundRect,0.140000X-0.170000X0.140000X-0.170000X-0.140000X0.170000X-0.140000X0.170000X0.140000X0*%
%ADD13RoundRect,0.225000X0.225000X0.250000X-0.225000X0.250000X-0.225000X-0.250000X0.225000X-0.250000X0*%
%ADD14RoundRect,0.225000X-0.250000X0.225000X-0.250000X-0.225000X0.250000X-0.225000X0.250000X0.225000X0*%
%ADD15RoundRect,0.140000X-0.140000X-0.170000X0.140000X-0.170000X0.140000X0.170000X-0.140000X0.170000X0*%
%ADD16RoundRect,0.140000X0.170000X-0.140000X0.170000X0.140000X-0.170000X0.140000X-0.170000X-0.140000X0*%
%ADD17R,1.450000X0.305000*%
%ADD18R,0.640000X2.540000*%
%ADD19R,0.640000X4.700000*%
%ADD20RoundRect,0.225000X-0.225000X-0.250000X0.225000X-0.250000X0.225000X0.250000X-0.225000X0.250000X0*%
%ADD21RoundRect,0.140000X-0.021213X0.219203X-0.219203X0.021213X0.021213X-0.219203X0.219203X-0.021213X0*%
%ADD22RoundRect,0.225000X0.335876X0.017678X0.017678X0.335876X-0.335876X-0.017678X-0.017678X-0.335876X0*%
G04 APERTURE END LIST*
D10*
%TO.C,C120*%
X336634632Y-243257846D03*
X335674632Y-243257846D03*
%TD*%
D11*
%TO.C,C118*%
X344496625Y-236613839D03*
X345592641Y-237709855D03*
%TD*%
D12*
%TO.C,C104*%
X356788000Y-154466001D03*
X356788000Y-155426001D03*
%TD*%
D10*
%TO.C,C103*%
X347788000Y-156823502D03*
X346828000Y-156823502D03*
%TD*%
D13*
%TO.C,C119*%
X337220779Y-246080460D03*
X335670779Y-246080460D03*
%TD*%
D14*
%TO.C,C107*%
X346822633Y-231052845D03*
X346822633Y-232602845D03*
%TD*%
D10*
%TO.C,C121*%
X357368991Y-252810195D03*
X356408991Y-252810195D03*
%TD*%
D15*
%TO.C,C115*%
X345390765Y-223081393D03*
X346350765Y-223081393D03*
%TD*%
D16*
%TO.C,C112*%
X366704632Y-245223845D03*
X366704632Y-244263845D03*
%TD*%
D17*
%TO.C,LQFP100_DATA_1*%
X304874633Y-241673845D03*
X304874632Y-220673845D03*
X311046634Y-220673845D03*
X304874633Y-221173845D03*
X311046633Y-221173845D03*
X304874633Y-221673845D03*
X311046633Y-221673845D03*
X304874633Y-222173845D03*
X311046633Y-222173845D03*
X304874633Y-222673845D03*
X311046633Y-222673845D03*
X304874632Y-223173845D03*
X311046634Y-223173845D03*
X304874633Y-223673845D03*
X311046633Y-223673845D03*
X304874633Y-224173845D03*
X311046633Y-224173845D03*
X304874633Y-224673845D03*
X311046633Y-224673845D03*
X304874633Y-225173845D03*
X311046633Y-225173845D03*
X304874633Y-225673844D03*
X311046633Y-225673844D03*
X304874633Y-226173845D03*
X311046633Y-226173845D03*
X304874633Y-226673845D03*
X311046633Y-226673845D03*
X304874633Y-227173846D03*
X311046633Y-227173846D03*
X304874633Y-227673845D03*
X311046633Y-227673845D03*
X304874633Y-228173844D03*
X311046633Y-228173844D03*
X304874633Y-228673845D03*
X311046633Y-228673845D03*
X304874633Y-229173845D03*
X311046633Y-229173845D03*
X304874633Y-229673846D03*
X311046633Y-229673846D03*
X304874633Y-230173845D03*
X311046633Y-230173845D03*
X304874633Y-230673845D03*
X311046633Y-230673845D03*
X304874633Y-231173845D03*
X311046633Y-231173845D03*
X304874633Y-231673845D03*
X311046633Y-231673845D03*
X304874632Y-232173845D03*
X311046634Y-232173845D03*
X304874633Y-232673845D03*
X311046633Y-232673845D03*
X304874633Y-233173845D03*
X311046633Y-233173845D03*
X304874633Y-233673845D03*
X311046633Y-233673845D03*
X304874633Y-234173845D03*
X311046633Y-234173845D03*
X304874633Y-234673844D03*
X311046633Y-234673844D03*
X304874633Y-235173845D03*
X311046633Y-235173845D03*
X304874633Y-240673845D03*
X311046633Y-240673845D03*
X304874633Y-241173846D03*
X311046633Y-241173846D03*
X311046633Y-241673845D03*
X304874633Y-242173845D03*
X311046633Y-242173845D03*
X304874633Y-242673845D03*
X311046633Y-242673845D03*
X304874633Y-243173845D03*
X311046633Y-243173845D03*
X304874632Y-243673845D03*
X311046634Y-243673845D03*
X304874633Y-244173845D03*
X311050633Y-244173844D03*
X304874633Y-244673845D03*
X311046633Y-244673845D03*
X304874633Y-245173845D03*
X311046633Y-245173845D03*
X304874633Y-245673845D03*
X311046633Y-245673845D03*
X304874633Y-246173844D03*
X311046633Y-246173844D03*
X304874633Y-246673845D03*
X311046633Y-246673845D03*
X304874633Y-247173845D03*
X311046633Y-247173845D03*
X304874633Y-247673846D03*
X311046633Y-247673846D03*
X304874633Y-248173845D03*
X311046633Y-248173845D03*
X304874633Y-248673844D03*
X311046633Y-248673844D03*
X304874633Y-249173845D03*
X311046633Y-249173845D03*
X304874633Y-249673845D03*
X311046633Y-249673845D03*
X304874633Y-250173846D03*
X311046633Y-250173846D03*
X304874633Y-250673845D03*
X311046633Y-250673845D03*
X304874633Y-251173845D03*
X311046633Y-251173845D03*
X304874633Y-251673845D03*
X311046633Y-251673845D03*
X304874633Y-252173845D03*
X311046633Y-252173845D03*
X304874632Y-252673845D03*
X311046634Y-252673845D03*
X304874633Y-253173845D03*
X311046633Y-253173845D03*
X304874633Y-253673845D03*
X311046633Y-253673845D03*
X304874633Y-254173845D03*
X311046633Y-254173845D03*
X304874633Y-254673845D03*
X311046633Y-254673845D03*
X304874632Y-255173845D03*
X311046634Y-255173845D03*
D18*
X307960633Y-219483845D03*
D19*
X307960633Y-224742846D03*
X307960633Y-231092846D03*
D18*
X307960633Y-236363844D03*
X307960633Y-239483846D03*
D19*
X307960633Y-244754844D03*
X307960633Y-251104844D03*
D18*
X307960633Y-256363845D03*
%TD*%
D20*
%TO.C,C114*%
X349349633Y-231319846D03*
X350899633Y-231319846D03*
%TD*%
D16*
%TO.C,C96*%
X338588000Y-147826002D03*
X338588000Y-146866002D03*
%TD*%
D15*
%TO.C,C108*%
X366141934Y-233408442D03*
X367101934Y-233408442D03*
%TD*%
D14*
%TO.C,C117*%
X334694632Y-226983846D03*
X334694632Y-228533846D03*
%TD*%
D17*
%TO.C,LQFP64_DATA_1*%
X305161999Y-128253502D03*
X311334001Y-128253502D03*
X305162000Y-128753502D03*
X311334000Y-128753502D03*
X305162000Y-129253502D03*
X311334000Y-129253502D03*
X305162000Y-129753502D03*
X311334000Y-129753502D03*
X305162000Y-130253502D03*
X311334000Y-130253502D03*
X305161999Y-130753502D03*
X311334001Y-130753502D03*
X305162000Y-131253502D03*
X311334000Y-131253502D03*
X305162000Y-131753502D03*
X311334000Y-131753502D03*
X305162000Y-132253502D03*
X311334000Y-132253502D03*
X305162000Y-132753502D03*
X311334000Y-132753502D03*
X305162000Y-133253501D03*
X311334000Y-133253501D03*
X305162000Y-133753502D03*
X311334000Y-133753502D03*
X305162000Y-134253502D03*
X311334000Y-134253502D03*
X305162000Y-134753503D03*
X311334000Y-134753503D03*
X305162000Y-135253502D03*
X311334000Y-135253502D03*
X305162000Y-135753501D03*
X311334000Y-135753501D03*
X305162000Y-136253502D03*
X311334000Y-136253502D03*
X305162000Y-136753502D03*
X311334000Y-136753502D03*
X305162000Y-137253503D03*
X311334000Y-137253503D03*
X305162000Y-137753502D03*
X311334000Y-137753502D03*
X305162000Y-138253502D03*
X311334000Y-138253502D03*
X305162000Y-138753502D03*
X311334000Y-138753502D03*
X305162000Y-139253502D03*
X311334000Y-139253502D03*
X305161999Y-139753502D03*
X311334001Y-139753502D03*
X305162000Y-140253502D03*
X311334000Y-140253502D03*
X305162000Y-140753502D03*
X311334000Y-140753502D03*
X305162000Y-141253502D03*
X311334000Y-141253502D03*
X305162000Y-141753502D03*
X311334000Y-141753502D03*
X305162000Y-142253501D03*
X311334000Y-142253501D03*
X305162000Y-142753502D03*
X311334000Y-142753502D03*
X305162000Y-148253502D03*
X311334000Y-148253502D03*
X305162000Y-148753503D03*
X311334000Y-148753503D03*
X305162000Y-149253502D03*
X311334000Y-149253502D03*
X305162000Y-149753502D03*
X311334000Y-149753502D03*
X305162000Y-150253502D03*
X311334000Y-150253502D03*
X305162000Y-150753502D03*
X311334000Y-150753502D03*
X305161999Y-151253502D03*
X311334001Y-151253502D03*
X305162000Y-151753502D03*
X311338000Y-151753501D03*
X305162000Y-152253502D03*
X311334000Y-152253502D03*
X305162000Y-152753502D03*
X311334000Y-152753502D03*
X305162000Y-153253502D03*
X311334000Y-153253502D03*
X305162000Y-153753501D03*
X311334000Y-153753501D03*
X305162000Y-154253502D03*
X311334000Y-154253502D03*
X305162000Y-154753502D03*
X311334000Y-154753502D03*
X305162000Y-155253503D03*
X311334000Y-155253503D03*
X305162000Y-155753502D03*
X311334000Y-155753502D03*
X305162000Y-156253501D03*
X311334000Y-156253501D03*
X305162000Y-156753502D03*
X311334000Y-156753502D03*
X305162000Y-157253502D03*
X311334000Y-157253502D03*
X305162000Y-157753503D03*
X311334000Y-157753503D03*
X305162000Y-158253502D03*
X311334000Y-158253502D03*
X305162000Y-158753502D03*
X311334000Y-158753502D03*
X305162000Y-159253502D03*
X311334000Y-159253502D03*
X305162000Y-159753502D03*
X311334000Y-159753502D03*
X305161999Y-160253502D03*
X311334001Y-160253502D03*
X305162000Y-160753502D03*
X311334000Y-160753502D03*
X305162000Y-161253502D03*
X311334000Y-161253502D03*
X305162000Y-161753502D03*
X311334000Y-161753502D03*
X305162000Y-162253502D03*
X311334000Y-162253502D03*
X305161999Y-162753502D03*
X311334001Y-162753502D03*
D18*
X308248000Y-127063502D03*
D19*
X308248000Y-132322503D03*
X308248000Y-138672503D03*
D18*
X308248000Y-143943501D03*
X308248000Y-147063503D03*
D19*
X308248000Y-152334501D03*
X308248000Y-158684501D03*
D18*
X308248000Y-163943502D03*
%TD*%
D14*
%TO.C,C102*%
X342508000Y-148211002D03*
X342508000Y-149761002D03*
%TD*%
D16*
%TO.C,C105*%
X364528000Y-140196002D03*
X364528000Y-139236002D03*
%TD*%
%TO.C,C113*%
X358760633Y-228568512D03*
X358760633Y-227608512D03*
%TD*%
D21*
%TO.C,C110*%
X358846044Y-233097845D03*
X358167222Y-233776667D03*
%TD*%
D22*
%TO.C,C109*%
X344536633Y-227001845D03*
X343440617Y-225905829D03*
%TD*%
D10*
%TO.C,C100*%
X349568000Y-130936002D03*
X348608000Y-130936002D03*
%TD*%
D16*
%TO.C,C101*%
X338558000Y-140186002D03*
X338558000Y-139226002D03*
%TD*%
D15*
%TO.C,C116*%
X366380633Y-235637844D03*
X367340633Y-235637844D03*
%TD*%
%TO.C,C99*%
X355298000Y-131003502D03*
X356258000Y-131003502D03*
%TD*%
%TO.C,C98*%
X345018000Y-139646002D03*
X345978000Y-139646002D03*
%TD*%
D20*
%TO.C,C97*%
X345043000Y-148846001D03*
X346593000Y-148846001D03*
%TD*%
D10*
%TO.C,C111*%
X358530000Y-241970000D03*
X357570000Y-241970000D03*
%TD*%
M02*
